<?xml version="1.0" standalone="no"?><?xml-stylesheet type="text/css" href="https://wps.processon.com/themes/default/wps/mind/icons/icons.css" ?><!DOCTYPE svg PUBLIC "-//W3C//DTD SVG 1.1//EN" "http://www.w3.org/Graphics/SVG/1.1/DTD/svg11.dtd"><svg id="SvgjsSvg1072" xmlns="http://www.w3.org/2000/svg" version="1.1" xmlns:xlink="http://www.w3.org/1999/xlink" xmlns:svgjs="http://svgjs.com/svgjs" width="635.625" height="417.328125"><defs id="SvgjsDefs1073"><pattern patternUnits="userSpaceOnUse" id="pattern_mark" width="300" height="300"><text x="-50" y="150" fill="rgba(229,229,229,0.8)" font-size="18" transform="rotate(-45, 150, 150)"></text></pattern></defs><g id="svgbackgroundid"><defs></defs><rect id="SvgjsRect1075" width="635.625" height="417.328125" fill="#ffffff"></rect></g><rect fill="url(#pattern_mark)" transform="translate(-78,54)" width="1050" height="1485" id="rect_mark" pointer-events="none"></rect><g id="SvgjsG1077" transform="translate(25,121.666664)"><path id="SvgjsPath1078" d="M23.333333333333332 12.5C23.333333333333332 -4.166666666666666 46.666666666666664 -4.166666666666666 46.666666666666664 12.5C46.666666666666664 29.166666666666668 23.333333333333332 29.166666666666668 23.333333333333332 12.5M35 25L35 75M35 75L5.833333333333333 100M35 75L64.16666666666666 100M0 50L70 50 " stroke="rgba(50,50,50,1)" stroke-width="2" fill-opacity="1" fill="#ffffff"></path><path id="SvgjsPath1079" d="M0 0L70 0L70 100L0 100Z " stroke="none" fill="none"></path><g id="SvgjsG1080"><text id="SvgjsText1081" font-family="Arial" text-anchor="middle" font-size="13px" width="110px" fill="#323232" font-weight="700" align="middle" lineHeight="125%" font-style="" opacity="1" y="104.375" transform="rotate(0)"><tspan id="SvgjsTspan1082" dy="16" x="35"><tspan id="SvgjsTspan1083" style="text-decoration:;">用户</tspan></tspan></text></g></g><g id="SvgjsG1084" transform="translate(251,104)"><path id="SvgjsPath1085" d="M0 22C0 -7.333333333333333 87 -7.333333333333333 87 22C87 51.333333333333336 0 51.333333333333336 0 22Z " stroke="rgba(50,50,50,1)" stroke-width="2" fill-opacity="1" fill="#ffffff"></path><g id="SvgjsG1086"><text id="SvgjsText1087" font-family="Arial" text-anchor="middle" font-size="13px" width="67px" fill="#323232" font-weight="400" align="middle" lineHeight="125%" font-style="" opacity="1" y="11.375" transform="rotate(0)"><tspan id="SvgjsTspan1088" dy="16" x="43.5"><tspan id="SvgjsTspan1089" style="text-decoration:;">登录</tspan></tspan></text></g></g><g id="SvgjsG1090" transform="translate(251,182.99241977272723)"><path id="SvgjsPath1091" d="M0 22C0 -7.333333333333333 87 -7.333333333333333 87 22C87 51.333333333333336 0 51.333333333333336 0 22Z " stroke="rgba(50,50,50,1)" stroke-width="2" fill-opacity="1" fill="#ffffff"></path><g id="SvgjsG1092"><text id="SvgjsText1093" font-family="Arial" text-anchor="middle" font-size="13px" width="67px" fill="#323232" font-weight="400" align="middle" lineHeight="125%" font-style="" opacity="1" y="11.375" transform="rotate(0)"><tspan id="SvgjsTspan1094" dy="16" x="43.5"><tspan id="SvgjsTspan1095" style="text-decoration:;">修改密码</tspan></tspan></text></g></g><g id="SvgjsG1096" transform="translate(250.9999999999999,265.6628748863635)"><path id="SvgjsPath1097" d="M0 22C0 -7.333333333333333 87 -7.333333333333333 87 22C87 51.333333333333336 0 51.333333333333336 0 22Z " stroke="rgba(50,50,50,1)" stroke-width="2" fill-opacity="1" fill="#ffffff"></path><g id="SvgjsG1098"><text id="SvgjsText1099" font-family="Arial" text-anchor="middle" font-size="13px" width="67px" fill="#323232" font-weight="400" align="middle" lineHeight="125%" font-style="" opacity="1" y="3.375" transform="rotate(0)"><tspan id="SvgjsTspan1100" dy="16" x="43.5"><tspan id="SvgjsTspan1101" style="text-decoration:;">修改个人信</tspan></tspan><tspan id="SvgjsTspan1102" dy="16" x="43.5"><tspan id="SvgjsTspan1103" style="text-decoration:;">息</tspan></tspan></text></g></g><g id="SvgjsG1104" transform="translate(536.6363636363635,208.81817454545455)"><path id="SvgjsPath1105" d="M24.888887999999998 18.79166625C24.888887999999998 -6.26388875 49.777775999999996 -6.26388875 49.777775999999996 18.79166625C49.777775999999996 43.84722125 24.888887999999998 43.84722125 24.888887999999998 18.79166625M37.333332 37.5833325L37.333332 112.74999749999999M37.333332 112.74999749999999L6.2222219999999995 150.33333M37.333332 112.74999749999999L68.444442 150.33333M0 75.166665L74.666664 75.166665 " stroke="rgba(50,50,50,1)" stroke-width="2" fill-opacity="1" fill="#ffffff"></path><path id="SvgjsPath1106" d="M0 0L74.666664 0L74.666664 150.33333L0 150.33333Z " stroke="none" fill="none"></path><g id="SvgjsG1107"><text id="SvgjsText1108" font-family="Arial" text-anchor="middle" font-size="13px" width="115px" fill="#323232" font-weight="700" align="middle" lineHeight="125%" font-style="" opacity="1" y="154.70833" transform="rotate(0)"><tspan id="SvgjsTspan1109" dy="16" x="37.5"><tspan id="SvgjsTspan1110" style="text-decoration:;">运营人员</tspan></tspan></text></g></g><g id="SvgjsG1111"><path id="SvgjsPath1112" d="M535.7321460490796 219.39110247326252L338.90421758728394 126.42707207219206 " stroke="#323232" stroke-width="2" fill="none"></path></g><g id="SvgjsG1113"><path id="SvgjsPath1114" d="M535.6410496972585 233.7214783065242L335.232893939105 214.25152601165763 " stroke="#323232" stroke-width="2" fill="none"></path></g><g id="SvgjsG1115"><path id="SvgjsPath1116" d="M535.6457439507141 260.3992651572636L338.99061968564934 287.5262270235781 " stroke="#323232" stroke-width="2" fill="none"></path></g><g id="SvgjsG1117"><path id="SvgjsPath1118" d="M94.6660959478325 131.29945117476726L250.0005740521675 126.03387882523273 " stroke="#323232" stroke-width="2" fill="none"></path></g><g id="SvgjsG1119"><path id="SvgjsPath1120" d="M95.91219879364496 142.8541906725968L255.95667120635505 214.74410184915388 " stroke="#323232" stroke-width="2" fill="none"></path></g><g id="SvgjsG1121"><path id="SvgjsPath1122" d="M95.77011543799941 159.08234729686347L250.2298845620005 287.02497033852353 " stroke="#323232" stroke-width="2" fill="none"></path></g><g id="SvgjsG1123" transform="translate(250.9999999999999,348.3333299999999)"><path id="SvgjsPath1124" d="M0 22C0 -7.333333333333333 87 -7.333333333333333 87 22C87 51.333333333333336 0 51.333333333333336 0 22Z " stroke="rgba(50,50,50,1)" stroke-width="2" fill-opacity="1" fill="#ffffff"></path><g id="SvgjsG1125"><text id="SvgjsText1126" font-family="Arial" text-anchor="middle" font-size="13px" width="67px" fill="#323232" font-weight="400" align="middle" lineHeight="125%" font-style="" opacity="1" y="11.375" transform="rotate(0)"><tspan id="SvgjsTspan1127" dy="16" x="43.5"><tspan id="SvgjsTspan1128" style="text-decoration:;">用户管理</tspan></tspan></text></g></g><g id="SvgjsG1129"><path id="SvgjsPath1130" d="M535.7192680121329 284.38350684536414L338.9170956242304 369.93466270009026 " stroke="#323232" stroke-width="2" fill="none"></path></g><g id="SvgjsG1131" transform="translate(251,25.00758022727277)"><path id="SvgjsPath1132" d="M0 22C0 -7.333333333333333 87 -7.333333333333333 87 22C87 51.333333333333336 0 51.333333333333336 0 22Z " stroke="rgba(50,50,50,1)" stroke-width="2" fill-opacity="1" fill="#ffffff"></path><g id="SvgjsG1133"><text id="SvgjsText1134" font-family="Arial" text-anchor="middle" font-size="13px" width="67px" fill="#323232" font-weight="400" align="middle" lineHeight="125%" font-style="" opacity="1" y="11.375" transform="rotate(0)"><tspan id="SvgjsTspan1135" dy="16" x="43.5"><tspan id="SvgjsTspan1136" style="text-decoration:;">注册</tspan></tspan></text></g></g><g id="SvgjsG1137"><path id="SvgjsPath1138" d="M95.90909090909088 110.87878545454544L250.07534340293546 47.3883822460503 " stroke="#323232" stroke-width="2" fill="none"></path></g></svg>