<?xml version="1.0" standalone="no"?><?xml-stylesheet type="text/css" href="https://wps.processon.com/themes/default/wps/mind/icons/icons.css" ?><!DOCTYPE svg PUBLIC "-//W3C//DTD SVG 1.1//EN" "http://www.w3.org/Graphics/SVG/1.1/DTD/svg11.dtd"><svg id="SvgjsSvg1000" xmlns="http://www.w3.org/2000/svg" version="1.1" xmlns:xlink="http://www.w3.org/1999/xlink" xmlns:svgjs="http://svgjs.com/svgjs" width="1509" height="938.5"><rect fill="url(#pattern_mark)" transform="translate(-817.671875,-393.5)" width="2347" height="1337" id="rect_mark" pointer-events="none"></rect><defs id="SvgjsDefs1001"><marker id="SvgjsMarker1062" markerWidth="14" markerHeight="10" refX="10" refY="5" viewBox="0 0 14 10" orient="auto" markerUnits="userSpaceOnUse" stroke-dasharray="0,0"><path id="SvgjsPath1063" d="M0 0L14 5L0 10L0 0 " fill="#323232" stroke="#323232" stroke-width="1"></path></marker><marker id="SvgjsMarker1076" markerWidth="14" markerHeight="10" refX="10" refY="5" viewBox="0 0 14 10" orient="auto" markerUnits="userSpaceOnUse" stroke-dasharray="0,0"><path id="SvgjsPath1077" d="M0 0L14 5L0 10L0 0 " fill="#323232" stroke="#323232" stroke-width="1"></path></marker><marker id="SvgjsMarker1084" markerWidth="14" markerHeight="10" refX="10" refY="5" viewBox="0 0 14 10" orient="auto" markerUnits="userSpaceOnUse" stroke-dasharray="0,0"><path id="SvgjsPath1085" d="M0 0L14 5L0 10L0 0 " fill="#323232" stroke="#323232" stroke-width="1"></path></marker><marker id="SvgjsMarker1092" markerWidth="14" markerHeight="10" refX="10" refY="5" viewBox="0 0 14 10" orient="auto" markerUnits="userSpaceOnUse" stroke-dasharray="0,0"><path id="SvgjsPath1093" d="M0 0L14 5L0 10L0 0 " fill="#323232" stroke="#323232" stroke-width="1"></path></marker><marker id="SvgjsMarker1108" markerWidth="14" markerHeight="10" refX="10" refY="5" viewBox="0 0 14 10" orient="auto" markerUnits="userSpaceOnUse" stroke-dasharray="0,0"><path id="SvgjsPath1109" d="M0 0L14 5L0 10L0 0 " fill="#323232" stroke="#323232" stroke-width="1"></path></marker><marker id="SvgjsMarker1116" markerWidth="14" markerHeight="10" refX="10" refY="5" viewBox="0 0 14 10" orient="auto" markerUnits="userSpaceOnUse" stroke-dasharray="0,0"><path id="SvgjsPath1117" d="M0 0L14 5L0 10L0 0 " fill="#323232" stroke="#323232" stroke-width="1"></path></marker><marker id="SvgjsMarker1130" markerWidth="14" markerHeight="10" refX="10" refY="5" viewBox="0 0 14 10" orient="auto" markerUnits="userSpaceOnUse" stroke-dasharray="0,0"><path id="SvgjsPath1131" d="M0 0L14 5L0 10L0 0 " fill="#323232" stroke="#323232" stroke-width="1"></path></marker><pattern patternUnits="userSpaceOnUse" id="pattern_mark" width="300" height="300"><text x="-50" y="150" fill="rgba(229,229,229,0.8)" font-size="18" transform="rotate(-45, 150, 150)"></text></pattern></defs><g id="svgbackgroundid"><defs></defs><rect x="0" y="0" width="1509" height="938.5" fill="#ffffff"></rect></g><g id="SvgjsG1007" transform="translate(1355.0099431818176,692.5000000000002)"><path id="SvgjsPath1008" d="M0 4Q0 0 4 0L125 0Q129 0 129 4L129 56Q129 60 125 60L4 60Q0 60 0 56Z " stroke="rgba(50,50,50,1)" stroke-width="2" fill-opacity="1" fill="#ffffff"></path><g id="SvgjsG1009"><text id="SvgjsText1010" font-family="微软雅黑" text-anchor="middle" font-size="13px" width="109px" fill="#323232" font-weight="400" align="middle" lineheight="125%" font-style="" opacity="1" y="19.375" transform="rotate(0)"><tspan id="SvgjsTspan1011" dy="16" x="64.5"><tspan id="SvgjsTspan1012" style="text-decoration:;">事件消费服务</tspan></tspan></text></g></g><g id="SvgjsG1013" transform="translate(327.828125,609)"><path id="SvgjsPath1014" d="M0 0L530 0L530 267L0 267Z " stroke="rgba(50,50,50,1)" stroke-width="2" fill-opacity="1" fill="#ffffff"></path><g id="SvgjsG1015"><text id="SvgjsText1016" font-family="微软雅黑" text-anchor="middle" font-size="13px" width="510px" fill="#323232" font-weight="400" align="middle" lineheight="125%" font-style="" opacity="1" y="122.875" transform="rotate(0)"></text></g></g><g id="SvgjsG1017" transform="translate(307.828125,589)"><path id="SvgjsPath1018" d="M0 0L530 0L530 267L0 267Z " stroke="rgba(50,50,50,1)" stroke-width="2" fill-opacity="1" fill="#ffffff"></path><g id="SvgjsG1019"><text id="SvgjsText1020" font-family="微软雅黑" text-anchor="middle" font-size="13px" width="510px" fill="#323232" font-weight="400" align="middle" lineheight="125%" font-style="" opacity="1" y="122.875" transform="rotate(0)"></text></g></g><g id="SvgjsG1021" transform="translate(537.8281250000002,880.5000000000002)"><path id="SvgjsPath1022" d="M0 0L109 0L109 32.5L0 32.5Z " stroke="none" fill-opacity="1" fill="#ffffff"></path><g id="SvgjsG1023"><text id="SvgjsText1024" font-family="微软雅黑" text-anchor="middle" font-size="13px" width="89px" fill="#323232" font-weight="400" align="middle" lineheight="125%" font-style="" opacity="1" y="5.625" transform="rotate(0)"><tspan id="SvgjsTspan1025" dy="16" x="54.5"><tspan id="SvgjsTspan1026" style="text-decoration:;">数据库集群</tspan></tspan></text></g></g><g id="SvgjsG1027" transform="translate(347.828125,677)"><path id="SvgjsPath1028" d="M0 0L100 0L100 70L0 70Z " stroke="rgba(50,50,50,1)" stroke-width="2" fill-opacity="1" fill="#ffffff"></path><g id="SvgjsG1029"><text id="SvgjsText1030" font-family="微软雅黑" text-anchor="middle" font-size="13px" width="80px" fill="#323232" font-weight="400" align="middle" lineheight="125%" font-style="" opacity="1" y="24.375" transform="rotate(0)"><tspan id="SvgjsTspan1031" dy="16" x="50"><tspan id="SvgjsTspan1032" style="text-decoration:;">用户基本信息</tspan></tspan></text></g></g><g id="SvgjsG1033" transform="translate(674.828125,677)"><path id="SvgjsPath1034" d="M0 0L100 0L100 70L0 70Z " stroke="rgba(50,50,50,1)" stroke-width="2" fill-opacity="1" fill="#ffffff"></path><g id="SvgjsG1035"><text id="SvgjsText1036" font-family="微软雅黑" text-anchor="middle" font-size="13px" width="80px" fill="#323232" font-weight="400" align="middle" lineheight="125%" font-style="" opacity="1" y="24.375" transform="rotate(0)"><tspan id="SvgjsTspan1037" dy="16" x="50"><tspan id="SvgjsTspan1038" style="text-decoration:;">用户事件</tspan></tspan></text></g></g><g id="SvgjsG1039" transform="translate(302.828125,341)"><path id="SvgjsPath1040" d="M0 4Q0 0 4 0L536 0Q540 0 540 4L540 70Q540 74 536 74L4 74Q0 74 0 70Z " stroke="rgba(50,50,50,1)" stroke-width="2" fill-opacity="1" fill="#ffffff"></path><g id="SvgjsG1041"><text id="SvgjsText1042" font-family="微软雅黑" text-anchor="middle" font-size="13px" width="520px" fill="#323232" font-weight="400" align="middle" lineheight="125%" font-style="" opacity="1" y="26.375" transform="rotate(0)"><tspan id="SvgjsTspan1043" dy="16" x="270"><tspan id="SvgjsTspan1044" style="text-decoration:;">用户服务</tspan></tspan></text></g></g><g id="SvgjsG1045" transform="translate(537.828125,25)"><path id="SvgjsPath1046" d="M23.333333333333332 12.5C23.333333333333332 -4.166666666666666 46.666666666666664 -4.166666666666666 46.666666666666664 12.5C46.666666666666664 29.166666666666668 23.333333333333332 29.166666666666668 23.333333333333332 12.5M35 25L35 75M35 75L5.833333333333333 100M35 75L64.16666666666666 100M0 50L70 50 " stroke="rgba(50,50,50,1)" stroke-width="2" fill-opacity="1" fill="#ffffff"></path><path id="SvgjsPath1047" d="M0 0L70 0L70 100L0 100Z " stroke="none" fill="none"></path><g id="SvgjsG1048"><text id="SvgjsText1049" font-family="微软雅黑" text-anchor="middle" font-size="13px" width="110px" fill="#323232" font-weight="400" align="middle" lineheight="125%" font-style="" opacity="1" y="104.375" transform="rotate(0)"><tspan id="SvgjsTspan1050" dy="16" x="35"><tspan id="SvgjsTspan1051" style="text-decoration:;">用户</tspan></tspan></text></g></g><g id="SvgjsG1052" transform="translate(1016.828125,348)"><path id="SvgjsPath1053" d="M0 0L129 0L129 60L0 60Z " stroke="rgba(50,50,50,1)" stroke-width="2" fill-opacity="1" fill="#ffffff"></path><g id="SvgjsG1054"><text id="SvgjsText1055" font-family="微软雅黑" text-anchor="middle" font-size="13px" width="109px" fill="#323232" font-weight="400" align="middle" lineheight="125%" font-style="" opacity="1" y="11.375" transform="rotate(0)"><tspan id="SvgjsTspan1056" dy="16" x="64.5"><tspan id="SvgjsTspan1057" style="text-decoration:;">手机号-用户编号</tspan></tspan><tspan id="SvgjsTspan1058" dy="16" x="64.5"><tspan id="SvgjsTspan1059" style="text-decoration:;">映射</tspan></tspan></text></g></g><g id="SvgjsG1060"><path id="SvgjsPath1061" d="M572.828125 126L572.828125 233L572.828125 233L572.828125 337.4 " stroke="#323232" stroke-width="2" fill="none" marker-end="url(#SvgjsMarker1062)"></path><rect id="SvgjsRect1064" width="86" height="16" x="529.828125" y="223.7" fill="#ffffff"></rect><text id="SvgjsText1065" font-family="微软雅黑" text-anchor="middle" font-size="13px" width="86px" fill="#323232" font-weight="400" align="top" lineheight="16px" font-style="" opacity="1" y="221.075" transform="rotate(0)"><tspan id="SvgjsTspan1066" dy="16" x="572.828125"><tspan id="SvgjsTspan1067" style="text-decoration:;">1、手机号登录</tspan></tspan></text></g><g id="SvgjsG1068" transform="translate(1016.828125,682)"><path id="SvgjsPath1069" d="M0 0L129 0L129 60L0 60Z " stroke="rgba(50,50,50,1)" stroke-width="2" fill-opacity="1" fill="#ffffff"></path><g id="SvgjsG1070"><text id="SvgjsText1071" font-family="微软雅黑" text-anchor="middle" font-size="13px" width="109px" fill="#323232" font-weight="400" align="middle" lineheight="125%" font-style="" opacity="1" y="19.375" transform="rotate(0)"><tspan id="SvgjsTspan1072" dy="16" x="64.5"><tspan id="SvgjsTspan1073" style="text-decoration:;">事件队列</tspan></tspan></text></g></g><g id="SvgjsG1074"><path id="SvgjsPath1075" d="M775.828125 712L895.828125 712L895.828125 712L1013.2281250000001 712 " stroke="#323232" stroke-width="2" fill="none" marker-end="url(#SvgjsMarker1076)"></path><rect id="SvgjsRect1078" width="125" height="16" x="832.028125" y="704" fill="#ffffff"></rect><text id="SvgjsText1079" font-family="微软雅黑" text-anchor="middle" font-size="13px" width="125px" fill="#323232" font-weight="400" align="top" lineheight="16px" font-style="" opacity="1" y="701.375" transform="rotate(0)"><tspan id="SvgjsTspan1080" dy="16" x="894.528125"><tspan id="SvgjsTspan1081" style="text-decoration:;">5、推送用户登录事件</tspan></tspan></text></g><g id="SvgjsG1082"><path id="SvgjsPath1083" d="M1015.828125 378L929.828125 378L929.828125 378L846.4281249999999 378 " stroke="#323232" stroke-width="2" fill="none" marker-end="url(#SvgjsMarker1084)"></path><rect id="SvgjsRect1086" width="99" height="16" x="881.628125" y="370" fill="#ffffff"></rect><text id="SvgjsText1087" font-family="微软雅黑" text-anchor="middle" font-size="13px" width="99px" fill="#323232" font-weight="400" align="top" lineheight="16px" font-style="" opacity="1" y="367.375" transform="rotate(0)"><tspan id="SvgjsTspan1088" dy="16" x="931.128125"><tspan id="SvgjsTspan1089" style="text-decoration:;">3、获取用户编号</tspan></tspan></text></g><g id="SvgjsG1090"><path id="SvgjsPath1091" d="M397.828125 676L397.828125 546L572.828125 546L572.828125 418.6 " stroke="#323232" stroke-width="2" fill="none" marker-end="url(#SvgjsMarker1092)"></path><rect id="SvgjsRect1094" width="125" height="16" x="421.52812500000005" y="538" fill="#ffffff"></rect><text id="SvgjsText1095" font-family="微软雅黑" text-anchor="middle" font-size="13px" width="125px" fill="#323232" font-weight="400" align="top" lineheight="16px" font-style="" opacity="1" y="535.375" transform="rotate(0)"><tspan id="SvgjsTspan1096" dy="16" x="484.02812500000005"><tspan id="SvgjsTspan1097" style="text-decoration:;">3、获取用户基本信息</tspan></tspan></text></g><g id="SvgjsG1098" transform="translate(25.0099431818187,348)"><path id="SvgjsPath1099" d="M0 0L129 0L129 60L0 60Z " stroke="rgba(50,50,50,1)" stroke-width="2" fill-opacity="1" fill="#ffffff"></path><g id="SvgjsG1100"><text id="SvgjsText1101" font-family="微软雅黑" text-anchor="middle" font-size="13px" width="109px" fill="#323232" font-weight="400" align="middle" lineheight="125%" font-style="" opacity="1" y="11.375" transform="rotate(0)"><tspan id="SvgjsTspan1102" dy="16" x="64.5"><tspan id="SvgjsTspan1103" style="text-decoration:;">手机号-验证码</tspan></tspan><tspan id="SvgjsTspan1104" dy="16" x="64.5"><tspan id="SvgjsTspan1105" style="text-decoration:;">映射</tspan></tspan></text></g></g><g id="SvgjsG1106"><path id="SvgjsPath1107" d="M155.0099431818187 378L228.41903409090946 378L228.41903409090946 378L299.2281250000001 378 " stroke="#323232" stroke-width="2" fill="none" marker-end="url(#SvgjsMarker1108)"></path><rect id="SvgjsRect1110" width="86" height="16" x="184.1190340909094" y="370" fill="#ffffff"></rect><text id="SvgjsText1111" font-family="微软雅黑" text-anchor="middle" font-size="13px" width="86px" fill="#323232" font-weight="400" align="top" lineheight="16px" font-style="" opacity="1" y="367.375" transform="rotate(0)"><tspan id="SvgjsTspan1112" dy="16" x="227.1190340909094"><tspan id="SvgjsTspan1113" style="text-decoration:;">2、获取验证码</tspan></tspan></text></g><g id="SvgjsG1114"><path id="SvgjsPath1115" d="M724.828125 415.590909090909L724.828125 545.7954545454545L724.828125 545.7954545454545L724.828125 673.4000000000001 " stroke="#323232" stroke-width="2" fill="none" marker-end="url(#SvgjsMarker1116)"></path><rect id="SvgjsRect1118" width="125" height="16" x="662.328125" y="536.4954545454545" fill="#ffffff"></rect><text id="SvgjsText1119" font-family="微软雅黑" text-anchor="middle" font-size="13px" width="125px" fill="#323232" font-weight="400" align="top" lineheight="16px" font-style="" opacity="1" y="533.8704545454545" transform="rotate(0)"><tspan id="SvgjsTspan1120" dy="16" x="724.828125"><tspan id="SvgjsTspan1121" style="text-decoration:;">4、用户登录成功事件</tspan></tspan></text></g><g id="SvgjsG1122" transform="translate(1344.1008522727275,682)"><path id="SvgjsPath1123" d="M0 4Q0 0 4 0L125 0Q129 0 129 4L129 56Q129 60 125 60L4 60Q0 60 0 56Z " stroke="rgba(50,50,50,1)" stroke-width="2" fill-opacity="1" fill="#ffffff"></path><g id="SvgjsG1124"><text id="SvgjsText1125" font-family="微软雅黑" text-anchor="middle" font-size="13px" width="109px" fill="#323232" font-weight="400" align="middle" lineheight="125%" font-style="" opacity="1" y="19.375" transform="rotate(0)"><tspan id="SvgjsTspan1126" dy="16" x="64.5"><tspan id="SvgjsTspan1127" style="text-decoration:;">事件消费服务</tspan></tspan></text></g></g><g id="SvgjsG1128"><path id="SvgjsPath1129" d="M1146.828125 712L1244.964488636364 712L1244.964488636364 712L1340.5008522727276 712 " stroke="#323232" stroke-width="2" fill="none" marker-end="url(#SvgjsMarker1130)"></path></g></svg>