<?xml version="1.0" standalone="no"?><?xml-stylesheet type="text/css" href="https://wps.processon.com/themes/default/wps/mind/icons/icons.css" ?><!DOCTYPE svg PUBLIC "-//W3C//DTD SVG 1.1//EN" "http://www.w3.org/Graphics/SVG/1.1/DTD/svg11.dtd"><svg id="SvgjsSvg1000" xmlns="http://www.w3.org/2000/svg" version="1.1" xmlns:xlink="http://www.w3.org/1999/xlink" xmlns:svgjs="http://svgjs.com/svgjs" width="1172" height="927.5"><defs id="SvgjsDefs1001"><marker id="SvgjsMarker1061" markerWidth="14" markerHeight="10" refX="10" refY="5" viewBox="0 0 14 10" orient="auto" markerUnits="userSpaceOnUse" stroke-dasharray="0,0"><path id="SvgjsPath1062" d="M0 0L14 5L0 10L0 0 " fill="#323232" stroke="#323232" stroke-width="1"></path></marker><marker id="SvgjsMarker1069" markerWidth="14" markerHeight="10" refX="10" refY="5" viewBox="0 0 14 10" orient="auto" markerUnits="userSpaceOnUse" stroke-dasharray="0,0"><path id="SvgjsPath1070" d="M0 0L14 5L0 10L0 0 " fill="#323232" stroke="#323232" stroke-width="1"></path></marker><marker id="SvgjsMarker1077" markerWidth="14" markerHeight="10" refX="10" refY="5" viewBox="0 0 14 10" orient="auto" markerUnits="userSpaceOnUse" stroke-dasharray="0,0"><path id="SvgjsPath1078" d="M0 0L14 5L0 10L0 0 " fill="#323232" stroke="#323232" stroke-width="1"></path></marker><marker id="SvgjsMarker1085" markerWidth="14" markerHeight="10" refX="10" refY="5" viewBox="0 0 14 10" orient="auto" markerUnits="userSpaceOnUse" stroke-dasharray="0,0"><path id="SvgjsPath1086" d="M0 0L14 5L0 10L0 0 " fill="#323232" stroke="#323232" stroke-width="1"></path></marker><marker id="SvgjsMarker1099" markerWidth="14" markerHeight="10" refX="10" refY="5" viewBox="0 0 14 10" orient="auto" markerUnits="userSpaceOnUse" stroke-dasharray="0,0"><path id="SvgjsPath1100" d="M0 0L14 5L0 10L0 0 " fill="#323232" stroke="#323232" stroke-width="1"></path></marker><marker id="SvgjsMarker1107" markerWidth="14" markerHeight="10" refX="10" refY="5" viewBox="0 0 14 10" orient="auto" markerUnits="userSpaceOnUse" stroke-dasharray="0,0"><path id="SvgjsPath1108" d="M0 0L14 5L0 10L0 0 " fill="#323232" stroke="#323232" stroke-width="1"></path></marker><pattern patternUnits="userSpaceOnUse" id="pattern_mark" width="300" height="300"><text x="-50" y="150" fill="rgba(229,229,229,0.8)" font-size="18" transform="rotate(-45, 150, 150)"></text></pattern></defs><g id="svgbackgroundid"><defs></defs><rect id="SvgjsRect1008" width="1172" height="927.5" fill="#ffffff"></rect></g><rect fill="url(#pattern_mark)" transform="translate(-48,206)" width="1292" height="1500" id="rect_mark" pointer-events="none"></rect><g id="SvgjsG1010" transform="translate(309,589)"><path id="SvgjsPath1011" d="M0 0L530 0L530 267L0 267Z " stroke="rgba(50,50,50,1)" stroke-width="2" fill-opacity="1" fill="#ffffff"></path><g id="SvgjsG1012"><text id="SvgjsText1013" font-family="微软雅黑" text-anchor="middle" font-size="13px" width="510px" fill="#323232" font-weight="400" align="middle" lineHeight="125%" font-style="" opacity="1" y="122.875" transform="rotate(0)"></text></g></g><g id="SvgjsG1014" transform="translate(519.5,870.5)"><path id="SvgjsPath1015" d="M0 0L109 0L109 32.5L0 32.5Z " stroke="none" fill-opacity="1" fill="#ffffff"></path><g id="SvgjsG1016"><text id="SvgjsText1017" font-family="微软雅黑" text-anchor="middle" font-size="13px" width="89px" fill="#323232" font-weight="400" align="middle" lineHeight="125%" font-style="" opacity="1" y="5.625" transform="rotate(0)"><tspan id="SvgjsTspan1018" dy="16" x="54.5"><tspan id="SvgjsTspan1019" style="text-decoration:;">数据库</tspan></tspan></text></g></g><g id="SvgjsG1020" transform="translate(349,677)"><path id="SvgjsPath1021" d="M0 0L100 0L100 70L0 70Z " stroke="rgba(50,50,50,1)" stroke-width="2" fill-opacity="1" fill="#ffffff"></path><g id="SvgjsG1022"><text id="SvgjsText1023" font-family="微软雅黑" text-anchor="middle" font-size="13px" width="80px" fill="#323232" font-weight="400" align="middle" lineHeight="125%" font-style="" opacity="1" y="24.375" transform="rotate(0)"><tspan id="SvgjsTspan1024" dy="16" x="50"><tspan id="SvgjsTspan1025" style="text-decoration:;">用户基本信息</tspan></tspan></text></g></g><g id="SvgjsG1026" transform="translate(676,677)"><path id="SvgjsPath1027" d="M0 0L100 0L100 70L0 70Z " stroke="rgba(50,50,50,1)" stroke-width="2" fill-opacity="1" fill="#ffffff"></path><g id="SvgjsG1028"><text id="SvgjsText1029" font-family="微软雅黑" text-anchor="middle" font-size="13px" width="80px" fill="#323232" font-weight="400" align="middle" lineHeight="125%" font-style="" opacity="1" y="24.375" transform="rotate(0)"><tspan id="SvgjsTspan1030" dy="16" x="50"><tspan id="SvgjsTspan1031" style="text-decoration:;">用户事件</tspan></tspan></text></g></g><g id="SvgjsG1032" transform="translate(25,348)"><path id="SvgjsPath1033" d="M0 4Q0 0 4 0L125 0Q129 0 129 4L129 56Q129 60 125 60L4 60Q0 60 0 56Z " stroke="rgba(50,50,50,1)" stroke-width="2" fill-opacity="1" fill="#ffffff"></path><g id="SvgjsG1034"><text id="SvgjsText1035" font-family="微软雅黑" text-anchor="middle" font-size="13px" width="109px" fill="#323232" font-weight="400" align="middle" lineHeight="125%" font-style="" opacity="1" y="19.375" transform="rotate(0)"><tspan id="SvgjsTspan1036" dy="16" x="64.5"><tspan id="SvgjsTspan1037" style="text-decoration:;">用户编号生成器</tspan></tspan></text></g></g><g id="SvgjsG1038" transform="translate(304,341)"><path id="SvgjsPath1039" d="M0 4Q0 0 4 0L536 0Q540 0 540 4L540 70Q540 74 536 74L4 74Q0 74 0 70Z " stroke="rgba(50,50,50,1)" stroke-width="2" fill-opacity="1" fill="#ffffff"></path><g id="SvgjsG1040"><text id="SvgjsText1041" font-family="微软雅黑" text-anchor="middle" font-size="13px" width="520px" fill="#323232" font-weight="400" align="middle" lineHeight="125%" font-style="" opacity="1" y="26.375" transform="rotate(0)"><tspan id="SvgjsTspan1042" dy="16" x="270"><tspan id="SvgjsTspan1043" style="text-decoration:;">用户服务</tspan></tspan></text></g></g><g id="SvgjsG1044" transform="translate(539,25)"><path id="SvgjsPath1045" d="M23.333333333333332 12.5C23.333333333333332 -4.166666666666666 46.666666666666664 -4.166666666666666 46.666666666666664 12.5C46.666666666666664 29.166666666666668 23.333333333333332 29.166666666666668 23.333333333333332 12.5M35 25L35 75M35 75L5.833333333333333 100M35 75L64.16666666666666 100M0 50L70 50 " stroke="rgba(50,50,50,1)" stroke-width="2" fill-opacity="1" fill="#ffffff"></path><path id="SvgjsPath1046" d="M0 0L70 0L70 100L0 100Z " stroke="none" fill="none"></path><g id="SvgjsG1047"><text id="SvgjsText1048" font-family="微软雅黑" text-anchor="middle" font-size="13px" width="110px" fill="#323232" font-weight="400" align="middle" lineHeight="125%" font-style="" opacity="1" y="104.375" transform="rotate(0)"><tspan id="SvgjsTspan1049" dy="16" x="35"><tspan id="SvgjsTspan1050" style="text-decoration:;">用户</tspan></tspan></text></g></g><g id="SvgjsG1051" transform="translate(1018,348)"><path id="SvgjsPath1052" d="M0 0L129 0L129 60L0 60Z " stroke="rgba(50,50,50,1)" stroke-width="2" fill-opacity="1" fill="#ffffff"></path><g id="SvgjsG1053"><text id="SvgjsText1054" font-family="微软雅黑" text-anchor="middle" font-size="13px" width="109px" fill="#323232" font-weight="400" align="middle" lineHeight="125%" font-style="" opacity="1" y="11.375" transform="rotate(0)"><tspan id="SvgjsTspan1055" dy="16" x="64.5"><tspan id="SvgjsTspan1056" style="text-decoration:;">手机号-用户编号</tspan></tspan><tspan id="SvgjsTspan1057" dy="16" x="64.5"><tspan id="SvgjsTspan1058" style="text-decoration:;">映射</tspan></tspan></text></g></g><g id="SvgjsG1059"><path id="SvgjsPath1060" d="M574 126L574 233L574 233L574 337.4 " stroke="#323232" stroke-width="2" fill="none" marker-end="url(#SvgjsMarker1061)"></path><rect id="SvgjsRect1063" width="73" height="16" x="537.5" y="223.7" fill="#ffffff"></rect><text id="SvgjsText1064" font-family="微软雅黑" text-anchor="middle" font-size="13px" width="73px" fill="#323232" font-weight="400" align="top" lineHeight="16px" font-style="" opacity="1" y="221.075" transform="rotate(0)"><tspan id="SvgjsTspan1065" dy="16" x="574"><tspan id="SvgjsTspan1066" style="text-decoration:;">1、注册信息</tspan></tspan></text></g><g id="SvgjsG1067"><path id="SvgjsPath1068" d="M155 378L229 378L229 378L300.4 378 " stroke="#323232" stroke-width="2" fill="none" marker-end="url(#SvgjsMarker1069)"></path><rect id="SvgjsRect1071" width="99" height="16" x="178.2" y="370" fill="#ffffff"></rect><text id="SvgjsText1072" font-family="微软雅黑" text-anchor="middle" font-size="13px" width="99px" fill="#323232" font-weight="400" align="top" lineHeight="16px" font-style="" opacity="1" y="367.375" transform="rotate(0)"><tspan id="SvgjsTspan1073" dy="16" x="227.7"><tspan id="SvgjsTspan1074" style="text-decoration:;">2、生成用户编号</tspan></tspan></text></g><g id="SvgjsG1075"><path id="SvgjsPath1076" d="M574 416L574 546L399 546L399 673.4 " stroke="#323232" stroke-width="2" fill="none" marker-end="url(#SvgjsMarker1077)"></path><rect id="SvgjsRect1079" width="125" height="16" x="425.30000000000007" y="538" fill="#ffffff"></rect><text id="SvgjsText1080" font-family="微软雅黑" text-anchor="middle" font-size="13px" width="125px" fill="#323232" font-weight="400" align="top" lineHeight="16px" font-style="" opacity="1" y="535.375" transform="rotate(0)"><tspan id="SvgjsTspan1081" dy="16" x="487.80000000000007"><tspan id="SvgjsTspan1082" style="text-decoration:;">3、新增用户基本信息</tspan></tspan></text></g><g id="SvgjsG1083"><path id="SvgjsPath1084" d="M574 416L574 546L726 546L726 673.4 " stroke="#323232" stroke-width="2" fill="none" marker-end="url(#SvgjsMarker1085)"></path><rect id="SvgjsRect1087" width="125" height="16" x="586.2" y="538" fill="#ffffff"></rect><text id="SvgjsText1088" font-family="微软雅黑" text-anchor="middle" font-size="13px" width="125px" fill="#323232" font-weight="400" align="top" lineHeight="16px" font-style="" opacity="1" y="535.375" transform="rotate(0)"><tspan id="SvgjsTspan1089" dy="16" x="648.7"><tspan id="SvgjsTspan1090" style="text-decoration:;">4、新增用户注册事件</tspan></tspan></text></g><g id="SvgjsG1091" transform="translate(1018,682)"><path id="SvgjsPath1092" d="M0 4Q0 0 4 0L125 0Q129 0 129 4L129 56Q129 60 125 60L4 60Q0 60 0 56Z " stroke="rgba(50,50,50,1)" stroke-width="2" fill-opacity="1" fill="#ffffff"></path><g id="SvgjsG1093"><text id="SvgjsText1094" font-family="微软雅黑" text-anchor="middle" font-size="13px" width="109px" fill="#323232" font-weight="400" align="middle" lineHeight="125%" font-style="" opacity="1" y="19.375" transform="rotate(0)"><tspan id="SvgjsTspan1095" dy="16" x="64.5"><tspan id="SvgjsTspan1096" style="text-decoration:;">事件同步服务</tspan></tspan></text></g></g><g id="SvgjsG1097"><path id="SvgjsPath1098" d="M777 712L897 712L897 712L1014.4000000000001 712 " stroke="#323232" stroke-width="2" fill="none" marker-end="url(#SvgjsMarker1099)"></path><rect id="SvgjsRect1101" width="125" height="16" x="833.2" y="704" fill="#ffffff"></rect><text id="SvgjsText1102" font-family="微软雅黑" text-anchor="middle" font-size="13px" width="125px" fill="#323232" font-weight="400" align="top" lineHeight="16px" font-style="" opacity="1" y="701.375" transform="rotate(0)"><tspan id="SvgjsTspan1103" dy="16" x="895.7"><tspan id="SvgjsTspan1104" style="text-decoration:;">5、推送用户注册事件</tspan></tspan></text></g><g id="SvgjsG1105"><path id="SvgjsPath1106" d="M1082.5 681L1082.5 545L1082.5 545L1082.5 411.6 " stroke="#323232" stroke-width="2" fill="none" marker-end="url(#SvgjsMarker1107)"></path><rect id="SvgjsRect1109" width="125" height="16" x="1020" y="538.3" fill="#ffffff"></rect><text id="SvgjsText1110" font-family="微软雅黑" text-anchor="middle" font-size="13px" width="125px" fill="#323232" font-weight="400" align="top" lineHeight="16px" font-style="" opacity="1" y="535.675" transform="rotate(0)"><tspan id="SvgjsTspan1111" dy="16" x="1082.5"><tspan id="SvgjsTspan1112" style="text-decoration:;">6、消费用户注册事件</tspan></tspan></text></g></svg>