<?xml version="1.0" standalone="no"?><?xml-stylesheet type="text/css" href="https://wps.processon.com/themes/default/wps/mind/icons/icons.css" ?><!DOCTYPE svg PUBLIC "-//W3C//DTD SVG 1.1//EN" "http://www.w3.org/Graphics/SVG/1.1/DTD/svg11.dtd"><svg id="SvgjsSvg1181" xmlns="http://www.w3.org/2000/svg" version="1.1" xmlns:xlink="http://www.w3.org/1999/xlink" xmlns:svgjs="http://svgjs.com/svgjs" width="1178.5" height="827.5"><rect fill="url(#pattern_mark)" transform="translate(-1043,-91.5)" width="2605" height="1098" id="rect_mark" pointer-events="none"></rect><defs id="SvgjsDefs1182"><marker id="SvgjsMarker1209" markerWidth="14" markerHeight="10" refX="10" refY="5" viewBox="0 0 14 10" orient="auto" markerUnits="userSpaceOnUse" stroke-dasharray="0,0"><path id="SvgjsPath1210" d="M0 0L14 5L0 10L0 0 " fill="#323232" stroke="#323232" stroke-width="1"></path></marker><marker id="SvgjsMarker1265" markerWidth="14" markerHeight="10" refX="10" refY="5" viewBox="0 0 14 10" orient="auto" markerUnits="userSpaceOnUse" stroke-dasharray="0,0"><path id="SvgjsPath1266" d="M0 0L14 5L0 10L0 0 " fill="#323232" stroke="#323232" stroke-width="1"></path></marker><marker id="SvgjsMarker1273" markerWidth="14" markerHeight="10" refX="10" refY="5" viewBox="0 0 14 10" orient="auto" markerUnits="userSpaceOnUse" stroke-dasharray="0,0"><path id="SvgjsPath1274" d="M0 0L14 5L0 10L0 0 " fill="#323232" stroke="#323232" stroke-width="1"></path></marker><marker id="SvgjsMarker1281" markerWidth="14" markerHeight="10" refX="10" refY="5" viewBox="0 0 14 10" orient="auto" markerUnits="userSpaceOnUse" stroke-dasharray="0,0"><path id="SvgjsPath1282" d="M0 0L14 5L0 10L0 0 " fill="#323232" stroke="#323232" stroke-width="1"></path></marker><marker id="SvgjsMarker1285" markerWidth="14" markerHeight="10" refX="10" refY="5" viewBox="0 0 14 10" orient="auto" markerUnits="userSpaceOnUse" stroke-dasharray="0,0"><path id="SvgjsPath1286" d="M0 0L14 5L0 10L0 0 " fill="#323232" stroke="#323232" stroke-width="1"></path></marker><marker id="SvgjsMarker1289" markerWidth="14" markerHeight="10" refX="10" refY="5" viewBox="0 0 14 10" orient="auto" markerUnits="userSpaceOnUse" stroke-dasharray="0,0"><path id="SvgjsPath1290" d="M0 0L14 5L0 10L0 0 " fill="#323232" stroke="#323232" stroke-width="1"></path></marker><marker id="SvgjsMarker1293" markerWidth="14" markerHeight="10" refX="10" refY="5" viewBox="0 0 14 10" orient="auto" markerUnits="userSpaceOnUse" stroke-dasharray="0,0"><path id="SvgjsPath1294" d="M0 0L14 5L0 10L0 0 " fill="#323232" stroke="#323232" stroke-width="1"></path></marker><marker id="SvgjsMarker1313" markerWidth="14" markerHeight="10" refX="10" refY="5" viewBox="0 0 14 10" orient="auto" markerUnits="userSpaceOnUse" stroke-dasharray="0,0"><path id="SvgjsPath1314" d="M0 0L14 5L0 10L0 0 " fill="#323232" stroke="#323232" stroke-width="1"></path></marker><marker id="SvgjsMarker1321" markerWidth="14" markerHeight="10" refX="10" refY="5" viewBox="0 0 14 10" orient="auto" markerUnits="userSpaceOnUse" stroke-dasharray="0,0"><path id="SvgjsPath1322" d="M0 0L14 5L0 10L0 0 " fill="#323232" stroke="#323232" stroke-width="1"></path></marker><marker id="SvgjsMarker1335" markerWidth="14" markerHeight="10" refX="10" refY="5" viewBox="0 0 14 10" orient="auto" markerUnits="userSpaceOnUse" stroke-dasharray="0,0"><path id="SvgjsPath1336" d="M0 0L14 5L0 10L0 0 " fill="#323232" stroke="#323232" stroke-width="1"></path></marker><pattern patternUnits="userSpaceOnUse" id="pattern_mark" width="300" height="300"><text x="-50" y="150" fill="rgba(229,229,229,0.8)" font-size="18" transform="rotate(-45, 150, 150)"></text></pattern></defs><g id="svgbackgroundid"><defs></defs><rect x="0" y="0" width="1178.5" height="827.5" fill="#ffffff"></rect></g><g id="SvgjsG1183" transform="translate(25,408.5)"><path id="SvgjsPath1184" d="M0 0L824 0L824 121L0 121Z " stroke-dasharray="10,6" stroke="rgba(50,50,50,1)" stroke-width="2" fill-opacity="1" fill="#ffffff"></path><g id="SvgjsG1185"><text id="SvgjsText1186" font-family="微软雅黑" text-anchor="middle" font-size="13px" width="804px" fill="#323232" font-weight="400" align="middle" lineheight="125%" font-style="" opacity="1" y="49.875" transform="rotate(0)"></text></g></g><g id="SvgjsG1187" transform="translate(198.5,25)"><path id="SvgjsPath1188" d="M0 4Q0 0 4 0L153 0Q157 0 157 4L157 57Q157 61 153 61L4 61Q0 61 0 57Z " stroke="rgba(50,50,50,1)" stroke-width="2" fill-opacity="1" fill="#ffffff"></path><g id="SvgjsG1189"><text id="SvgjsText1190" font-family="微软雅黑" text-anchor="middle" font-size="13px" width="137px" fill="#323232" font-weight="400" align="middle" lineheight="125%" font-style="" opacity="1" y="19.875" transform="rotate(0)"><tspan id="SvgjsTspan1191" dy="16" x="78.5"><tspan id="SvgjsTspan1192" style="text-decoration:;">渠道服务</tspan></tspan></text></g></g><g id="SvgjsG1193" transform="translate(208.5,35)"><path id="SvgjsPath1194" d="M0 4Q0 0 4 0L153 0Q157 0 157 4L157 57Q157 61 153 61L4 61Q0 61 0 57Z " stroke="rgba(50,50,50,1)" stroke-width="2" fill-opacity="1" fill="#ffffff"></path><g id="SvgjsG1195"><text id="SvgjsText1196" font-family="微软雅黑" text-anchor="middle" font-size="13px" width="137px" fill="#323232" font-weight="400" align="middle" lineheight="125%" font-style="" opacity="1" y="19.875" transform="rotate(0)"><tspan id="SvgjsTspan1197" dy="16" x="78.5"><tspan id="SvgjsTspan1198" style="text-decoration:;">渠道接入服务</tspan></tspan></text></g></g><g id="SvgjsG1199" transform="translate(61.5,436)"><path id="SvgjsPath1200" d="M0 4Q0 0 4 0L203 0Q207 0 207 4L207 68Q207 72 203 72L4 72Q0 72 0 68Z " stroke="rgba(50,50,50,1)" stroke-width="2" fill-opacity="1" fill="#ffffff"></path><g id="SvgjsG1201"><text id="SvgjsText1202" font-family="微软雅黑" text-anchor="middle" font-size="13px" width="187px" fill="#323232" font-weight="400" align="middle" lineheight="125%" font-style="" opacity="1" y="17.375" transform="rotate(0)"><tspan id="SvgjsTspan1203" dy="16" x="103.5"><tspan id="SvgjsTspan1204" style="text-decoration:;">用户查询服务</tspan></tspan><tspan id="SvgjsTspan1205" dy="16" x="103.5"><tspan id="SvgjsTspan1206" style="text-decoration:;">分库0</tspan></tspan></text></g></g><g id="SvgjsG1207"><path id="SvgjsPath1208" d="M165 509L165 619.25L165 619.25L165 726.9 " stroke="#323232" stroke-width="2" fill="none" marker-end="url(#SvgjsMarker1209)"></path><rect id="SvgjsRect1211" width="26" height="16" x="152" y="609.9499999999999" fill="#ffffff"></rect><text id="SvgjsText1212" font-family="微软雅黑" text-anchor="middle" font-size="13px" width="26px" fill="#323232" font-weight="400" align="top" lineheight="16px" font-style="" opacity="1" y="607.3249999999999" transform="rotate(0)"><tspan id="SvgjsTspan1213" dy="16" x="165"><tspan id="SvgjsTspan1214" style="text-decoration:;">查询</tspan></tspan></text></g><g id="SvgjsG1215" transform="translate(333.5,254)"><path id="SvgjsPath1216" d="M0 4Q0 0 4 0L203 0Q207 0 207 4L207 68Q207 72 203 72L4 72Q0 72 0 68Z " stroke="rgba(50,50,50,1)" stroke-width="2" fill-opacity="1" fill="#ffffff"></path><g id="SvgjsG1217"><text id="SvgjsText1218" font-family="微软雅黑" text-anchor="middle" font-size="13px" width="187px" fill="#323232" font-weight="400" align="middle" lineheight="125%" font-style="" opacity="1" y="25.375" transform="rotate(0)"><tspan id="SvgjsTspan1219" dy="16" x="103.5"><tspan id="SvgjsTspan1220" style="text-decoration:;">用户查询服务网关集群</tspan></tspan></text></g></g><g id="SvgjsG1221" transform="translate(333.5,436)"><path id="SvgjsPath1222" d="M0 4Q0 0 4 0L203 0Q207 0 207 4L207 68Q207 72 203 72L4 72Q0 72 0 68Z " stroke="rgba(50,50,50,1)" stroke-width="2" fill-opacity="1" fill="#ffffff"></path><g id="SvgjsG1223"><text id="SvgjsText1224" font-family="微软雅黑" text-anchor="middle" font-size="13px" width="187px" fill="#323232" font-weight="400" align="middle" lineheight="125%" font-style="" opacity="1" y="17.375" transform="rotate(0)"><tspan id="SvgjsTspan1225" dy="16" x="103.5"><tspan id="SvgjsTspan1226" style="text-decoration:;">用户查询服务</tspan></tspan><tspan id="SvgjsTspan1227" dy="16" x="103.5"><tspan id="SvgjsTspan1228" style="text-decoration:;">分库1</tspan></tspan></text></g></g><g id="SvgjsG1229" transform="translate(605.5,436)"><path id="SvgjsPath1230" d="M0 4Q0 0 4 0L203 0Q207 0 207 4L207 68Q207 72 203 72L4 72Q0 72 0 68Z " stroke="rgba(50,50,50,1)" stroke-width="2" fill-opacity="1" fill="#ffffff"></path><g id="SvgjsG1231"><text id="SvgjsText1232" font-family="微软雅黑" text-anchor="middle" font-size="13px" width="187px" fill="#323232" font-weight="400" align="middle" lineheight="125%" font-style="" opacity="1" y="17.375" transform="rotate(0)"><tspan id="SvgjsTspan1233" dy="16" x="103.5"><tspan id="SvgjsTspan1234" style="text-decoration:;">用户查询服务</tspan></tspan><tspan id="SvgjsTspan1235" dy="16" x="103.5"><tspan id="SvgjsTspan1236" style="text-decoration:;">分库2</tspan></tspan></text></g></g><g id="SvgjsG1237" transform="translate(1006.5,255)"><path id="SvgjsPath1238" d="M0 0L147 0L147 70L0 70Z " stroke="rgba(50,50,50,1)" stroke-width="2" fill-opacity="1" fill="#ffffff"></path><g id="SvgjsG1239"><text id="SvgjsText1240" font-family="微软雅黑" text-anchor="middle" font-size="13px" width="127px" fill="#323232" font-weight="400" align="middle" lineheight="125%" font-style="" opacity="1" y="16.375" transform="rotate(0)"><tspan id="SvgjsTspan1241" dy="16" x="73.5"><tspan id="SvgjsTspan1242" style="text-decoration:;">手机号-用户编号映射</tspan></tspan><tspan id="SvgjsTspan1243" dy="16" x="73.5"><tspan id="SvgjsTspan1244" style="text-decoration:;">缓存集群</tspan></tspan></text></g></g><g id="SvgjsG1245" transform="translate(61.5,730.5)"><path id="SvgjsPath1246" d="M0 0L207 0L207 72L0 72Z " stroke="rgba(50,50,50,1)" stroke-width="2" fill-opacity="1" fill="#ffffff"></path><g id="SvgjsG1247"><text id="SvgjsText1248" font-family="微软雅黑" text-anchor="middle" font-size="13px" width="187px" fill="#323232" font-weight="400" align="middle" lineheight="125%" font-style="" opacity="1" y="25.375" transform="rotate(0)"><tspan id="SvgjsTspan1249" dy="16" x="103.5"><tspan id="SvgjsTspan1250" style="text-decoration:;">分库0</tspan></tspan></text></g></g><g id="SvgjsG1251" transform="translate(333.5,730.5)"><path id="SvgjsPath1252" d="M0 0L207 0L207 72L0 72Z " stroke="rgba(50,50,50,1)" stroke-width="2" fill-opacity="1" fill="#ffffff"></path><g id="SvgjsG1253"><text id="SvgjsText1254" font-family="微软雅黑" text-anchor="middle" font-size="13px" width="187px" fill="#323232" font-weight="400" align="middle" lineheight="125%" font-style="" opacity="1" y="25.375" transform="rotate(0)"><tspan id="SvgjsTspan1255" dy="16" x="103.5"><tspan id="SvgjsTspan1256" style="text-decoration:;">分库1</tspan></tspan></text></g></g><g id="SvgjsG1257" transform="translate(605.5,730.5)"><path id="SvgjsPath1258" d="M0 0L207 0L207 72L0 72Z " stroke="rgba(50,50,50,1)" stroke-width="2" fill-opacity="1" fill="#ffffff"></path><g id="SvgjsG1259"><text id="SvgjsText1260" font-family="微软雅黑" text-anchor="middle" font-size="13px" width="187px" fill="#323232" font-weight="400" align="middle" lineheight="125%" font-style="" opacity="1" y="25.375" transform="rotate(0)"><tspan id="SvgjsTspan1261" dy="16" x="103.5"><tspan id="SvgjsTspan1262" style="text-decoration:;">分库2</tspan></tspan></text></g></g><g id="SvgjsG1263"><path id="SvgjsPath1264" d="M437 509L437 726.9 " stroke="#323232" stroke-width="2" fill="none" marker-end="url(#SvgjsMarker1265)"></path><rect id="SvgjsRect1267" width="26" height="16" x="424" y="609.95" fill="#ffffff"></rect><text id="SvgjsText1268" font-family="微软雅黑" text-anchor="middle" font-size="13px" width="26px" fill="#323232" font-weight="400" align="top" lineheight="16px" font-style="" opacity="1" y="607.325" transform="rotate(0)"><tspan id="SvgjsTspan1269" dy="16" x="437"><tspan id="SvgjsTspan1270" style="text-decoration:;">查询</tspan></tspan></text></g><g id="SvgjsG1271"><path id="SvgjsPath1272" d="M709 509L709 726.9 " stroke="#323232" stroke-width="2" fill="none" marker-end="url(#SvgjsMarker1273)"></path><rect id="SvgjsRect1275" width="26" height="16" x="696" y="609.95" fill="#ffffff"></rect><text id="SvgjsText1276" font-family="微软雅黑" text-anchor="middle" font-size="13px" width="26px" fill="#323232" font-weight="400" align="top" lineheight="16px" font-style="" opacity="1" y="607.325" transform="rotate(0)"><tspan id="SvgjsTspan1277" dy="16" x="709"><tspan id="SvgjsTspan1278" style="text-decoration:;">查询</tspan></tspan></text></g><g id="SvgjsG1279"><path id="SvgjsPath1280" d="M436.0729403378864 326.37491383394297L168.3374147836089 434.6503101978052 " stroke="#323232" stroke-width="2" fill="none" marker-end="url(#SvgjsMarker1281)"></path></g><g id="SvgjsG1283"><path id="SvgjsPath1284" d="M437 327L437 432.4 " stroke="#323232" stroke-width="2" fill="none" marker-end="url(#SvgjsMarker1285)"></path></g><g id="SvgjsG1287"><path id="SvgjsPath1288" d="M437.9270596621136 326.37491383394297L705.6625852163911 434.6503101978052 " stroke="#323232" stroke-width="2" fill="none" marker-end="url(#SvgjsMarker1289)"></path></g><g id="SvgjsG1291"><path id="SvgjsPath1292" d="M541.5 290L1002.9000000000001 290 " stroke="#323232" stroke-width="2" fill="none" marker-end="url(#SvgjsMarker1293)"></path><rect id="SvgjsRect1295" width="78" height="16" x="733.2" y="282" fill="#ffffff"></rect><text id="SvgjsText1296" font-family="微软雅黑" text-anchor="middle" font-size="13px" width="78px" fill="#323232" font-weight="400" align="top" lineheight="16px" font-style="" opacity="1" y="279.375" transform="rotate(0)"><tspan id="SvgjsTspan1297" dy="16" x="772.2"><tspan id="SvgjsTspan1298" style="text-decoration:;">获取用户编号</tspan></tspan></text></g><g id="SvgjsG1299" transform="translate(501.5,30)"><path id="SvgjsPath1300" d="M0 4Q0 0 4 0L153 0Q157 0 157 4L157 57Q157 61 153 61L4 61Q0 61 0 57Z " stroke="rgba(50,50,50,1)" stroke-width="2" fill-opacity="1" fill="#ffffff"></path><g id="SvgjsG1301"><text id="SvgjsText1302" font-family="微软雅黑" text-anchor="middle" font-size="13px" width="137px" fill="#323232" font-weight="400" align="middle" lineheight="125%" font-style="" opacity="1" y="19.875" transform="rotate(0)"><tspan id="SvgjsTspan1303" dy="16" x="78.5"><tspan id="SvgjsTspan1304" style="text-decoration:;">渠道服务</tspan></tspan></text></g></g><g id="SvgjsG1305" transform="translate(511.5,40)"><path id="SvgjsPath1306" d="M0 4Q0 0 4 0L153 0Q157 0 157 4L157 57Q157 61 153 61L4 61Q0 61 0 57Z " stroke="rgba(50,50,50,1)" stroke-width="2" fill-opacity="1" fill="#ffffff"></path><g id="SvgjsG1307"><text id="SvgjsText1308" font-family="微软雅黑" text-anchor="middle" font-size="13px" width="137px" fill="#323232" font-weight="400" align="middle" lineheight="125%" font-style="" opacity="1" y="19.875" transform="rotate(0)"><tspan id="SvgjsTspan1309" dy="16" x="78.5"><tspan id="SvgjsTspan1310" style="text-decoration:;">其他中心服务</tspan></tspan></text></g></g><g id="SvgjsG1311"><path id="SvgjsPath1312" d="M287.68850815942073 96.72522859458996L434.52137062608494 251.38917705947614 " stroke="#323232" stroke-width="2" fill="none" marker-end="url(#SvgjsMarker1313)"></path><rect id="SvgjsRect1315" width="26" height="16" x="348.10493939275284" y="166.05720282703305" fill="#ffffff"></rect><text id="SvgjsText1316" font-family="微软雅黑" text-anchor="middle" font-size="13px" width="26px" fill="#323232" font-weight="400" align="top" lineheight="16px" font-style="" opacity="1" y="163.43220282703305" transform="rotate(0)"><tspan id="SvgjsTspan1317" dy="16" x="361.10493939275284"><tspan id="SvgjsTspan1318" style="text-decoration:;">查询</tspan></tspan></text></g><g id="SvgjsG1319"><path id="SvgjsPath1320" d="M589.2928932188136 101.70710678118655L439.54558441227164 251.45441558772842 " stroke="#323232" stroke-width="2" fill="none" marker-end="url(#SvgjsMarker1321)"></path><rect id="SvgjsRect1323" width="26" height="16" x="501.4192388155426" y="168.5807611844575" fill="#ffffff"></rect><text id="SvgjsText1324" font-family="微软雅黑" text-anchor="middle" font-size="13px" width="26px" fill="#323232" font-weight="400" align="top" lineheight="16px" font-style="" opacity="1" y="165.9557611844575" transform="rotate(0)"><tspan id="SvgjsTspan1325" dy="16" x="514.4192388155426"><tspan id="SvgjsTspan1326" style="text-decoration:;">查询</tspan></tspan></text></g><g id="SvgjsG1327" transform="translate(1006.5,434)"><path id="SvgjsPath1328" d="M0 0L147 0L147 70L0 70Z " stroke="rgba(50,50,50,1)" stroke-width="2" fill-opacity="1" fill="#ffffff"></path><g id="SvgjsG1329"><text id="SvgjsText1330" font-family="微软雅黑" text-anchor="middle" font-size="13px" width="127px" fill="#323232" font-weight="400" align="middle" lineheight="125%" font-style="" opacity="1" y="24.375" transform="rotate(0)"><tspan id="SvgjsTspan1331" dy="16" x="73.5"><tspan id="SvgjsTspan1332" style="text-decoration:;">用户信息缓存集群</tspan></tspan></text></g></g><g id="SvgjsG1333"><path id="SvgjsPath1334" d="M850 469L1002.9000000000001 469 " stroke="#323232" stroke-width="2" fill="none" marker-end="url(#SvgjsMarker1335)"></path><rect id="SvgjsRect1337" width="32" height="16" x="910.45" y="461" fill="#ffffff"></rect><text id="SvgjsText1338" font-family="微软雅黑" text-anchor="middle" font-size="13px" width="32px" fill="#323232" font-weight="400" align="top" lineheight="16px" font-style="" opacity="1" y="458.375" transform="rotate(0)"><tspan id="SvgjsTspan1339" dy="16" x="926.45"><tspan id="SvgjsTspan1340" style="text-decoration:;">读/写</tspan></tspan></text></g></svg>