<?xml version="1.0" standalone="no"?><?xml-stylesheet type="text/css" href="https://wps.processon.com/themes/default/wps/mind/icons/icons.css" ?><!DOCTYPE svg PUBLIC "-//W3C//DTD SVG 1.1//EN" "http://www.w3.org/Graphics/SVG/1.1/DTD/svg11.dtd"><svg id="SvgjsSvg1191" xmlns="http://www.w3.org/2000/svg" version="1.1" xmlns:xlink="http://www.w3.org/1999/xlink" xmlns:svgjs="http://svgjs.com/svgjs" width="962.265625" height="796.9375"><rect fill="url(#pattern_mark)" transform="translate(-428.03125,-139)" width="1850" height="1620" id="rect_mark" pointer-events="none"></rect><defs id="SvgjsDefs1192"><pattern patternUnits="userSpaceOnUse" id="pattern_mark" width="300" height="300"><text x="-50" y="150" fill="rgba(229,229,229,0.8)" font-size="18" transform="rotate(-45, 150, 150)"></text></pattern></defs><g id="svgbackgroundid"><defs></defs><rect x="0" y="0" width="962.265625" height="796.9375" fill="#ffffff"></rect></g><g id="SvgjsG1193" transform="translate(25.004908497536235,25)"><path id="SvgjsPath1194" d="M0 4Q0 0 4 0L907.9638415024638 0Q911.9638415024638 0 911.9638415024638 4L911.9638415024638 51Q911.9638415024638 55 907.9638415024638 55L4 55Q0 55 0 51Z " stroke="rgba(50,50,50,1)" stroke-width="2" fill-opacity="1" fill="#ccff99"></path><g id="SvgjsG1195"><text id="SvgjsText1196" font-family="宋体" text-anchor="middle" font-size="28px" width="892px" fill="#323232" font-weight="700" align="middle" lineheight="125%" font-style="" opacity="1" y="3.5" transform="rotate(0)"><tspan id="SvgjsTspan1197" dy="35" x="456"><tspan id="SvgjsTspan1198" style="text-decoration:;">用户中心分层设计</tspan></tspan></text></g></g><g id="SvgjsG1199" transform="translate(172.27812810574483,230)"><path id="SvgjsPath1200" d="M0 4Q0 0 4 0L760.6906218942552 0Q764.6906218942552 0 764.6906218942552 4L764.6906218942552 85Q764.6906218942552 89 760.6906218942552 89L4 89Q0 89 0 85Z " stroke="rgba(50,50,50,1)" stroke-width="2" fill-opacity="1" fill="#99ff99"></path><g id="SvgjsG1201"><text id="SvgjsText1202" font-family="微软雅黑" text-anchor="middle" font-size="13px" width="745px" fill="#323232" font-weight="400" align="middle" lineheight="125%" font-style="" opacity="1" y="33.875" transform="rotate(0)"><tspan id="SvgjsTspan1203" dy="16" x="382.5"><tspan id="SvgjsTspan1204" style="text-decoration:;"> </tspan></tspan></text></g></g><g id="SvgjsG1205" transform="translate(172.27812810574483,688.9511538587916)"><path id="SvgjsPath1206" d="M0 4Q0 0 4 0L760.6906218942552 0Q764.6906218942552 0 764.6906218942552 4L764.6906218942552 79Q764.6906218942552 83 760.6906218942552 83L4 83Q0 83 0 79Z " stroke="rgba(50,50,50,1)" stroke-width="2" fill-opacity="1" fill="#99ccff"></path><g id="SvgjsG1207"><text id="SvgjsText1208" font-family="微软雅黑" text-anchor="middle" font-size="13px" width="745px" fill="#323232" font-weight="400" align="middle" lineheight="125%" font-style="" opacity="1" y="30.875" transform="rotate(0)"></text></g></g><g id="SvgjsG1209" transform="translate(228.6234390528724,709.4511538587916)"><path id="SvgjsPath1210" d="M0 4Q0 0 4 0L151 0Q155 0 155 4L155 45Q155 49 151 49L4 49Q0 49 0 45Z " stroke="rgba(50,50,50,1)" stroke-width="2" fill-opacity="1" fill="#ffffff"></path><g id="SvgjsG1211"><text id="SvgjsText1212" font-family="微软雅黑" text-anchor="middle" font-size="13px" width="135px" fill="#323232" font-weight="400" align="middle" lineheight="125%" font-style="" opacity="1" y="13.875" transform="rotate(0)"><tspan id="SvgjsTspan1213" dy="16" x="77.5"><tspan id="SvgjsTspan1214" style="text-decoration:;">数据库</tspan></tspan></text></g></g><g id="SvgjsG1215" transform="translate(170.24356224034727,95)"><path id="SvgjsPath1216" d="M0 4Q0 0 4 0L762.7251877596527 0Q766.7251877596527 0 766.7251877596527 4L766.7251877596527 78.63417608259738Q766.7251877596527 82.63417608259738 762.7251877596527 82.63417608259738L4 82.63417608259738Q0 82.63417608259738 0 78.63417608259738Z " stroke="rgba(50,50,50,1)" stroke-width="2" fill-opacity="1" fill="#ccffcc"></path><g id="SvgjsG1217"><text id="SvgjsText1218" font-family="微软雅黑" text-anchor="middle" font-size="13px" width="747px" fill="#323232" font-weight="400" align="middle" lineheight="125%" font-style="" opacity="1" y="30.69208804129869" transform="rotate(0)"></text></g></g><g id="SvgjsG1219" transform="translate(25.004908497536235,95)"><path id="SvgjsPath1220" d="M0 4Q0 0 4 0L125.61119538356098 0Q129.61119538356098 0 129.61119538356098 4L129.61119538356098 78.63417608259738Q129.61119538356098 82.63417608259738 125.61119538356098 82.63417608259738L4 82.63417608259738Q0 82.63417608259738 0 78.63417608259738Z " stroke="rgba(50,50,50,1)" stroke-width="2" fill-opacity="1" fill="#ccffcc"></path><g id="SvgjsG1221"><text id="SvgjsText1222" font-family="微软雅黑" text-anchor="middle" font-size="13px" width="110px" fill="#323232" font-weight="700" align="middle" lineheight="125%" font-style="" opacity="1" y="30.69208804129869" transform="rotate(0)"><tspan id="SvgjsTspan1223" dy="16" x="65"><tspan id="SvgjsTspan1224" style="text-decoration:;">Controller层</tspan></tspan></text></g></g><g id="SvgjsG1225" transform="translate(25.004908497536235,230)"><path id="SvgjsPath1226" d="M0 4Q0 0 4 0L125.61119538356093 0Q129.61119538356093 0 129.61119538356093 4L129.61119538356093 90Q129.61119538356093 94 125.61119538356093 94L4 94Q0 94 0 90Z " stroke="rgba(50,50,50,1)" stroke-width="2" fill-opacity="1" fill="#99ff99"></path><g id="SvgjsG1227"><text id="SvgjsText1228" font-family="微软雅黑" text-anchor="middle" font-size="13px" width="110px" fill="#323232" font-weight="700" align="middle" lineheight="125%" font-style="" opacity="1" y="36.375" transform="rotate(0)"><tspan id="SvgjsTspan1229" dy="16" x="65"><tspan id="SvgjsTspan1230" style="text-decoration:;">应用服务层</tspan></tspan></text></g></g><g id="SvgjsG1231" transform="translate(25.004908497536235,376.3658239174026)"><path id="SvgjsPath1232" d="M0 4Q0 0 4 0L125.61119538356093 0Q129.61119538356093 0 129.61119538356093 4L129.61119538356093 117.9024731152399Q129.61119538356093 121.9024731152399 125.61119538356093 121.9024731152399L4 121.9024731152399Q0 121.9024731152399 0 117.9024731152399Z " stroke="rgba(50,50,50,1)" stroke-width="2" fill-opacity="1" fill="#ffcc99"></path><g id="SvgjsG1233"><text id="SvgjsText1234" font-family="微软雅黑" text-anchor="middle" font-size="14px" width="110px" fill="#323232" font-weight="700" align="middle" lineheight="125%" font-style="" opacity="1" y="49.70123655761995" transform="rotate(0)"><tspan id="SvgjsTspan1235" dy="17" x="65"><tspan id="SvgjsTspan1236" style="text-decoration:;">领域层</tspan></tspan></text></g></g><g id="SvgjsG1237" transform="translate(25.004908497536235,688.9511538587916)"><path id="SvgjsPath1238" d="M0 4Q0 0 4 0L125.61119538356093 0Q129.61119538356093 0 129.61119538356093 4L129.61119538356093 79Q129.61119538356093 83 125.61119538356093 83L4 83Q0 83 0 79Z " stroke="rgba(50,50,50,1)" stroke-width="2" fill-opacity="1" fill="#99ccff"></path><g id="SvgjsG1239"><text id="SvgjsText1240" font-family="微软雅黑" text-anchor="middle" font-size="13px" width="110px" fill="#323232" font-weight="700" align="middle" lineheight="125%" font-style="" opacity="1" y="30.875" transform="rotate(0)"><tspan id="SvgjsTspan1241" dy="16" x="65"><tspan id="SvgjsTspan1242" style="text-decoration:;">基础设施层</tspan></tspan></text></g></g><g id="SvgjsG1243" transform="translate(172.27812810574483,376.3658239174026)"><path id="SvgjsPath1244" d="M0 4Q0 0 4 0L573.6906218942552 0Q577.6906218942552 0 577.6906218942552 4L577.6906218942552 117.9024731152399Q577.6906218942552 121.9024731152399 573.6906218942552 121.9024731152399L4 121.9024731152399Q0 121.9024731152399 0 117.9024731152399Z " stroke="rgba(50,50,50,1)" stroke-width="2" fill-opacity="1" fill="#ffcc99"></path><g id="SvgjsG1245"><text id="SvgjsText1246" font-family="微软雅黑" text-anchor="middle" font-size="14px" width="558px" fill="#323232" font-weight="700" align="middle" lineheight="125%" font-style="" opacity="1" y="49.70123655761995" transform="rotate(0)"><tspan id="SvgjsTspan1247" dy="17" x="289"><tspan id="SvgjsTspan1248" style="text-decoration:;"> </tspan></tspan></text></g></g><g id="SvgjsG1249" transform="translate(190.7037962962463,412.8170604750226)"><path id="SvgjsPath1250" d="M0 4Q0 0 4 0L151 0Q155 0 155 4L155 45Q155 49 151 49L4 49Q0 49 0 45Z " stroke="rgba(50,50,50,1)" stroke-width="2" fill-opacity="1" fill="#ffffff"></path><g id="SvgjsG1251"><text id="SvgjsText1252" font-family="微软雅黑" text-anchor="middle" font-size="13px" width="135px" fill="#323232" font-weight="400" align="middle" lineheight="125%" font-style="" opacity="1" y="13.875" transform="rotate(0)"><tspan id="SvgjsTspan1253" dy="16" x="77.5"><tspan id="SvgjsTspan1254" style="text-decoration:;">用户模型</tspan></tspan></text></g></g><g id="SvgjsG1255" transform="translate(383.6234390528724,412.8170604750226)"><path id="SvgjsPath1256" d="M0 4Q0 0 4 0L151 0Q155 0 155 4L155 45Q155 49 151 49L4 49Q0 49 0 45Z " stroke="rgba(50,50,50,1)" stroke-width="2" fill-opacity="1" fill="#ffffff"></path><g id="SvgjsG1257"><text id="SvgjsText1258" font-family="微软雅黑" text-anchor="middle" font-size="13px" width="135px" fill="#323232" font-weight="400" align="middle" lineheight="125%" font-style="" opacity="1" y="13.875" transform="rotate(0)"><tspan id="SvgjsTspan1259" dy="16" x="77.5"><tspan id="SvgjsTspan1260" style="text-decoration:;">用户事件</tspan></tspan></text></g></g><g id="SvgjsG1261" transform="translate(190.7037962962463,252.5)"><path id="SvgjsPath1262" d="M0 4Q0 0 4 0L151 0Q155 0 155 4L155 45Q155 49 151 49L4 49Q0 49 0 45Z " stroke="rgba(50,50,50,1)" stroke-width="2" fill-opacity="1" fill="#ffffff"></path><g id="SvgjsG1263"><text id="SvgjsText1264" font-family="微软雅黑" text-anchor="middle" font-size="13px" width="135px" fill="#323232" font-weight="400" align="middle" lineheight="125%" font-style="" opacity="1" y="13.875" transform="rotate(0)"><tspan id="SvgjsTspan1265" dy="16" x="77.5"><tspan id="SvgjsTspan1266" style="text-decoration:;">用例编排</tspan></tspan></text></g></g><g id="SvgjsG1267" transform="translate(383.6234390528724,252.5)"><path id="SvgjsPath1268" d="M0 4Q0 0 4 0L151 0Q155 0 155 4L155 45Q155 49 151 49L4 49Q0 49 0 45Z " stroke="rgba(50,50,50,1)" stroke-width="2" fill-opacity="1" fill="#ffffff"></path><g id="SvgjsG1269"><text id="SvgjsText1270" font-family="微软雅黑" text-anchor="middle" font-size="13px" width="135px" fill="#323232" font-weight="400" align="middle" lineheight="125%" font-style="" opacity="1" y="13.875" transform="rotate(0)"><tspan id="SvgjsTspan1271" dy="16" x="77.5"><tspan id="SvgjsTspan1272" style="text-decoration:;">事务管理</tspan></tspan></text></g></g><g id="SvgjsG1273" transform="translate(574.0676916036896,252.5)"><path id="SvgjsPath1274" d="M0 4Q0 0 4 0L151 0Q155 0 155 4L155 45Q155 49 151 49L4 49Q0 49 0 45Z " stroke="rgba(50,50,50,1)" stroke-width="2" fill-opacity="1" fill="#ffffff"></path><g id="SvgjsG1275"><text id="SvgjsText1276" font-family="微软雅黑" text-anchor="middle" font-size="13px" width="135px" fill="#323232" font-weight="400" align="middle" lineheight="125%" font-style="" opacity="1" y="13.875" transform="rotate(0)"><tspan id="SvgjsTspan1277" dy="16" x="77.5"><tspan id="SvgjsTspan1278" style="text-decoration:;">事件发布</tspan></tspan></text></g></g><g id="SvgjsG1279" transform="translate(186.34840116849068,111.81708804129869)"><path id="SvgjsPath1280" d="M0 4Q0 0 4 0L151 0Q155 0 155 4L155 45Q155 49 151 49L4 49Q0 49 0 45Z " stroke="rgba(50,50,50,1)" stroke-width="2" fill-opacity="1" fill="#ffffff"></path><g id="SvgjsG1281"><text id="SvgjsText1282" font-family="微软雅黑" text-anchor="middle" font-size="13px" width="135px" fill="#323232" font-weight="400" align="middle" lineheight="125%" font-style="" opacity="1" y="13.875" transform="rotate(0)"><tspan id="SvgjsTspan1283" dy="16" x="77.5"><tspan id="SvgjsTspan1284" style="text-decoration:;">注册接口</tspan></tspan></text></g></g><g id="SvgjsG1285" transform="translate(379.2680439251167,111.81708804129869)"><path id="SvgjsPath1286" d="M0 4Q0 0 4 0L151 0Q155 0 155 4L155 45Q155 49 151 49L4 49Q0 49 0 45Z " stroke="rgba(50,50,50,1)" stroke-width="2" fill-opacity="1" fill="#ffffff"></path><g id="SvgjsG1287"><text id="SvgjsText1288" font-family="微软雅黑" text-anchor="middle" font-size="13px" width="135px" fill="#323232" font-weight="400" align="middle" lineheight="125%" font-style="" opacity="1" y="13.875" transform="rotate(0)"><tspan id="SvgjsTspan1289" dy="16" x="77.5"><tspan id="SvgjsTspan1290" style="text-decoration:;">登录接口</tspan></tspan></text></g></g><g id="SvgjsG1291" transform="translate(574.0676916036896,111.81708804129869)"><path id="SvgjsPath1292" d="M0 4Q0 0 4 0L151 0Q155 0 155 4L155 45Q155 49 151 49L4 49Q0 49 0 45Z " stroke="rgba(50,50,50,1)" stroke-width="2" fill-opacity="1" fill="#ffffff"></path><g id="SvgjsG1293"><text id="SvgjsText1294" font-family="微软雅黑" text-anchor="middle" font-size="13px" width="135px" fill="#323232" font-weight="400" align="middle" lineheight="125%" font-style="" opacity="1" y="13.875" transform="rotate(0)"><tspan id="SvgjsTspan1295" dy="16" x="77.5"><tspan id="SvgjsTspan1296" style="text-decoration:;">修改接口</tspan></tspan></text></g></g><g id="SvgjsG1297" transform="translate(574.0676916036896,412.8170604750226)"><path id="SvgjsPath1298" d="M0 4Q0 0 4 0L151 0Q155 0 155 4L155 45Q155 49 151 49L4 49Q0 49 0 45Z " stroke="rgba(50,50,50,1)" stroke-width="2" fill-opacity="1" fill="#ffffff"></path><g id="SvgjsG1299"><text id="SvgjsText1300" font-family="微软雅黑" text-anchor="middle" font-size="13px" width="135px" fill="#323232" font-weight="400" align="middle" lineheight="125%" font-style="" opacity="1" y="13.875" transform="rotate(0)"><tspan id="SvgjsTspan1301" dy="16" x="77.5"><tspan id="SvgjsTspan1302" style="text-decoration:;">业务校验</tspan></tspan></text></g></g><g id="SvgjsG1303" transform="translate(768.8673392822625,111.81708804129869)"><path id="SvgjsPath1304" d="M0 4Q0 0 4 0L151 0Q155 0 155 4L155 45Q155 49 151 49L4 49Q0 49 0 45Z " stroke="rgba(50,50,50,1)" stroke-width="2" fill-opacity="1" fill="#ffffff"></path><g id="SvgjsG1305"><text id="SvgjsText1306" font-family="微软雅黑" text-anchor="middle" font-size="13px" width="135px" fill="#323232" font-weight="400" align="middle" lineheight="125%" font-style="" opacity="1" y="13.875" transform="rotate(0)"><tspan id="SvgjsTspan1307" dy="16" x="77.5"><tspan id="SvgjsTspan1308" style="text-decoration:;">查询接口</tspan></tspan></text></g></g><g id="SvgjsG1309" transform="translate(477.1234390528724,709.4511538587916)"><path id="SvgjsPath1310" d="M0 4Q0 0 4 0L151 0Q155 0 155 4L155 45Q155 49 151 49L4 49Q0 49 0 45Z " stroke="rgba(50,50,50,1)" stroke-width="2" fill-opacity="1" fill="#ffffff"></path><g id="SvgjsG1311"><text id="SvgjsText1312" font-family="微软雅黑" text-anchor="middle" font-size="13px" width="135px" fill="#323232" font-weight="400" align="middle" lineheight="125%" font-style="" opacity="1" y="13.875" transform="rotate(0)"><tspan id="SvgjsTspan1313" dy="16" x="77.5"><tspan id="SvgjsTspan1314" style="text-decoration:;">消息队列</tspan></tspan></text></g></g><g id="SvgjsG1315" transform="translate(729.0676916036896,709.4511538587916)"><path id="SvgjsPath1316" d="M0 4Q0 0 4 0L151 0Q155 0 155 4L155 45Q155 49 151 49L4 49Q0 49 0 45Z " stroke="rgba(50,50,50,1)" stroke-width="2" fill-opacity="1" fill="#ffffff"></path><g id="SvgjsG1317"><text id="SvgjsText1318" font-family="微软雅黑" text-anchor="middle" font-size="13px" width="135px" fill="#323232" font-weight="400" align="middle" lineheight="125%" font-style="" opacity="1" y="13.875" transform="rotate(0)"><tspan id="SvgjsTspan1319" dy="16" x="77.5"><tspan id="SvgjsTspan1320" style="text-decoration:;">缓存</tspan></tspan></text></g></g><g id="SvgjsG1321" transform="translate(768.8673392822625,252.5)"><path id="SvgjsPath1322" d="M0 4Q0 0 4 0L151 0Q155 0 155 4L155 45Q155 49 151 49L4 49Q0 49 0 45Z " stroke="rgba(50,50,50,1)" stroke-width="2" fill-opacity="1" fill="#ffffff"></path><g id="SvgjsG1323"><text id="SvgjsText1324" font-family="微软雅黑" text-anchor="middle" font-size="13px" width="135px" fill="#323232" font-weight="400" align="middle" lineheight="125%" font-style="" opacity="1" y="13.875" transform="rotate(0)"><tspan id="SvgjsTspan1325" dy="16" x="77.5"><tspan id="SvgjsTspan1326" style="text-decoration:;">查询管理</tspan></tspan></text></g></g><g id="SvgjsG1327" transform="translate(341.3484011684907,183)"><path id="SvgjsPath1328" d="M12.513482109686578 0L25.406160646939416 0L25.406160646939416 22.55L37.91964275662599 22.55L18.959821378312995 41L0 22.55L12.513482109686578 22.55L12.513482109686578 0Z " stroke="rgba(50,50,50,1)" stroke-width="2" fill-opacity="1" fill="#ffffff"></path><g id="SvgjsG1329"><text id="SvgjsText1330" font-family="微软雅黑" text-anchor="middle" font-size="13px" width="54px" fill="#323232" font-weight="400" align="middle" lineheight="125%" font-style="" opacity="1" y="7.825000000000001" transform="rotate(0)"></text></g></g><g id="SvgjsG1331" transform="translate(729.0676916036896,183)"><path id="SvgjsPath1332" d="M12.513482109686578 0L25.406160646939416 0L25.406160646939416 22.55L37.91964275662599 22.55L18.959821378312995 41L0 22.55L12.513482109686578 22.55L12.513482109686578 0Z " stroke="rgba(50,50,50,1)" stroke-width="2" fill-opacity="1" fill="#ffffff"></path><g id="SvgjsG1333"><text id="SvgjsText1334" font-family="微软雅黑" text-anchor="middle" font-size="13px" width="54px" fill="#323232" font-weight="400" align="middle" lineheight="125%" font-style="" opacity="1" y="7.825000000000001" transform="rotate(0)"></text></g></g><g id="SvgjsG1335" transform="translate(534.6463347418606,183)"><path id="SvgjsPath1336" d="M12.513482109686578 0L25.406160646939416 0L25.406160646939416 22.55L37.91964275662599 22.55L18.959821378312995 41L0 22.55L12.513482109686578 22.55L12.513482109686578 0Z " stroke="rgba(50,50,50,1)" stroke-width="2" fill-opacity="1" fill="#ffffff"></path><g id="SvgjsG1337"><text id="SvgjsText1338" font-family="微软雅黑" text-anchor="middle" font-size="13px" width="54px" fill="#323232" font-weight="400" align="middle" lineheight="125%" font-style="" opacity="1" y="7.825000000000001" transform="rotate(0)"></text></g></g><g id="SvgjsG1339" transform="translate(341.3484011684907,324)"><path id="SvgjsPath1340" d="M12.513482109686578 0L25.406160646939416 0L25.406160646939416 22.55L37.91964275662599 22.55L18.959821378312995 41L0 22.55L12.513482109686578 22.55L12.513482109686578 0Z " stroke="rgba(50,50,50,1)" stroke-width="2" fill-opacity="1" fill="#ffffff"></path><g id="SvgjsG1341"><text id="SvgjsText1342" font-family="微软雅黑" text-anchor="middle" font-size="13px" width="54px" fill="#323232" font-weight="400" align="middle" lineheight="125%" font-style="" opacity="1" y="7.825000000000001" transform="rotate(0)"></text></g></g><g id="SvgjsG1343" transform="translate(536.1480488470636,324)"><path id="SvgjsPath1344" d="M12.513482109686578 0L25.406160646939416 0L25.406160646939416 22.55L37.91964275662599 22.55L18.959821378312995 41L0 22.55L12.513482109686578 22.55L12.513482109686578 0Z " stroke="rgba(50,50,50,1)" stroke-width="2" fill-opacity="1" fill="#ffffff"></path><g id="SvgjsG1345"><text id="SvgjsText1346" font-family="微软雅黑" text-anchor="middle" font-size="13px" width="54px" fill="#323232" font-weight="400" align="middle" lineheight="125%" font-style="" opacity="1" y="7.825000000000001" transform="rotate(0)"></text></g></g><g id="SvgjsG1347" transform="matrix(-1,1.2246467991473532e-16,-1.2246467991473532e-16,-1,878.9687638343316,544)"><path id="SvgjsPath1348" d="M17.01520659169663 0L34.546025504353764 0L34.546025504353764 194.2193839519748L51.56123209605039 194.2193839519748L25.780616048025195 220L0 194.2193839519748L17.01520659169663 194.2193839519748L17.01520659169663 0Z " stroke="rgba(50,50,50,1)" stroke-width="2" fill-opacity="1" fill="#ffffff"></path><g id="SvgjsG1349"><text id="SvgjsText1350" font-family="微软雅黑" text-anchor="middle" font-size="13px" width="73px" fill="#323232" font-weight="400" align="middle" lineheight="125%" font-style="" opacity="1" y="88.375" transform="rotate(0)"></text></g></g><g id="SvgjsG1351" transform="matrix(-1,1.2246467991473532e-16,-1.2246467991473532e-16,-1,379.268031428501,544)"><path id="SvgjsPath1352" d="M12.513482109686578 0L25.406160646939416 0L25.406160646939416 22.55L37.91964275662599 22.55L18.959821378312995 41L0 22.55L12.513482109686578 22.55L12.513482109686578 0Z " stroke="rgba(50,50,50,1)" stroke-width="2" fill-opacity="1" fill="#ffffff"></path><g id="SvgjsG1353"><text id="SvgjsText1354" font-family="微软雅黑" text-anchor="middle" font-size="13px" width="54px" fill="#323232" font-weight="400" align="middle" lineheight="125%" font-style="" opacity="1" y="7.825000000000001" transform="rotate(0)"></text></g></g><g id="SvgjsG1355" transform="matrix(-1,1.2246467991473532e-16,-1.2246467991473532e-16,-1,579.502894709751,544)"><path id="SvgjsPath1356" d="M12.513482109686578 0L25.406160646939416 0L25.406160646939416 22.55L37.91964275662599 22.55L18.959821378312995 41L0 22.55L12.513482109686578 22.55L12.513482109686578 0Z " stroke="rgba(50,50,50,1)" stroke-width="2" fill-opacity="1" fill="#ffffff"></path><g id="SvgjsG1357"><text id="SvgjsText1358" font-family="微软雅黑" text-anchor="middle" font-size="13px" width="54px" fill="#323232" font-weight="400" align="middle" lineheight="125%" font-style="" opacity="1" y="7.825000000000001" transform="rotate(0)"></text></g></g><g id="SvgjsG1359" transform="translate(25.004908497536235,550.6341209500451)"><path id="SvgjsPath1360" d="M0 4Q0 0 4 0L907.9638415024638 0Q911.9638415024638 0 911.9638415024638 4L911.9638415024638 80.04879100865617Q911.9638415024638 84.04879100865617 907.9638415024638 84.04879100865617L4 84.04879100865617Q0 84.04879100865617 0 80.04879100865617Z " stroke="rgba(50,50,50,1)" stroke-width="2" fill-opacity="1" fill="#99ccff"></path><g id="SvgjsG1361"><text id="SvgjsText1362" font-family="微软雅黑" text-anchor="middle" font-size="13px" width="892px" fill="#323232" font-weight="700" align="middle" lineheight="125%" font-style="" opacity="1" y="31.399395504328083" transform="rotate(0)"><tspan id="SvgjsTspan1363" dy="16" x="456"><tspan id="SvgjsTspan1364" style="text-decoration:;">适配层</tspan></tspan></text></g></g><g id="SvgjsG1365" transform="translate(341.3484011684907,641.3170329087465)"><path id="SvgjsPath1366" d="M12.513482109686578 0L25.406160646939416 0L25.406160646939416 22.55L37.91964275662599 22.55L18.959821378312995 41L0 22.55L12.513482109686578 22.55L12.513482109686578 0Z " stroke="rgba(50,50,50,1)" stroke-width="2" fill-opacity="1" fill="#ffffff"></path><g id="SvgjsG1367"><text id="SvgjsText1368" font-family="微软雅黑" text-anchor="middle" font-size="13px" width="54px" fill="#323232" font-weight="400" align="middle" lineheight="125%" font-style="" opacity="1" y="7.825000000000001" transform="rotate(0)"></text></g></g><g id="SvgjsG1369" transform="translate(538.6234390528724,641.3170329087465)"><path id="SvgjsPath1370" d="M12.513482109686578 0L25.406160646939416 0L25.406160646939416 22.55L37.91964275662599 22.55L18.959821378312995 41L0 22.55L12.513482109686578 22.55L12.513482109686578 0Z " stroke="rgba(50,50,50,1)" stroke-width="2" fill-opacity="1" fill="#ffffff"></path><g id="SvgjsG1371"><text id="SvgjsText1372" font-family="微软雅黑" text-anchor="middle" font-size="13px" width="54px" fill="#323232" font-weight="400" align="middle" lineheight="125%" font-style="" opacity="1" y="7.825000000000001" transform="rotate(0)"></text></g></g><g id="SvgjsG1373" transform="translate(735.8984769372541,641.3170329087465)"><path id="SvgjsPath1374" d="M12.513482109686578 0L25.406160646939416 0L25.406160646939416 22.55L37.91964275662599 22.55L18.959821378312995 41L0 22.55L12.513482109686578 22.55L12.513482109686578 0Z " stroke="rgba(50,50,50,1)" stroke-width="2" fill-opacity="1" fill="#ffffff"></path><g id="SvgjsG1375"><text id="SvgjsText1376" font-family="微软雅黑" text-anchor="middle" font-size="13px" width="54px" fill="#323232" font-weight="400" align="middle" lineheight="125%" font-style="" opacity="1" y="7.825000000000001" transform="rotate(0)"></text></g></g></svg>