<?xml version="1.0" standalone="no"?><?xml-stylesheet type="text/css" href="https://wps.processon.com/themes/default/wps/mind/icons/icons.css" ?><!DOCTYPE svg PUBLIC "-//W3C//DTD SVG 1.1//EN" "http://www.w3.org/Graphics/SVG/1.1/DTD/svg11.dtd"><svg id="SvgjsSvg1100" xmlns="http://www.w3.org/2000/svg" version="1.1" xmlns:xlink="http://www.w3.org/1999/xlink" xmlns:svgjs="http://svgjs.com/svgjs" width="1231.1875" height="938.5"><rect fill="url(#pattern_mark)" transform="translate(-1094.3125,-393.5)" width="2357" height="1347" id="rect_mark" pointer-events="none"></rect><defs id="SvgjsDefs1101"><marker id="SvgjsMarker1149" markerWidth="14" markerHeight="10" refX="10" refY="5" viewBox="0 0 14 10" orient="auto" markerUnits="userSpaceOnUse" stroke-dasharray="0,0"><path id="SvgjsPath1150" d="M0 0L14 5L0 10L0 0 " fill="#323232" stroke="#323232" stroke-width="1"></path></marker><marker id="SvgjsMarker1163" markerWidth="14" markerHeight="10" refX="10" refY="5" viewBox="0 0 14 10" orient="auto" markerUnits="userSpaceOnUse" stroke-dasharray="0,0"><path id="SvgjsPath1164" d="M0 0L14 5L0 10L0 0 " fill="#323232" stroke="#323232" stroke-width="1"></path></marker><marker id="SvgjsMarker1171" markerWidth="14" markerHeight="10" refX="10" refY="5" viewBox="0 0 14 10" orient="auto" markerUnits="userSpaceOnUse" stroke-dasharray="0,0"><path id="SvgjsPath1172" d="M0 0L14 5L0 10L0 0 " fill="#323232" stroke="#323232" stroke-width="1"></path></marker><marker id="SvgjsMarker1179" markerWidth="14" markerHeight="10" refX="10" refY="5" viewBox="0 0 14 10" orient="auto" markerUnits="userSpaceOnUse" stroke-dasharray="0,0"><path id="SvgjsPath1180" d="M0 0L14 5L0 10L0 0 " fill="#323232" stroke="#323232" stroke-width="1"></path></marker><marker id="SvgjsMarker1193" markerWidth="14" markerHeight="10" refX="10" refY="5" viewBox="0 0 14 10" orient="auto" markerUnits="userSpaceOnUse" stroke-dasharray="0,0"><path id="SvgjsPath1194" d="M0 0L14 5L0 10L0 0 " fill="#323232" stroke="#323232" stroke-width="1"></path></marker><pattern patternUnits="userSpaceOnUse" id="pattern_mark" width="300" height="300"><text x="-50" y="150" fill="rgba(229,229,229,0.8)" font-size="18" transform="rotate(-45, 150, 150)"></text></pattern></defs><g id="svgbackgroundid"><defs></defs><rect x="0" y="0" width="1231.1875" height="938.5" fill="#ffffff"></rect></g><g id="SvgjsG1102" transform="translate(1077.187499999999,692.5000000000002)"><path id="SvgjsPath1103" d="M0 4Q0 0 4 0L125 0Q129 0 129 4L129 56Q129 60 125 60L4 60Q0 60 0 56Z " stroke="rgba(50,50,50,1)" stroke-width="2" fill-opacity="1" fill="#ffffff"></path><g id="SvgjsG1104"><text id="SvgjsText1105" font-family="微软雅黑" text-anchor="middle" font-size="13px" width="109px" fill="#323232" font-weight="400" align="middle" lineheight="125%" font-style="" opacity="1" y="19.375" transform="rotate(0)"><tspan id="SvgjsTspan1106" dy="16" x="64.5"><tspan id="SvgjsTspan1107" style="text-decoration:;">事件消费服务</tspan></tspan></text></g></g><g id="SvgjsG1108" transform="translate(50.0056818181813,609)"><path id="SvgjsPath1109" d="M0 0L530 0L530 267L0 267Z " stroke="rgba(50,50,50,1)" stroke-width="2" fill-opacity="1" fill="#ffffff"></path><g id="SvgjsG1110"><text id="SvgjsText1111" font-family="微软雅黑" text-anchor="middle" font-size="13px" width="510px" fill="#323232" font-weight="400" align="middle" lineheight="125%" font-style="" opacity="1" y="122.875" transform="rotate(0)"></text></g></g><g id="SvgjsG1112" transform="translate(30.0056818181813,589)"><path id="SvgjsPath1113" d="M0 0L530 0L530 267L0 267Z " stroke="rgba(50,50,50,1)" stroke-width="2" fill-opacity="1" fill="#ffffff"></path><g id="SvgjsG1114"><text id="SvgjsText1115" font-family="微软雅黑" text-anchor="middle" font-size="13px" width="510px" fill="#323232" font-weight="400" align="middle" lineheight="125%" font-style="" opacity="1" y="122.875" transform="rotate(0)"></text></g></g><g id="SvgjsG1116" transform="translate(260.00568181818153,880.5000000000002)"><path id="SvgjsPath1117" d="M0 0L109 0L109 32.5L0 32.5Z " stroke="none" fill-opacity="1" fill="#ffffff"></path><g id="SvgjsG1118"><text id="SvgjsText1119" font-family="微软雅黑" text-anchor="middle" font-size="13px" width="89px" fill="#323232" font-weight="400" align="middle" lineheight="125%" font-style="" opacity="1" y="5.625" transform="rotate(0)"><tspan id="SvgjsTspan1120" dy="16" x="54.5"><tspan id="SvgjsTspan1121" style="text-decoration:;">数据库集群</tspan></tspan></text></g></g><g id="SvgjsG1122" transform="translate(70.0056818181813,677)"><path id="SvgjsPath1123" d="M0 0L100 0L100 70L0 70Z " stroke="rgba(50,50,50,1)" stroke-width="2" fill-opacity="1" fill="#ffffff"></path><g id="SvgjsG1124"><text id="SvgjsText1125" font-family="微软雅黑" text-anchor="middle" font-size="13px" width="80px" fill="#323232" font-weight="400" align="middle" lineheight="125%" font-style="" opacity="1" y="24.375" transform="rotate(0)"><tspan id="SvgjsTspan1126" dy="16" x="50"><tspan id="SvgjsTspan1127" style="text-decoration:;">用户基本信息</tspan></tspan></text></g></g><g id="SvgjsG1128" transform="translate(397.0056818181813,677)"><path id="SvgjsPath1129" d="M0 0L100 0L100 70L0 70Z " stroke="rgba(50,50,50,1)" stroke-width="2" fill-opacity="1" fill="#ffffff"></path><g id="SvgjsG1130"><text id="SvgjsText1131" font-family="微软雅黑" text-anchor="middle" font-size="13px" width="80px" fill="#323232" font-weight="400" align="middle" lineheight="125%" font-style="" opacity="1" y="24.375" transform="rotate(0)"><tspan id="SvgjsTspan1132" dy="16" x="50"><tspan id="SvgjsTspan1133" style="text-decoration:;">用户事件</tspan></tspan></text></g></g><g id="SvgjsG1134" transform="translate(25.0056818181813,341)"><path id="SvgjsPath1135" d="M0 4Q0 0 4 0L536 0Q540 0 540 4L540 70Q540 74 536 74L4 74Q0 74 0 70Z " stroke="rgba(50,50,50,1)" stroke-width="2" fill-opacity="1" fill="#ffffff"></path><g id="SvgjsG1136"><text id="SvgjsText1137" font-family="微软雅黑" text-anchor="middle" font-size="13px" width="520px" fill="#323232" font-weight="400" align="middle" lineheight="125%" font-style="" opacity="1" y="26.375" transform="rotate(0)"><tspan id="SvgjsTspan1138" dy="16" x="270"><tspan id="SvgjsTspan1139" style="text-decoration:;">用户服务</tspan></tspan></text></g></g><g id="SvgjsG1140" transform="translate(260.0056818181813,25)"><path id="SvgjsPath1141" d="M23.333333333333332 12.5C23.333333333333332 -4.166666666666666 46.666666666666664 -4.166666666666666 46.666666666666664 12.5C46.666666666666664 29.166666666666668 23.333333333333332 29.166666666666668 23.333333333333332 12.5M35 25L35 75M35 75L5.833333333333333 100M35 75L64.16666666666666 100M0 50L70 50 " stroke="rgba(50,50,50,1)" stroke-width="2" fill-opacity="1" fill="#ffffff"></path><path id="SvgjsPath1142" d="M0 0L70 0L70 100L0 100Z " stroke="none" fill="none"></path><g id="SvgjsG1143"><text id="SvgjsText1144" font-family="微软雅黑" text-anchor="middle" font-size="13px" width="110px" fill="#323232" font-weight="400" align="middle" lineheight="125%" font-style="" opacity="1" y="104.375" transform="rotate(0)"><tspan id="SvgjsTspan1145" dy="16" x="35"><tspan id="SvgjsTspan1146" style="text-decoration:;">用户</tspan></tspan></text></g></g><g id="SvgjsG1147"><path id="SvgjsPath1148" d="M295.0056818181813 126L295.0056818181813 233L295.0056818181813 233L295.0056818181813 337.4 " stroke="#323232" stroke-width="2" fill="none" marker-end="url(#SvgjsMarker1149)"></path><rect id="SvgjsRect1151" width="99" height="16" x="245.5056818181813" y="223.7" fill="#ffffff"></rect><text id="SvgjsText1152" font-family="微软雅黑" text-anchor="middle" font-size="13px" width="99px" fill="#323232" font-weight="400" align="top" lineheight="16px" font-style="" opacity="1" y="221.075" transform="rotate(0)"><tspan id="SvgjsTspan1153" dy="16" x="295.0056818181813"><tspan id="SvgjsTspan1154" style="text-decoration:;">1、用户编号登录</tspan></tspan></text></g><g id="SvgjsG1155" transform="translate(739.0056818181813,682)"><path id="SvgjsPath1156" d="M0 0L129 0L129 60L0 60Z " stroke="rgba(50,50,50,1)" stroke-width="2" fill-opacity="1" fill="#ffffff"></path><g id="SvgjsG1157"><text id="SvgjsText1158" font-family="微软雅黑" text-anchor="middle" font-size="13px" width="109px" fill="#323232" font-weight="400" align="middle" lineheight="125%" font-style="" opacity="1" y="19.375" transform="rotate(0)"><tspan id="SvgjsTspan1159" dy="16" x="64.5"><tspan id="SvgjsTspan1160" style="text-decoration:;">事件队列</tspan></tspan></text></g></g><g id="SvgjsG1161"><path id="SvgjsPath1162" d="M498.0056818181813 712L618.0056818181813 712L618.0056818181813 712L735.4056818181814 712 " stroke="#323232" stroke-width="2" fill="none" marker-end="url(#SvgjsMarker1163)"></path><rect id="SvgjsRect1165" width="125" height="16" x="554.2056818181813" y="704" fill="#ffffff"></rect><text id="SvgjsText1166" font-family="微软雅黑" text-anchor="middle" font-size="13px" width="125px" fill="#323232" font-weight="400" align="top" lineheight="16px" font-style="" opacity="1" y="701.375" transform="rotate(0)"><tspan id="SvgjsTspan1167" dy="16" x="616.7056818181813"><tspan id="SvgjsTspan1168" style="text-decoration:;">4、推送用户登录事件</tspan></tspan></text></g><g id="SvgjsG1169"><path id="SvgjsPath1170" d="M120.0056818181813 676L120.0056818181813 546L295.0056818181813 546L295.0056818181813 418.6 " stroke="#323232" stroke-width="2" fill="none" marker-end="url(#SvgjsMarker1171)"></path><rect id="SvgjsRect1173" width="125" height="16" x="143.7056818181813" y="538" fill="#ffffff"></rect><text id="SvgjsText1174" font-family="微软雅黑" text-anchor="middle" font-size="13px" width="125px" fill="#323232" font-weight="400" align="top" lineheight="16px" font-style="" opacity="1" y="535.375" transform="rotate(0)"><tspan id="SvgjsTspan1175" dy="16" x="206.2056818181813"><tspan id="SvgjsTspan1176" style="text-decoration:;">2、获取用户基本信息</tspan></tspan></text></g><g id="SvgjsG1177"><path id="SvgjsPath1178" d="M447.0056818181813 415.590909090909L447.0056818181813 545.7954545454545L447.0056818181813 545.7954545454545L447.0056818181813 673.4000000000001 " stroke="#323232" stroke-width="2" fill="none" marker-end="url(#SvgjsMarker1179)"></path><rect id="SvgjsRect1181" width="125" height="16" x="384.5056818181813" y="536.4954545454545" fill="#ffffff"></rect><text id="SvgjsText1182" font-family="微软雅黑" text-anchor="middle" font-size="13px" width="125px" fill="#323232" font-weight="400" align="top" lineheight="16px" font-style="" opacity="1" y="533.8704545454545" transform="rotate(0)"><tspan id="SvgjsTspan1183" dy="16" x="447.0056818181813"><tspan id="SvgjsTspan1184" style="text-decoration:;">3、用户登录成功事件</tspan></tspan></text></g><g id="SvgjsG1185" transform="translate(1066.278409090909,682)"><path id="SvgjsPath1186" d="M0 4Q0 0 4 0L125 0Q129 0 129 4L129 56Q129 60 125 60L4 60Q0 60 0 56Z " stroke="rgba(50,50,50,1)" stroke-width="2" fill-opacity="1" fill="#ffffff"></path><g id="SvgjsG1187"><text id="SvgjsText1188" font-family="微软雅黑" text-anchor="middle" font-size="13px" width="109px" fill="#323232" font-weight="400" align="middle" lineheight="125%" font-style="" opacity="1" y="19.375" transform="rotate(0)"><tspan id="SvgjsTspan1189" dy="16" x="64.5"><tspan id="SvgjsTspan1190" style="text-decoration:;">事件消费服务</tspan></tspan></text></g></g><g id="SvgjsG1191"><path id="SvgjsPath1192" d="M869.0056818181813 712L967.142045454545 712L967.142045454545 712L1062.678409090909 712 " stroke="#323232" stroke-width="2" fill="none" marker-end="url(#SvgjsMarker1193)"></path></g></svg>