<?xml version="1.0" standalone="no"?><?xml-stylesheet type="text/css" href="https://wps.processon.com/themes/default/wps/mind/icons/icons.css" ?><!DOCTYPE svg PUBLIC "-//W3C//DTD SVG 1.1//EN" "http://www.w3.org/Graphics/SVG/1.1/DTD/svg11.dtd"><svg id="SvgjsSvg1181" xmlns="http://www.w3.org/2000/svg" version="1.1" xmlns:xlink="http://www.w3.org/1999/xlink" xmlns:svgjs="http://svgjs.com/svgjs" width="1445" height="887"><rect fill="url(#pattern_mark)" transform="translate(-816.5,-393.5)" width="2293" height="1296" id="rect_mark" pointer-events="none"></rect><defs id="SvgjsDefs1182"><marker id="SvgjsMarker1215" markerWidth="14" markerHeight="10" refX="10" refY="5" viewBox="0 0 14 10" orient="auto" markerUnits="userSpaceOnUse" stroke-dasharray="0,0"><path id="SvgjsPath1216" d="M0 0L14 5L0 10L0 0 " fill="#323232" stroke="#323232" stroke-width="1"></path></marker><marker id="SvgjsMarker1223" markerWidth="14" markerHeight="10" refX="10" refY="5" viewBox="0 0 14 10" orient="auto" markerUnits="userSpaceOnUse" stroke-dasharray="0,0"><path id="SvgjsPath1224" d="M0 0L14 5L0 10L0 0 " fill="#323232" stroke="#323232" stroke-width="1"></path></marker><marker id="SvgjsMarker1231" markerWidth="14" markerHeight="10" refX="10" refY="5" viewBox="0 0 14 10" orient="auto" markerUnits="userSpaceOnUse" stroke-dasharray="0,0"><path id="SvgjsPath1232" d="M0 0L14 5L0 10L0 0 " fill="#323232" stroke="#323232" stroke-width="1"></path></marker><marker id="SvgjsMarker1257" markerWidth="14" markerHeight="10" refX="4" refY="5" viewBox="0 0 14 10" orient="auto" markerUnits="userSpaceOnUse" stroke-dasharray="0,0"><path id="SvgjsPath1258" d="M14 0L0 5L14 10L14 0 " fill="#323232" stroke="#323232" stroke-width="1"></path></marker><marker id="SvgjsMarker1265" markerWidth="14" markerHeight="10" refX="10" refY="5" viewBox="0 0 14 10" orient="auto" markerUnits="userSpaceOnUse" stroke-dasharray="0,0"><path id="SvgjsPath1266" d="M0 0L14 5L0 10L0 0 " fill="#323232" stroke="#323232" stroke-width="1"></path></marker><marker id="SvgjsMarker1323" markerWidth="14" markerHeight="10" refX="10" refY="5" viewBox="0 0 14 10" orient="auto" markerUnits="userSpaceOnUse" stroke-dasharray="0,0"><path id="SvgjsPath1324" d="M0 0L14 5L0 10L0 0 " fill="#323232" stroke="#323232" stroke-width="1"></path></marker><marker id="SvgjsMarker1331" markerWidth="14" markerHeight="10" refX="10" refY="5" viewBox="0 0 14 10" orient="auto" markerUnits="userSpaceOnUse" stroke-dasharray="0,0"><path id="SvgjsPath1332" d="M0 0L14 5L0 10L0 0 " fill="#323232" stroke="#323232" stroke-width="1"></path></marker><marker id="SvgjsMarker1335" markerWidth="14" markerHeight="10" refX="10" refY="5" viewBox="0 0 14 10" orient="auto" markerUnits="userSpaceOnUse" stroke-dasharray="0,0"><path id="SvgjsPath1336" d="M0 0L14 5L0 10L0 0 " fill="#323232" stroke="#323232" stroke-width="1"></path></marker><marker id="SvgjsMarker1339" markerWidth="14" markerHeight="10" refX="10" refY="5" viewBox="0 0 14 10" orient="auto" markerUnits="userSpaceOnUse" stroke-dasharray="0,0"><path id="SvgjsPath1340" d="M0 0L14 5L0 10L0 0 " fill="#323232" stroke="#323232" stroke-width="1"></path></marker><marker id="SvgjsMarker1343" markerWidth="14" markerHeight="10" refX="10" refY="5" viewBox="0 0 14 10" orient="auto" markerUnits="userSpaceOnUse" stroke-dasharray="0,0"><path id="SvgjsPath1344" d="M0 0L14 5L0 10L0 0 " fill="#323232" stroke="#323232" stroke-width="1"></path></marker><marker id="SvgjsMarker1351" markerWidth="14" markerHeight="10" refX="10" refY="5" viewBox="0 0 14 10" orient="auto" markerUnits="userSpaceOnUse" stroke-dasharray="0,0"><path id="SvgjsPath1352" d="M0 0L14 5L0 10L0 0 " fill="#323232" stroke="#323232" stroke-width="1"></path></marker><marker id="SvgjsMarker1359" markerWidth="14" markerHeight="10" refX="10" refY="5" viewBox="0 0 14 10" orient="auto" markerUnits="userSpaceOnUse" stroke-dasharray="0,0"><path id="SvgjsPath1360" d="M0 0L14 5L0 10L0 0 " fill="#323232" stroke="#323232" stroke-width="1"></path></marker><pattern patternUnits="userSpaceOnUse" id="pattern_mark" width="300" height="300"><text x="-50" y="150" fill="rgba(229,229,229,0.8)" font-size="18" transform="rotate(-45, 150, 150)"></text></pattern></defs><g id="svgbackgroundid"><defs></defs><rect x="0" y="0" width="1445" height="887" fill="#ffffff"></rect></g><g id="SvgjsG1183" transform="translate(241.5,369.5)"><path id="SvgjsPath1184" d="M0 0L824 0L824 121L0 121Z " stroke-dasharray="10,6" stroke="rgba(50,50,50,1)" stroke-width="2" fill-opacity="1" fill="#ffffff"></path><g id="SvgjsG1185"><text id="SvgjsText1186" font-family="微软雅黑" text-anchor="middle" font-size="13px" width="804px" fill="#323232" font-weight="400" align="middle" lineheight="125%" font-style="" opacity="1" y="49.875" transform="rotate(0)"></text></g></g><g id="SvgjsG1187" transform="translate(569,25)"><path id="SvgjsPath1188" d="M0 4Q0 0 4 0L153 0Q157 0 157 4L157 57Q157 61 153 61L4 61Q0 61 0 57Z " stroke="rgba(50,50,50,1)" stroke-width="2" fill-opacity="1" fill="#ffffff"></path><g id="SvgjsG1189"><text id="SvgjsText1190" font-family="微软雅黑" text-anchor="middle" font-size="13px" width="137px" fill="#323232" font-weight="400" align="middle" lineheight="125%" font-style="" opacity="1" y="19.875" transform="rotate(0)"><tspan id="SvgjsTspan1191" dy="16" x="78.5"><tspan id="SvgjsTspan1192" style="text-decoration:;">渠道服务</tspan></tspan></text></g></g><g id="SvgjsG1193" transform="translate(579,35)"><path id="SvgjsPath1194" d="M0 4Q0 0 4 0L153 0Q157 0 157 4L157 57Q157 61 153 61L4 61Q0 61 0 57Z " stroke="rgba(50,50,50,1)" stroke-width="2" fill-opacity="1" fill="#ffffff"></path><g id="SvgjsG1195"><text id="SvgjsText1196" font-family="微软雅黑" text-anchor="middle" font-size="13px" width="137px" fill="#323232" font-weight="400" align="middle" lineheight="125%" font-style="" opacity="1" y="19.875" transform="rotate(0)"><tspan id="SvgjsTspan1197" dy="16" x="78.5"><tspan id="SvgjsTspan1198" style="text-decoration:;">渠道接入服务</tspan></tspan></text></g></g><g id="SvgjsG1199" transform="translate(278,397)"><path id="SvgjsPath1200" d="M0 4Q0 0 4 0L203 0Q207 0 207 4L207 68Q207 72 203 72L4 72Q0 72 0 68Z " stroke="rgba(50,50,50,1)" stroke-width="2" fill-opacity="1" fill="#ffffff"></path><g id="SvgjsG1201"><text id="SvgjsText1202" font-family="微软雅黑" text-anchor="middle" font-size="13px" width="187px" fill="#323232" font-weight="400" align="middle" lineheight="125%" font-style="" opacity="1" y="17.375" transform="rotate(0)"><tspan id="SvgjsTspan1203" dy="16" x="103.5"><tspan id="SvgjsTspan1204" style="text-decoration:;">用户读写服务</tspan></tspan><tspan id="SvgjsTspan1205" dy="16" x="103.5"><tspan id="SvgjsTspan1206" style="text-decoration:;">分库0</tspan></tspan></text></g></g><g id="SvgjsG1207" transform="translate(25,216)"><path id="SvgjsPath1208" d="M0 0L147 0L147 70L0 70Z " stroke="rgba(50,50,50,1)" stroke-width="2" fill-opacity="1" fill="#ffffff"></path><g id="SvgjsG1209"><text id="SvgjsText1210" font-family="微软雅黑" text-anchor="middle" font-size="13px" width="127px" fill="#323232" font-weight="400" align="middle" lineheight="125%" font-style="" opacity="1" y="24.375" transform="rotate(0)"><tspan id="SvgjsTspan1211" dy="16" x="73.5"><tspan id="SvgjsTspan1212" style="text-decoration:;">分布式ID</tspan></tspan></text></g></g><g id="SvgjsG1213"><path id="SvgjsPath1214" d="M657.5 97L657.5 153.75L657.5 153.75L657.5 211.5 " stroke="#323232" stroke-width="2" fill="none" marker-end="url(#SvgjsMarker1215)"></path><rect id="SvgjsRect1217" width="121" height="16" x="597" y="146.25" fill="#ffffff"></rect><text id="SvgjsText1218" font-family="微软雅黑" text-anchor="middle" font-size="13px" width="121px" fill="#323232" font-weight="400" align="top" lineheight="16px" font-style="" opacity="1" y="143.625" transform="rotate(0)"><tspan id="SvgjsTspan1219" dy="16" x="657.5"><tspan id="SvgjsTspan1220" style="text-decoration:;">注册/登录/修改/注销</tspan></tspan></text></g><g id="SvgjsG1221"><path id="SvgjsPath1222" d="M549 251L361 251L361 251L175.60000000000002 251 " stroke="#323232" stroke-width="2" fill="none" marker-end="url(#SvgjsMarker1223)"></path><rect id="SvgjsRect1225" width="40" height="16" x="342.3" y="243" fill="#ffffff"></rect><text id="SvgjsText1226" font-family="微软雅黑" text-anchor="middle" font-size="13px" width="40px" fill="#323232" font-weight="400" align="top" lineheight="16px" font-style="" opacity="1" y="240.375" transform="rotate(0)"><tspan id="SvgjsTspan1227" dy="16" x="362.3"><tspan id="SvgjsTspan1228" style="text-decoration:;">获取ID</tspan></tspan></text></g><g id="SvgjsG1229"><path id="SvgjsPath1230" d="M381.5 470L381.5 580.25L381.5 580.25L381.5 687.9000000000001 " stroke="#323232" stroke-width="2" fill="none" marker-end="url(#SvgjsMarker1231)"></path><rect id="SvgjsRect1233" width="26" height="16" x="368.5" y="570.95" fill="#ffffff"></rect><text id="SvgjsText1234" font-family="微软雅黑" text-anchor="middle" font-size="13px" width="26px" fill="#323232" font-weight="400" align="top" lineheight="16px" font-style="" opacity="1" y="568.325" transform="rotate(0)"><tspan id="SvgjsTspan1235" dy="16" x="381.5"><tspan id="SvgjsTspan1236" style="text-decoration:;">读写</tspan></tspan></text></g><g id="SvgjsG1237" transform="translate(1223,422.5)"><path id="SvgjsPath1238" d="M0 4Q0 0 4 0L143 0Q147 0 147 4L147 64Q147 68 143 68L4 68Q0 68 0 64Z " stroke="rgba(50,50,50,1)" stroke-width="2" fill-opacity="1" fill="#ffffff"></path><g id="SvgjsG1239"><text id="SvgjsText1240" font-family="微软雅黑" text-anchor="middle" font-size="13px" width="127px" fill="#323232" font-weight="400" align="middle" lineheight="125%" font-style="" opacity="1" y="23.375" transform="rotate(0)"><tspan id="SvgjsTspan1241" dy="16" x="73.5"><tspan id="SvgjsTspan1242" style="text-decoration:;">数据同步服务</tspan></tspan></text></g></g><g id="SvgjsG1243" transform="translate(1193,627)"><path id="SvgjsPath1244" d="M0 0L207 0L207 161L0 161Z " stroke="rgba(50,50,50,1)" stroke-width="2" fill-opacity="1" fill="#ffffff"></path><g id="SvgjsG1245"><text id="SvgjsText1246" font-family="微软雅黑" text-anchor="middle" font-size="13px" width="187px" fill="#323232" font-weight="400" align="middle" lineheight="125%" font-style="" opacity="1" y="69.875" transform="rotate(0)"><tspan id="SvgjsTspan1247" dy="16" x="103.5"><tspan id="SvgjsTspan1248" style="text-decoration:;">分库</tspan></tspan></text></g></g><g id="SvgjsG1249" transform="translate(1213,647)"><path id="SvgjsPath1250" d="M0 0L207 0L207 161L0 161Z " stroke="rgba(50,50,50,1)" stroke-width="2" fill-opacity="1" fill="#ffffff"></path><g id="SvgjsG1251"><text id="SvgjsText1252" font-family="微软雅黑" text-anchor="middle" font-size="13px" width="187px" fill="#323232" font-weight="400" align="middle" lineheight="125%" font-style="" opacity="1" y="69.875" transform="rotate(0)"><tspan id="SvgjsTspan1253" dy="16" x="103.5"><tspan id="SvgjsTspan1254" style="text-decoration:;">消息队列</tspan></tspan></text></g></g><g id="SvgjsG1255"><path id="SvgjsPath1256" d="M1296.5 623.4000000000001L1296.5 491.5 " stroke="#323232" stroke-width="2" fill="none" marker-start="url(#SvgjsMarker1257)"></path><rect id="SvgjsRect1259" width="52" height="16" x="1270.5" y="549.45" fill="#ffffff"></rect><text id="SvgjsText1260" font-family="微软雅黑" text-anchor="middle" font-size="13px" width="52px" fill="#323232" font-weight="400" align="top" lineheight="16px" font-style="" opacity="1" y="546.825" transform="rotate(0)"><tspan id="SvgjsTspan1261" dy="16" x="1296.5"><tspan id="SvgjsTspan1262" style="text-decoration:;">消费消息</tspan></tspan></text></g><g id="SvgjsG1263"><path id="SvgjsPath1264" d="M1296.5 421.5L1296.5 289.6 " stroke="#323232" stroke-width="2" fill="none" marker-end="url(#SvgjsMarker1265)"></path></g><g id="SvgjsG1267" transform="translate(1244,822)"><path id="SvgjsPath1268" d="M0 0L120 0L120 40L0 40Z " stroke="none" fill="none"></path><g id="SvgjsG1269"><text id="SvgjsText1270" font-family="微软雅黑" text-anchor="middle" font-size="13px" width="120px" fill="#323232" font-weight="400" align="middle" lineheight="125%" font-style="" opacity="1" y="9.375" transform="rotate(0)"><tspan id="SvgjsTspan1271" dy="16" x="60"><tspan id="SvgjsTspan1272" style="text-decoration:;">消息队列集群</tspan></tspan></text></g></g><g id="SvgjsG1273" transform="translate(550,215)"><path id="SvgjsPath1274" d="M0 4Q0 0 4 0L203 0Q207 0 207 4L207 68Q207 72 203 72L4 72Q0 72 0 68Z " stroke="rgba(50,50,50,1)" stroke-width="2" fill-opacity="1" fill="#ffffff"></path><g id="SvgjsG1275"><text id="SvgjsText1276" font-family="微软雅黑" text-anchor="middle" font-size="13px" width="187px" fill="#323232" font-weight="400" align="middle" lineheight="125%" font-style="" opacity="1" y="25.375" transform="rotate(0)"><tspan id="SvgjsTspan1277" dy="16" x="103.5"><tspan id="SvgjsTspan1278" style="text-decoration:;">用户读写服务网关集群</tspan></tspan></text></g></g><g id="SvgjsG1279" transform="translate(550,397)"><path id="SvgjsPath1280" d="M0 4Q0 0 4 0L203 0Q207 0 207 4L207 68Q207 72 203 72L4 72Q0 72 0 68Z " stroke="rgba(50,50,50,1)" stroke-width="2" fill-opacity="1" fill="#ffffff"></path><g id="SvgjsG1281"><text id="SvgjsText1282" font-family="微软雅黑" text-anchor="middle" font-size="13px" width="187px" fill="#323232" font-weight="400" align="middle" lineheight="125%" font-style="" opacity="1" y="17.375" transform="rotate(0)"><tspan id="SvgjsTspan1283" dy="16" x="103.5"><tspan id="SvgjsTspan1284" style="text-decoration:;">用户读写服务</tspan></tspan><tspan id="SvgjsTspan1285" dy="16" x="103.5"><tspan id="SvgjsTspan1286" style="text-decoration:;">分库1</tspan></tspan></text></g></g><g id="SvgjsG1287" transform="translate(822,397)"><path id="SvgjsPath1288" d="M0 4Q0 0 4 0L203 0Q207 0 207 4L207 68Q207 72 203 72L4 72Q0 72 0 68Z " stroke="rgba(50,50,50,1)" stroke-width="2" fill-opacity="1" fill="#ffffff"></path><g id="SvgjsG1289"><text id="SvgjsText1290" font-family="微软雅黑" text-anchor="middle" font-size="13px" width="187px" fill="#323232" font-weight="400" align="middle" lineheight="125%" font-style="" opacity="1" y="17.375" transform="rotate(0)"><tspan id="SvgjsTspan1291" dy="16" x="103.5"><tspan id="SvgjsTspan1292" style="text-decoration:;">用户读写服务</tspan></tspan><tspan id="SvgjsTspan1293" dy="16" x="103.5"><tspan id="SvgjsTspan1294" style="text-decoration:;">分库2</tspan></tspan></text></g></g><g id="SvgjsG1295" transform="translate(1223,216)"><path id="SvgjsPath1296" d="M0 0L147 0L147 70L0 70Z " stroke="rgba(50,50,50,1)" stroke-width="2" fill-opacity="1" fill="#ffffff"></path><g id="SvgjsG1297"><text id="SvgjsText1298" font-family="微软雅黑" text-anchor="middle" font-size="13px" width="127px" fill="#323232" font-weight="400" align="middle" lineheight="125%" font-style="" opacity="1" y="16.375" transform="rotate(0)"><tspan id="SvgjsTspan1299" dy="16" x="73.5"><tspan id="SvgjsTspan1300" style="text-decoration:;">手机号-用户编号映射</tspan></tspan><tspan id="SvgjsTspan1301" dy="16" x="73.5"><tspan id="SvgjsTspan1302" style="text-decoration:;">缓存集群</tspan></tspan></text></g></g><g id="SvgjsG1303" transform="translate(278,691.5)"><path id="SvgjsPath1304" d="M0 0L207 0L207 72L0 72Z " stroke="rgba(50,50,50,1)" stroke-width="2" fill-opacity="1" fill="#ffffff"></path><g id="SvgjsG1305"><text id="SvgjsText1306" font-family="微软雅黑" text-anchor="middle" font-size="13px" width="187px" fill="#323232" font-weight="400" align="middle" lineheight="125%" font-style="" opacity="1" y="25.375" transform="rotate(0)"><tspan id="SvgjsTspan1307" dy="16" x="103.5"><tspan id="SvgjsTspan1308" style="text-decoration:;">分库0</tspan></tspan></text></g></g><g id="SvgjsG1309" transform="translate(550,691.5)"><path id="SvgjsPath1310" d="M0 0L207 0L207 72L0 72Z " stroke="rgba(50,50,50,1)" stroke-width="2" fill-opacity="1" fill="#ffffff"></path><g id="SvgjsG1311"><text id="SvgjsText1312" font-family="微软雅黑" text-anchor="middle" font-size="13px" width="187px" fill="#323232" font-weight="400" align="middle" lineheight="125%" font-style="" opacity="1" y="25.375" transform="rotate(0)"><tspan id="SvgjsTspan1313" dy="16" x="103.5"><tspan id="SvgjsTspan1314" style="text-decoration:;">分库1</tspan></tspan></text></g></g><g id="SvgjsG1315" transform="translate(822,691.5)"><path id="SvgjsPath1316" d="M0 0L207 0L207 72L0 72Z " stroke="rgba(50,50,50,1)" stroke-width="2" fill-opacity="1" fill="#ffffff"></path><g id="SvgjsG1317"><text id="SvgjsText1318" font-family="微软雅黑" text-anchor="middle" font-size="13px" width="187px" fill="#323232" font-weight="400" align="middle" lineheight="125%" font-style="" opacity="1" y="25.375" transform="rotate(0)"><tspan id="SvgjsTspan1319" dy="16" x="103.5"><tspan id="SvgjsTspan1320" style="text-decoration:;">分库2</tspan></tspan></text></g></g><g id="SvgjsG1321"><path id="SvgjsPath1322" d="M653.5 470L653.5 687.9000000000001 " stroke="#323232" stroke-width="2" fill="none" marker-end="url(#SvgjsMarker1323)"></path><rect id="SvgjsRect1325" width="26" height="16" x="640.5" y="570.95" fill="#ffffff"></rect><text id="SvgjsText1326" font-family="微软雅黑" text-anchor="middle" font-size="13px" width="26px" fill="#323232" font-weight="400" align="top" lineheight="16px" font-style="" opacity="1" y="568.325" transform="rotate(0)"><tspan id="SvgjsTspan1327" dy="16" x="653.5"><tspan id="SvgjsTspan1328" style="text-decoration:;">读写</tspan></tspan></text></g><g id="SvgjsG1329"><path id="SvgjsPath1330" d="M652.5729403378864 287.37491383394297L384.8374147836089 395.6503101978052 " stroke="#323232" stroke-width="2" fill="none" marker-end="url(#SvgjsMarker1331)"></path></g><g id="SvgjsG1333"><path id="SvgjsPath1334" d="M653.5 288L653.5 393.4 " stroke="#323232" stroke-width="2" fill="none" marker-end="url(#SvgjsMarker1335)"></path></g><g id="SvgjsG1337"><path id="SvgjsPath1338" d="M654.4270596621136 287.37491383394297L922.1625852163911 395.6503101978052 " stroke="#323232" stroke-width="2" fill="none" marker-end="url(#SvgjsMarker1339)"></path></g><g id="SvgjsG1341"><path id="SvgjsPath1342" d="M1065.5746377651014 487.73990263270423L1190.6763058961167 625.3363505222649 " stroke="#323232" stroke-width="2" fill="none" marker-end="url(#SvgjsMarker1343)"></path><rect id="SvgjsRect1345" width="52" height="16" x="1102.125471830609" y="548.5381265774845" fill="#ffffff"></rect><text id="SvgjsText1346" font-family="微软雅黑" text-anchor="middle" font-size="13px" width="52px" fill="#323232" font-weight="400" align="top" lineheight="16px" font-style="" opacity="1" y="545.9131265774845" transform="rotate(0)"><tspan id="SvgjsTspan1347" dy="16" x="1128.125471830609"><tspan id="SvgjsTspan1348" style="text-decoration:;">生产消息</tspan></tspan></text></g><g id="SvgjsG1349"><path id="SvgjsPath1350" d="M925.5 470L925.5 580.25L925.5 580.25L925.5 687.9000000000001 " stroke="#323232" stroke-width="2" fill="none" marker-end="url(#SvgjsMarker1351)"></path><rect id="SvgjsRect1353" width="26" height="16" x="912.5" y="570.95" fill="#ffffff"></rect><text id="SvgjsText1354" font-family="微软雅黑" text-anchor="middle" font-size="13px" width="26px" fill="#323232" font-weight="400" align="top" lineheight="16px" font-style="" opacity="1" y="568.325" transform="rotate(0)"><tspan id="SvgjsTspan1355" dy="16" x="925.5"><tspan id="SvgjsTspan1356" style="text-decoration:;">读写</tspan></tspan></text></g><g id="SvgjsG1357"><path id="SvgjsPath1358" d="M758 251L990 251L990 251L1219.4 251 " stroke="#323232" stroke-width="2" fill="none" marker-end="url(#SvgjsMarker1359)"></path><rect id="SvgjsRect1361" width="78" height="16" x="949.7" y="243" fill="#ffffff"></rect><text id="SvgjsText1362" font-family="微软雅黑" text-anchor="middle" font-size="13px" width="78px" fill="#323232" font-weight="400" align="top" lineheight="16px" font-style="" opacity="1" y="240.375" transform="rotate(0)"><tspan id="SvgjsTspan1363" dy="16" x="988.7"><tspan id="SvgjsTspan1364" style="text-decoration:;">获取用户编号</tspan></tspan></text></g></svg>