<?xml version="1.0" standalone="no"?><?xml-stylesheet type="text/css" href="https://wps.processon.com/themes/default/wps/mind/icons/icons.css" ?><!DOCTYPE svg PUBLIC "-//W3C//DTD SVG 1.1//EN" "http://www.w3.org/Graphics/SVG/1.1/DTD/svg11.dtd"><svg id="SvgjsSvg1266" xmlns="http://www.w3.org/2000/svg" version="1.1" xmlns:xlink="http://www.w3.org/1999/xlink" xmlns:svgjs="http://svgjs.com/svgjs" width="928.5" height="847.5"><rect fill="url(#pattern_mark)" transform="translate(-812.5,-395.5)" width="2079" height="1347" id="rect_mark" pointer-events="none"></rect><defs id="SvgjsDefs1267"><marker id="SvgjsMarker1293" markerWidth="14" markerHeight="10" refX="10" refY="5" viewBox="0 0 14 10" orient="auto" markerUnits="userSpaceOnUse" stroke-dasharray="0,0"><path id="SvgjsPath1294" d="M0 0L14 5L0 10L0 0 " fill="#323232" stroke="#323232" stroke-width="1"></path></marker><marker id="SvgjsMarker1319" markerWidth="14" markerHeight="10" refX="10" refY="5" viewBox="0 0 14 10" orient="auto" markerUnits="userSpaceOnUse" stroke-dasharray="0,0"><path id="SvgjsPath1320" d="M0 0L14 5L0 10L0 0 " fill="#323232" stroke="#323232" stroke-width="1"></path></marker><marker id="SvgjsMarker1329" markerWidth="14" markerHeight="10" refX="10" refY="5" viewBox="0 0 14 10" orient="auto" markerUnits="userSpaceOnUse" stroke-dasharray="0,0"><path id="SvgjsPath1330" d="M0 0L14 5L0 10L0 0 " fill="#323232" stroke="#323232" stroke-width="1"></path></marker><marker id="SvgjsMarker1339" markerWidth="14" markerHeight="10" refX="10" refY="5" viewBox="0 0 14 10" orient="auto" markerUnits="userSpaceOnUse" stroke-dasharray="0,0"><path id="SvgjsPath1340" d="M0 0L14 5L0 10L0 0 " fill="#323232" stroke="#323232" stroke-width="1"></path></marker><pattern patternUnits="userSpaceOnUse" id="pattern_mark" width="300" height="300"><text x="-50" y="150" fill="rgba(229,229,229,0.8)" font-size="18" transform="rotate(-45, 150, 150)"></text></pattern></defs><g id="svgbackgroundid"><defs></defs><rect x="0" y="0" width="928.5" height="847.5" fill="#ffffff"></rect></g><g id="SvgjsG1268" transform="translate(29,587)"><path id="SvgjsPath1269" d="M0 0L686.5 0L686.5 163L0 163Z " stroke="rgba(50,50,50,1)" stroke-width="2" fill-opacity="1" fill="#ffffff"></path><g id="SvgjsG1270"><text id="SvgjsText1271" font-family="微软雅黑" text-anchor="middle" font-size="13px" width="667px" fill="#323232" font-weight="400" align="middle" lineheight="125%" font-style="" opacity="1" y="70.875" transform="rotate(0)"></text></g></g><g id="SvgjsG1272" transform="translate(317.75,789.5000000000002)"><path id="SvgjsPath1273" d="M0 0L109 0L109 32.5L0 32.5Z " stroke="none" fill-opacity="1" fill="#ffffff"></path><g id="SvgjsG1274"><text id="SvgjsText1275" font-family="微软雅黑" text-anchor="middle" font-size="13px" width="89px" fill="#323232" font-weight="400" align="middle" lineheight="125%" font-style="" opacity="1" y="5.625" transform="rotate(0)"><tspan id="SvgjsTspan1276" dy="16" x="54.5"><tspan id="SvgjsTspan1277" style="text-decoration:;">数据库集群</tspan></tspan></text></g></g><g id="SvgjsG1278" transform="translate(29,339)"><path id="SvgjsPath1279" d="M0 4Q0 0 4 0L682.5 0Q686.5 0 686.5 4L686.5 58.5Q686.5 62.5 682.5 62.5L4 62.5Q0 62.5 0 58.5Z " stroke="rgba(50,50,50,1)" stroke-width="2" fill-opacity="1" fill="#ffffff"></path><g id="SvgjsG1280"><text id="SvgjsText1281" font-family="微软雅黑" text-anchor="middle" font-size="13px" width="667px" fill="#323232" font-weight="400" align="middle" lineheight="125%" font-style="" opacity="1" y="20.625" transform="rotate(0)"><tspan id="SvgjsTspan1282" dy="16" x="343.5"><tspan id="SvgjsTspan1283" style="text-decoration:;">用户服务</tspan></tspan></text></g></g><g id="SvgjsG1284" transform="translate(337.25,25)"><path id="SvgjsPath1285" d="M23.333333333333332 12.5C23.333333333333332 -4.166666666666666 46.666666666666664 -4.166666666666666 46.666666666666664 12.5C46.666666666666664 29.166666666666668 23.333333333333332 29.166666666666668 23.333333333333332 12.5M35 25L35 75M35 75L5.833333333333333 100M35 75L64.16666666666666 100M0 50L70 50 " stroke="rgba(50,50,50,1)" stroke-width="2" fill-opacity="1" fill="#ffffff"></path><path id="SvgjsPath1286" d="M0 0L70 0L70 100L0 100Z " stroke="none" fill="none"></path><g id="SvgjsG1287"><text id="SvgjsText1288" font-family="微软雅黑" text-anchor="middle" font-size="13px" width="110px" fill="#323232" font-weight="400" align="middle" lineheight="125%" font-style="" opacity="1" y="104.375" transform="rotate(0)"><tspan id="SvgjsTspan1289" dy="16" x="35"><tspan id="SvgjsTspan1290" style="text-decoration:;">用户</tspan></tspan></text></g></g><g id="SvgjsG1291"><path id="SvgjsPath1292" d="M372.25 126L372.25 232L372.25 232L372.25 335.4 " stroke="#323232" stroke-width="2" fill="none" marker-end="url(#SvgjsMarker1293)"></path><rect id="SvgjsRect1295" width="104" height="16" x="320.25" y="222.7" fill="#ffffff"></rect><text id="SvgjsText1296" font-family="微软雅黑" text-anchor="middle" font-size="13px" width="104px" fill="#323232" font-weight="400" align="top" lineheight="16px" font-style="" opacity="1" y="220.075" transform="rotate(0)"><tspan id="SvgjsTspan1297" dy="16" x="372.25"><tspan id="SvgjsTspan1298" style="text-decoration:;">1、用户注册/登录</tspan></tspan></text></g><g id="SvgjsG1299" transform="translate(57.5,637.5)"><path id="SvgjsPath1300" d="M0 0L100 0L100 70L0 70Z " stroke="rgba(50,50,50,1)" stroke-width="2" fill-opacity="1" fill="#ffffff"></path><g id="SvgjsG1301"><text id="SvgjsText1302" font-family="微软雅黑" text-anchor="middle" font-size="13px" width="80px" fill="#323232" font-weight="400" align="middle" lineheight="125%" font-style="" opacity="1" y="24.375" transform="rotate(0)"><tspan id="SvgjsTspan1303" dy="16" x="50"><tspan id="SvgjsTspan1304" style="text-decoration:;">分库0</tspan></tspan></text></g></g><g id="SvgjsG1305" transform="translate(322.25,637.5)"><path id="SvgjsPath1306" d="M0 0L100 0L100 70L0 70Z " stroke="rgba(50,50,50,1)" stroke-width="2" fill-opacity="1" fill="#ffffff"></path><g id="SvgjsG1307"><text id="SvgjsText1308" font-family="微软雅黑" text-anchor="middle" font-size="13px" width="80px" fill="#323232" font-weight="400" align="middle" lineheight="125%" font-style="" opacity="1" y="24.375" transform="rotate(0)"><tspan id="SvgjsTspan1309" dy="16" x="50"><tspan id="SvgjsTspan1310" style="text-decoration:;">分库1</tspan></tspan></text></g></g><g id="SvgjsG1311" transform="translate(587,637.5)"><path id="SvgjsPath1312" d="M0 0L100 0L100 70L0 70Z " stroke="rgba(50,50,50,1)" stroke-width="2" fill-opacity="1" fill="#ffffff"></path><g id="SvgjsG1313"><text id="SvgjsText1314" font-family="微软雅黑" text-anchor="middle" font-size="13px" width="80px" fill="#323232" font-weight="400" align="middle" lineheight="125%" font-style="" opacity="1" y="24.375" transform="rotate(0)"><tspan id="SvgjsTspan1315" dy="16" x="50"><tspan id="SvgjsTspan1316" style="text-decoration:;">分库2</tspan></tspan></text></g></g><g id="SvgjsG1317"><path id="SvgjsPath1318" d="M107.5 402.5L107.5 519.5L107.5 519.5L107.5 633.9000000000001 " stroke="#323232" stroke-width="2" fill="none" marker-end="url(#SvgjsMarker1319)"></path><rect id="SvgjsRect1321" width="185" height="32" x="15" y="502.20000000000005" fill="#ffffff"></rect><text id="SvgjsText1322" font-family="微软雅黑" text-anchor="middle" font-size="13px" width="185px" fill="#323232" font-weight="400" align="top" lineheight="16px" font-style="" opacity="1" y="499.57500000000005" transform="rotate(0)"><tspan id="SvgjsTspan1323" dy="16" x="107.5"><tspan id="SvgjsTspan1324" style="text-decoration:;">用户编号 </tspan></tspan><tspan id="SvgjsTspan1325" dy="16" x="107.5"><tspan id="SvgjsTspan1326" style="text-decoration:;">U0000000001 - U0005000000</tspan></tspan></text></g><g id="SvgjsG1327"><path id="SvgjsPath1328" d="M372.25 402.5L372.25 519.5L372.25 519.5L372.25 633.9000000000001 " stroke="#323232" stroke-width="2" fill="none" marker-end="url(#SvgjsMarker1329)"></path><rect id="SvgjsRect1331" width="185" height="32" x="279.75" y="502.20000000000005" fill="#ffffff"></rect><text id="SvgjsText1332" font-family="微软雅黑" text-anchor="middle" font-size="13px" width="185px" fill="#323232" font-weight="400" align="top" lineheight="16px" font-style="" opacity="1" y="499.57500000000005" transform="rotate(0)"><tspan id="SvgjsTspan1333" dy="16" x="372.25"><tspan id="SvgjsTspan1334" style="text-decoration:;">用户编号 </tspan></tspan><tspan id="SvgjsTspan1335" dy="16" x="372.25"><tspan id="SvgjsTspan1336" style="text-decoration:;">U0005000001 - U0010000000 </tspan></tspan></text></g><g id="SvgjsG1337"><path id="SvgjsPath1338" d="M639.25 402.5L639.25 519.5L637 519.5L637 633.9000000000001 " stroke="#323232" stroke-width="2" fill="none" marker-end="url(#SvgjsMarker1339)"></path><rect id="SvgjsRect1341" width="185" height="32" x="546.75" y="503.32500000000005" fill="#ffffff"></rect><text id="SvgjsText1342" font-family="微软雅黑" text-anchor="middle" font-size="13px" width="185px" fill="#323232" font-weight="400" align="top" lineheight="16px" font-style="" opacity="1" y="500.70000000000005" transform="rotate(0)"><tspan id="SvgjsTspan1343" dy="16" x="639.25"><tspan id="SvgjsTspan1344" style="text-decoration:;">用户编号 </tspan></tspan><tspan id="SvgjsTspan1345" dy="16" x="639.25"><tspan id="SvgjsTspan1346" style="text-decoration:;">U0010000001 - U0015000000 </tspan></tspan></text></g><g id="SvgjsG1347" transform="translate(29,421.5)"><path id="SvgjsPath1348" d="M0 0L686.5 0L686.5 40L0 40Z " stroke-dasharray="10,6" stroke="rgba(50,50,50,1)" stroke-width="2" fill-opacity="1" fill="#ffffff"></path><g id="SvgjsG1349"><text id="SvgjsText1350" font-family="微软雅黑" text-anchor="middle" font-size="13px" width="667px" fill="#323232" font-weight="400" align="middle" lineheight="125%" font-style="" opacity="1" y="9.375" transform="rotate(0)"><tspan id="SvgjsTspan1351" dy="16" x="343.5"><tspan id="SvgjsTspan1352" style="text-decoration:;">2、根据用户编号路由分库</tspan></tspan></text></g></g><g id="SvgjsG1353" transform="translate(754.5,339)"><path id="SvgjsPath1354" d="M0 0L149 0L149 411L0 411Z " stroke="none" fill-opacity="1" fill="#ffffff"></path><g id="SvgjsG1355"><text id="SvgjsText1356" font-family="微软雅黑" text-anchor="middle" font-size="13px" width="129px" fill="#323232" font-weight="400" align="middle" lineheight="125%" font-style="" opacity="1" y="194.875" transform="rotate(0)"><tspan id="SvgjsTspan1357" dy="16" x="74.5"><tspan id="SvgjsTspan1358" style="text-decoration:;">。。。。。。</tspan></tspan></text></g></g></svg>