<?xml version="1.0" standalone="no"?><?xml-stylesheet type="text/css" href="https://wps.processon.com/themes/default/wps/mind/icons/icons.css" ?><!DOCTYPE svg PUBLIC "-//W3C//DTD SVG 1.1//EN" "http://www.w3.org/Graphics/SVG/1.1/DTD/svg11.dtd"><svg id="SvgjsSvg1377" xmlns="http://www.w3.org/2000/svg" version="1.1" xmlns:xlink="http://www.w3.org/1999/xlink" xmlns:svgjs="http://svgjs.com/svgjs" width="971.234375" height="796.9375"><rect fill="url(#pattern_mark)" transform="translate(-428.03125,-139)" width="1850" height="1620" id="rect_mark" pointer-events="none"></rect><defs id="SvgjsDefs1378"><pattern patternUnits="userSpaceOnUse" id="pattern_mark" width="300" height="300"><text x="-50" y="150" fill="rgba(229,229,229,0.8)" font-size="18" transform="rotate(-45, 150, 150)"></text></pattern></defs><g id="svgbackgroundid"><defs></defs><rect x="0" y="0" width="971.234375" height="796.9375" fill="#ffffff"></rect></g><g id="SvgjsG1379" transform="translate(25.004908497536235,25)"><path id="SvgjsPath1380" d="M0 4Q0 0 4 0L907.9638415024638 0Q911.9638415024638 0 911.9638415024638 4L911.9638415024638 51Q911.9638415024638 55 907.9638415024638 55L4 55Q0 55 0 51Z " stroke="rgba(50,50,50,1)" stroke-width="2" fill-opacity="1" fill="#ccff99"></path><g id="SvgjsG1381"><text id="SvgjsText1382" font-family="宋体" text-anchor="middle" font-size="28px" width="892px" fill="#323232" font-weight="700" align="middle" lineheight="125%" font-style="" opacity="1" y="3.5" transform="rotate(0)"><tspan id="SvgjsTspan1383" dy="35" x="456"><tspan id="SvgjsTspan1384" style="text-decoration:;">用户中心分层设计</tspan></tspan></text></g></g><g id="SvgjsG1385" transform="translate(172.27812810574483,230)"><path id="SvgjsPath1386" d="M0 4Q0 0 4 0L760.6906218942552 0Q764.6906218942552 0 764.6906218942552 4L764.6906218942552 85Q764.6906218942552 89 760.6906218942552 89L4 89Q0 89 0 85Z " stroke="rgba(50,50,50,1)" stroke-width="2" fill-opacity="1" fill="#99ff99"></path><g id="SvgjsG1387"><text id="SvgjsText1388" font-family="微软雅黑" text-anchor="middle" font-size="13px" width="745px" fill="#323232" font-weight="400" align="middle" lineheight="125%" font-style="" opacity="1" y="33.875" transform="rotate(0)"><tspan id="SvgjsTspan1389" dy="16" x="382.5"><tspan id="SvgjsTspan1390" style="text-decoration:;"> </tspan></tspan></text></g></g><g id="SvgjsG1391" transform="translate(172.27812810574483,688.9511538587916)"><path id="SvgjsPath1392" d="M0 4Q0 0 4 0L760.6906218942552 0Q764.6906218942552 0 764.6906218942552 4L764.6906218942552 79Q764.6906218942552 83 760.6906218942552 83L4 83Q0 83 0 79Z " stroke="rgba(50,50,50,1)" stroke-width="2" fill-opacity="1" fill="#99ccff"></path><g id="SvgjsG1393"><text id="SvgjsText1394" font-family="微软雅黑" text-anchor="middle" font-size="13px" width="745px" fill="#323232" font-weight="400" align="middle" lineheight="125%" font-style="" opacity="1" y="30.875" transform="rotate(0)"></text></g></g><g id="SvgjsG1395" transform="translate(228.6234390528724,705.9511538587916)"><path id="SvgjsPath1396" d="M0 4Q0 0 4 0L151 0Q155 0 155 4L155 45Q155 49 151 49L4 49Q0 49 0 45Z " stroke="rgba(50,50,50,1)" stroke-width="2" fill-opacity="1" fill="#ffffff"></path><g id="SvgjsG1397"><text id="SvgjsText1398" font-family="微软雅黑" text-anchor="middle" font-size="13px" width="135px" fill="#323232" font-weight="400" align="middle" lineheight="125%" font-style="" opacity="1" y="13.875" transform="rotate(0)"><tspan id="SvgjsTspan1399" dy="16" x="77.5"><tspan id="SvgjsTspan1400" style="text-decoration:;">数据库</tspan></tspan></text></g></g><g id="SvgjsG1401" transform="translate(170.24356224034727,95)"><path id="SvgjsPath1402" d="M0 4Q0 0 4 0L762.7251877596527 0Q766.7251877596527 0 766.7251877596527 4L766.7251877596527 78.63417608259738Q766.7251877596527 82.63417608259738 762.7251877596527 82.63417608259738L4 82.63417608259738Q0 82.63417608259738 0 78.63417608259738Z " stroke="rgba(50,50,50,1)" stroke-width="2" fill-opacity="1" fill="#ccffcc"></path><g id="SvgjsG1403"><text id="SvgjsText1404" font-family="微软雅黑" text-anchor="middle" font-size="13px" width="747px" fill="#323232" font-weight="400" align="middle" lineheight="125%" font-style="" opacity="1" y="30.69208804129869" transform="rotate(0)"></text></g></g><g id="SvgjsG1405" transform="translate(25.004908497536235,95)"><path id="SvgjsPath1406" d="M0 4Q0 0 4 0L125.61119538356098 0Q129.61119538356098 0 129.61119538356098 4L129.61119538356098 78.63417608259738Q129.61119538356098 82.63417608259738 125.61119538356098 82.63417608259738L4 82.63417608259738Q0 82.63417608259738 0 78.63417608259738Z " stroke="rgba(50,50,50,1)" stroke-width="2" fill-opacity="1" fill="#ccffcc"></path><g id="SvgjsG1407"><text id="SvgjsText1408" font-family="微软雅黑" text-anchor="middle" font-size="13px" width="110px" fill="#323232" font-weight="700" align="middle" lineheight="125%" font-style="" opacity="1" y="30.69208804129869" transform="rotate(0)"><tspan id="SvgjsTspan1409" dy="16" x="65"><tspan id="SvgjsTspan1410" style="text-decoration:;">Controller层</tspan></tspan></text></g></g><g id="SvgjsG1411" transform="translate(25.004908497536235,230)"><path id="SvgjsPath1412" d="M0 4Q0 0 4 0L125.61119538356093 0Q129.61119538356093 0 129.61119538356093 4L129.61119538356093 90Q129.61119538356093 94 125.61119538356093 94L4 94Q0 94 0 90Z " stroke="rgba(50,50,50,1)" stroke-width="2" fill-opacity="1" fill="#99ff99"></path><g id="SvgjsG1413"><text id="SvgjsText1414" font-family="微软雅黑" text-anchor="middle" font-size="13px" width="110px" fill="#323232" font-weight="700" align="middle" lineheight="125%" font-style="" opacity="1" y="36.375" transform="rotate(0)"><tspan id="SvgjsTspan1415" dy="16" x="65"><tspan id="SvgjsTspan1416" style="text-decoration:;">应用服务层</tspan></tspan></text></g></g><g id="SvgjsG1417" transform="translate(25.004908497536235,376.3658239174026)"><path id="SvgjsPath1418" d="M0 4Q0 0 4 0L125.61119538356093 0Q129.61119538356093 0 129.61119538356093 4L129.61119538356093 117.9024731152399Q129.61119538356093 121.9024731152399 125.61119538356093 121.9024731152399L4 121.9024731152399Q0 121.9024731152399 0 117.9024731152399Z " stroke="rgba(50,50,50,1)" stroke-width="2" fill-opacity="1" fill="#ffcc99"></path><g id="SvgjsG1419"><text id="SvgjsText1420" font-family="微软雅黑" text-anchor="middle" font-size="14px" width="110px" fill="#323232" font-weight="700" align="middle" lineheight="125%" font-style="" opacity="1" y="49.70123655761995" transform="rotate(0)"><tspan id="SvgjsTspan1421" dy="17" x="65"><tspan id="SvgjsTspan1422" style="text-decoration:;">领域层</tspan></tspan></text></g></g><g id="SvgjsG1423" transform="translate(25.004908497536235,688.9511538587916)"><path id="SvgjsPath1424" d="M0 4Q0 0 4 0L125.61119538356093 0Q129.61119538356093 0 129.61119538356093 4L129.61119538356093 79Q129.61119538356093 83 125.61119538356093 83L4 83Q0 83 0 79Z " stroke="rgba(50,50,50,1)" stroke-width="2" fill-opacity="1" fill="#99ccff"></path><g id="SvgjsG1425"><text id="SvgjsText1426" font-family="微软雅黑" text-anchor="middle" font-size="13px" width="110px" fill="#323232" font-weight="700" align="middle" lineheight="125%" font-style="" opacity="1" y="30.875" transform="rotate(0)"><tspan id="SvgjsTspan1427" dy="16" x="65"><tspan id="SvgjsTspan1428" style="text-decoration:;">基础设施层</tspan></tspan></text></g></g><g id="SvgjsG1429" transform="translate(172.27812810574483,376.3658239174026)"><path id="SvgjsPath1430" d="M0 4Q0 0 4 0L573.6906218942552 0Q577.6906218942552 0 577.6906218942552 4L577.6906218942552 117.9024731152399Q577.6906218942552 121.9024731152399 573.6906218942552 121.9024731152399L4 121.9024731152399Q0 121.9024731152399 0 117.9024731152399Z " stroke="rgba(50,50,50,1)" stroke-width="2" fill-opacity="1" fill="#ffcc99"></path><g id="SvgjsG1431"><text id="SvgjsText1432" font-family="微软雅黑" text-anchor="middle" font-size="14px" width="558px" fill="#323232" font-weight="700" align="middle" lineheight="125%" font-style="" opacity="1" y="49.70123655761995" transform="rotate(0)"><tspan id="SvgjsTspan1433" dy="17" x="289"><tspan id="SvgjsTspan1434" style="text-decoration:;"> </tspan></tspan></text></g></g><g id="SvgjsG1435" transform="translate(190.7037962962463,412.8170604750226)"><path id="SvgjsPath1436" d="M0 4Q0 0 4 0L151 0Q155 0 155 4L155 45Q155 49 151 49L4 49Q0 49 0 45Z " stroke="rgba(50,50,50,1)" stroke-width="2" fill-opacity="1" fill="#ffffff"></path><g id="SvgjsG1437"><text id="SvgjsText1438" font-family="微软雅黑" text-anchor="middle" font-size="13px" width="135px" fill="#323232" font-weight="400" align="middle" lineheight="125%" font-style="" opacity="1" y="13.875" transform="rotate(0)"><tspan id="SvgjsTspan1439" dy="16" x="77.5"><tspan id="SvgjsTspan1440" style="text-decoration:;">用户模型</tspan></tspan></text></g></g><g id="SvgjsG1441" transform="translate(383.6234390528724,412.8170604750226)"><path id="SvgjsPath1442" d="M0 4Q0 0 4 0L151 0Q155 0 155 4L155 45Q155 49 151 49L4 49Q0 49 0 45Z " stroke="rgba(50,50,50,1)" stroke-width="2" fill-opacity="1" fill="#ffffff"></path><g id="SvgjsG1443"><text id="SvgjsText1444" font-family="微软雅黑" text-anchor="middle" font-size="13px" width="135px" fill="#323232" font-weight="400" align="middle" lineheight="125%" font-style="" opacity="1" y="13.875" transform="rotate(0)"><tspan id="SvgjsTspan1445" dy="16" x="77.5"><tspan id="SvgjsTspan1446" style="text-decoration:;">用户事件</tspan></tspan></text></g></g><g id="SvgjsG1447" transform="translate(190.7037962962463,252.5)"><path id="SvgjsPath1448" d="M0 4Q0 0 4 0L151 0Q155 0 155 4L155 45Q155 49 151 49L4 49Q0 49 0 45Z " stroke="rgba(50,50,50,1)" stroke-width="2" fill-opacity="1" fill="#ffffff"></path><g id="SvgjsG1449"><text id="SvgjsText1450" font-family="微软雅黑" text-anchor="middle" font-size="13px" width="135px" fill="#323232" font-weight="400" align="middle" lineheight="125%" font-style="" opacity="1" y="13.875" transform="rotate(0)"><tspan id="SvgjsTspan1451" dy="16" x="77.5"><tspan id="SvgjsTspan1452" style="text-decoration:;">用例编排</tspan></tspan></text></g></g><g id="SvgjsG1453" transform="translate(383.6234390528724,252.5)"><path id="SvgjsPath1454" d="M0 4Q0 0 4 0L151 0Q155 0 155 4L155 45Q155 49 151 49L4 49Q0 49 0 45Z " stroke="rgba(50,50,50,1)" stroke-width="2" fill-opacity="1" fill="#ffffff"></path><g id="SvgjsG1455"><text id="SvgjsText1456" font-family="微软雅黑" text-anchor="middle" font-size="13px" width="135px" fill="#323232" font-weight="400" align="middle" lineheight="125%" font-style="" opacity="1" y="13.875" transform="rotate(0)"><tspan id="SvgjsTspan1457" dy="16" x="77.5"><tspan id="SvgjsTspan1458" style="text-decoration:;">事务管理</tspan></tspan></text></g></g><g id="SvgjsG1459" transform="translate(574.0676916036896,252.5)"><path id="SvgjsPath1460" d="M0 4Q0 0 4 0L151 0Q155 0 155 4L155 45Q155 49 151 49L4 49Q0 49 0 45Z " stroke="rgba(50,50,50,1)" stroke-width="2" fill-opacity="1" fill="#ffffff"></path><g id="SvgjsG1461"><text id="SvgjsText1462" font-family="微软雅黑" text-anchor="middle" font-size="13px" width="135px" fill="#323232" font-weight="400" align="middle" lineheight="125%" font-style="" opacity="1" y="13.875" transform="rotate(0)"><tspan id="SvgjsTspan1463" dy="16" x="77.5"><tspan id="SvgjsTspan1464" style="text-decoration:;">事件发布</tspan></tspan></text></g></g><g id="SvgjsG1465" transform="translate(186.34840116849068,111.81708804129869)"><path id="SvgjsPath1466" d="M0 4Q0 0 4 0L151 0Q155 0 155 4L155 45Q155 49 151 49L4 49Q0 49 0 45Z " stroke="rgba(50,50,50,1)" stroke-width="2" fill-opacity="1" fill="#ffffff"></path><g id="SvgjsG1467"><text id="SvgjsText1468" font-family="微软雅黑" text-anchor="middle" font-size="13px" width="135px" fill="#323232" font-weight="400" align="middle" lineheight="125%" font-style="" opacity="1" y="13.875" transform="rotate(0)"><tspan id="SvgjsTspan1469" dy="16" x="77.5"><tspan id="SvgjsTspan1470" style="text-decoration:;">注册接口</tspan></tspan></text></g></g><g id="SvgjsG1471" transform="translate(379.2680439251167,111.81708804129869)"><path id="SvgjsPath1472" d="M0 4Q0 0 4 0L151 0Q155 0 155 4L155 45Q155 49 151 49L4 49Q0 49 0 45Z " stroke="rgba(50,50,50,1)" stroke-width="2" fill-opacity="1" fill="#ffffff"></path><g id="SvgjsG1473"><text id="SvgjsText1474" font-family="微软雅黑" text-anchor="middle" font-size="13px" width="135px" fill="#323232" font-weight="400" align="middle" lineheight="125%" font-style="" opacity="1" y="13.875" transform="rotate(0)"><tspan id="SvgjsTspan1475" dy="16" x="77.5"><tspan id="SvgjsTspan1476" style="text-decoration:;">登录接口</tspan></tspan></text></g></g><g id="SvgjsG1477" transform="translate(574.0676916036896,111.81708804129869)"><path id="SvgjsPath1478" d="M0 4Q0 0 4 0L151 0Q155 0 155 4L155 45Q155 49 151 49L4 49Q0 49 0 45Z " stroke="rgba(50,50,50,1)" stroke-width="2" fill-opacity="1" fill="#ffffff"></path><g id="SvgjsG1479"><text id="SvgjsText1480" font-family="微软雅黑" text-anchor="middle" font-size="13px" width="135px" fill="#323232" font-weight="400" align="middle" lineheight="125%" font-style="" opacity="1" y="13.875" transform="rotate(0)"><tspan id="SvgjsTspan1481" dy="16" x="77.5"><tspan id="SvgjsTspan1482" style="text-decoration:;">修改接口</tspan></tspan></text></g></g><g id="SvgjsG1483" transform="translate(574.0676916036896,412.8170604750226)"><path id="SvgjsPath1484" d="M0 4Q0 0 4 0L151 0Q155 0 155 4L155 45Q155 49 151 49L4 49Q0 49 0 45Z " stroke="rgba(50,50,50,1)" stroke-width="2" fill-opacity="1" fill="#ffffff"></path><g id="SvgjsG1485"><text id="SvgjsText1486" font-family="微软雅黑" text-anchor="middle" font-size="13px" width="135px" fill="#323232" font-weight="400" align="middle" lineheight="125%" font-style="" opacity="1" y="13.875" transform="rotate(0)"><tspan id="SvgjsTspan1487" dy="16" x="77.5"><tspan id="SvgjsTspan1488" style="text-decoration:;">业务校验</tspan></tspan></text></g></g><g id="SvgjsG1489" transform="translate(768.8673392822625,111.81708804129869)"><path id="SvgjsPath1490" d="M0 4Q0 0 4 0L151 0Q155 0 155 4L155 45Q155 49 151 49L4 49Q0 49 0 45Z " stroke="rgba(50,50,50,1)" stroke-width="2" fill-opacity="1" fill="#ffffff"></path><g id="SvgjsG1491"><text id="SvgjsText1492" font-family="微软雅黑" text-anchor="middle" font-size="13px" width="135px" fill="#323232" font-weight="400" align="middle" lineheight="125%" font-style="" opacity="1" y="13.875" transform="rotate(0)"><tspan id="SvgjsTspan1493" dy="16" x="77.5"><tspan id="SvgjsTspan1494" style="text-decoration:;">查询接口</tspan></tspan></text></g></g><g id="SvgjsG1495" transform="translate(477.1234390528724,709.4511538587916)"><path id="SvgjsPath1496" d="M0 4Q0 0 4 0L151 0Q155 0 155 4L155 45Q155 49 151 49L4 49Q0 49 0 45Z " stroke="rgba(50,50,50,1)" stroke-width="2" fill-opacity="1" fill="#ffffff"></path><g id="SvgjsG1497"><text id="SvgjsText1498" font-family="微软雅黑" text-anchor="middle" font-size="13px" width="135px" fill="#323232" font-weight="400" align="middle" lineheight="125%" font-style="" opacity="1" y="13.875" transform="rotate(0)"><tspan id="SvgjsTspan1499" dy="16" x="77.5"><tspan id="SvgjsTspan1500" style="text-decoration:;">消息队列</tspan></tspan></text></g></g><g id="SvgjsG1501" transform="translate(729.0676916036896,709.4511538587916)"><path id="SvgjsPath1502" d="M0 4Q0 0 4 0L151 0Q155 0 155 4L155 45Q155 49 151 49L4 49Q0 49 0 45Z " stroke="rgba(50,50,50,1)" stroke-width="2" fill-opacity="1" fill="#ffffff"></path><g id="SvgjsG1503"><text id="SvgjsText1504" font-family="微软雅黑" text-anchor="middle" font-size="13px" width="135px" fill="#323232" font-weight="400" align="middle" lineheight="125%" font-style="" opacity="1" y="13.875" transform="rotate(0)"><tspan id="SvgjsTspan1505" dy="16" x="77.5"><tspan id="SvgjsTspan1506" style="text-decoration:;">缓存</tspan></tspan></text></g></g><g id="SvgjsG1507" transform="translate(768.8673392822625,252.5)"><path id="SvgjsPath1508" d="M0 4Q0 0 4 0L151 0Q155 0 155 4L155 45Q155 49 151 49L4 49Q0 49 0 45Z " stroke="rgba(50,50,50,1)" stroke-width="2" fill-opacity="1" fill="#ffffff"></path><g id="SvgjsG1509"><text id="SvgjsText1510" font-family="微软雅黑" text-anchor="middle" font-size="13px" width="135px" fill="#323232" font-weight="400" align="middle" lineheight="125%" font-style="" opacity="1" y="13.875" transform="rotate(0)"><tspan id="SvgjsTspan1511" dy="16" x="77.5"><tspan id="SvgjsTspan1512" style="text-decoration:;">查询管理</tspan></tspan></text></g></g><g id="SvgjsG1513" transform="translate(341.3484011684907,183)"><path id="SvgjsPath1514" d="M12.513482109686578 0L25.406160646939416 0L25.406160646939416 22.55L37.91964275662599 22.55L18.959821378312995 41L0 22.55L12.513482109686578 22.55L12.513482109686578 0Z " stroke="rgba(50,50,50,1)" stroke-width="2" fill-opacity="1" fill="#ffffff"></path><g id="SvgjsG1515"><text id="SvgjsText1516" font-family="微软雅黑" text-anchor="middle" font-size="13px" width="54px" fill="#323232" font-weight="400" align="middle" lineheight="125%" font-style="" opacity="1" y="7.825000000000001" transform="rotate(0)"></text></g></g><g id="SvgjsG1517" transform="translate(729.0676916036896,183)"><path id="SvgjsPath1518" d="M12.513482109686578 0L25.406160646939416 0L25.406160646939416 22.55L37.91964275662599 22.55L18.959821378312995 41L0 22.55L12.513482109686578 22.55L12.513482109686578 0Z " stroke="rgba(50,50,50,1)" stroke-width="2" fill-opacity="1" fill="#ffffff"></path><g id="SvgjsG1519"><text id="SvgjsText1520" font-family="微软雅黑" text-anchor="middle" font-size="13px" width="54px" fill="#323232" font-weight="400" align="middle" lineheight="125%" font-style="" opacity="1" y="7.825000000000001" transform="rotate(0)"></text></g></g><g id="SvgjsG1521" transform="translate(534.6463347418606,183)"><path id="SvgjsPath1522" d="M12.513482109686578 0L25.406160646939416 0L25.406160646939416 22.55L37.91964275662599 22.55L18.959821378312995 41L0 22.55L12.513482109686578 22.55L12.513482109686578 0Z " stroke="rgba(50,50,50,1)" stroke-width="2" fill-opacity="1" fill="#ffffff"></path><g id="SvgjsG1523"><text id="SvgjsText1524" font-family="微软雅黑" text-anchor="middle" font-size="13px" width="54px" fill="#323232" font-weight="400" align="middle" lineheight="125%" font-style="" opacity="1" y="7.825000000000001" transform="rotate(0)"></text></g></g><g id="SvgjsG1525" transform="translate(341.3484011684907,324)"><path id="SvgjsPath1526" d="M12.513482109686578 0L25.406160646939416 0L25.406160646939416 22.55L37.91964275662599 22.55L18.959821378312995 41L0 22.55L12.513482109686578 22.55L12.513482109686578 0Z " stroke="rgba(50,50,50,1)" stroke-width="2" fill-opacity="1" fill="#ffffff"></path><g id="SvgjsG1527"><text id="SvgjsText1528" font-family="微软雅黑" text-anchor="middle" font-size="13px" width="54px" fill="#323232" font-weight="400" align="middle" lineheight="125%" font-style="" opacity="1" y="7.825000000000001" transform="rotate(0)"></text></g></g><g id="SvgjsG1529" transform="translate(536.1480488470636,324)"><path id="SvgjsPath1530" d="M12.513482109686578 0L25.406160646939416 0L25.406160646939416 22.55L37.91964275662599 22.55L18.959821378312995 41L0 22.55L12.513482109686578 22.55L12.513482109686578 0Z " stroke="rgba(50,50,50,1)" stroke-width="2" fill-opacity="1" fill="#ffffff"></path><g id="SvgjsG1531"><text id="SvgjsText1532" font-family="微软雅黑" text-anchor="middle" font-size="13px" width="54px" fill="#323232" font-weight="400" align="middle" lineheight="125%" font-style="" opacity="1" y="7.825000000000001" transform="rotate(0)"></text></g></g><g id="SvgjsG1533" transform="matrix(-1,1.2246467991473532e-16,-1.2246467991473532e-16,-1,878.9687638343316,544)"><path id="SvgjsPath1534" d="M17.01520659169663 0L34.546025504353764 0L34.546025504353764 194.2193839519748L51.56123209605039 194.2193839519748L25.780616048025195 220L0 194.2193839519748L17.01520659169663 194.2193839519748L17.01520659169663 0Z " stroke="rgba(50,50,50,1)" stroke-width="2" fill-opacity="1" fill="#ffffff"></path><g id="SvgjsG1535"><text id="SvgjsText1536" font-family="微软雅黑" text-anchor="middle" font-size="13px" width="73px" fill="#323232" font-weight="400" align="middle" lineheight="125%" font-style="" opacity="1" y="88.375" transform="rotate(0)"></text></g></g><g id="SvgjsG1537" transform="matrix(-1,1.2246467991473532e-16,-1.2246467991473532e-16,-1,379.268031428501,544)"><path id="SvgjsPath1538" d="M12.513482109686578 0L25.406160646939416 0L25.406160646939416 22.55L37.91964275662599 22.55L18.959821378312995 41L0 22.55L12.513482109686578 22.55L12.513482109686578 0Z " stroke="rgba(50,50,50,1)" stroke-width="2" fill-opacity="1" fill="#ffffff"></path><g id="SvgjsG1539"><text id="SvgjsText1540" font-family="微软雅黑" text-anchor="middle" font-size="13px" width="54px" fill="#323232" font-weight="400" align="middle" lineheight="125%" font-style="" opacity="1" y="7.825000000000001" transform="rotate(0)"></text></g></g><g id="SvgjsG1541" transform="matrix(-1,1.2246467991473532e-16,-1.2246467991473532e-16,-1,579.502894709751,544)"><path id="SvgjsPath1542" d="M12.513482109686578 0L25.406160646939416 0L25.406160646939416 22.55L37.91964275662599 22.55L18.959821378312995 41L0 22.55L12.513482109686578 22.55L12.513482109686578 0Z " stroke="rgba(50,50,50,1)" stroke-width="2" fill-opacity="1" fill="#ffffff"></path><g id="SvgjsG1543"><text id="SvgjsText1544" font-family="微软雅黑" text-anchor="middle" font-size="13px" width="54px" fill="#323232" font-weight="400" align="middle" lineheight="125%" font-style="" opacity="1" y="7.825000000000001" transform="rotate(0)"></text></g></g><g id="SvgjsG1545" transform="translate(25.004908497536235,550.6341209500451)"><path id="SvgjsPath1546" d="M0 4Q0 0 4 0L125.61119538356093 0Q129.61119538356093 0 129.61119538356093 4L129.61119538356093 71.36587904995486Q129.61119538356093 75.36587904995486 125.61119538356093 75.36587904995486L4 75.36587904995486Q0 75.36587904995486 0 71.36587904995486Z " stroke="rgba(50,50,50,1)" stroke-width="2" fill-opacity="1" fill="#99ccff"></path><g id="SvgjsG1547"><text id="SvgjsText1548" font-family="微软雅黑" text-anchor="middle" font-size="13px" width="110px" fill="#323232" font-weight="700" align="middle" lineheight="125%" font-style="" opacity="1" y="27.057939524977428" transform="rotate(0)"><tspan id="SvgjsTspan1549" dy="16" x="65"><tspan id="SvgjsTspan1550" style="text-decoration:;">适配层</tspan></tspan></text></g></g><g id="SvgjsG1551" transform="translate(341.3484011684907,641.3170329087465)"><path id="SvgjsPath1552" d="M12.513482109686578 0L25.406160646939416 0L25.406160646939416 22.55L37.91964275662599 22.55L18.959821378312995 41L0 22.55L12.513482109686578 22.55L12.513482109686578 0Z " stroke="rgba(50,50,50,1)" stroke-width="2" fill-opacity="1" fill="#ffffff"></path><g id="SvgjsG1553"><text id="SvgjsText1554" font-family="微软雅黑" text-anchor="middle" font-size="13px" width="54px" fill="#323232" font-weight="400" align="middle" lineheight="125%" font-style="" opacity="1" y="7.825000000000001" transform="rotate(0)"></text></g></g><g id="SvgjsG1555" transform="translate(538.6234390528724,641.3170329087465)"><path id="SvgjsPath1556" d="M12.513482109686578 0L25.406160646939416 0L25.406160646939416 22.55L37.91964275662599 22.55L18.959821378312995 41L0 22.55L12.513482109686578 22.55L12.513482109686578 0Z " stroke="rgba(50,50,50,1)" stroke-width="2" fill-opacity="1" fill="#ffffff"></path><g id="SvgjsG1557"><text id="SvgjsText1558" font-family="微软雅黑" text-anchor="middle" font-size="13px" width="54px" fill="#323232" font-weight="400" align="middle" lineheight="125%" font-style="" opacity="1" y="7.825000000000001" transform="rotate(0)"></text></g></g><g id="SvgjsG1559" transform="translate(735.8984769372541,641.3170329087465)"><path id="SvgjsPath1560" d="M12.513482109686578 0L25.406160646939416 0L25.406160646939416 22.55L37.91964275662599 22.55L18.959821378312995 41L0 22.55L12.513482109686578 22.55L12.513482109686578 0Z " stroke="rgba(50,50,50,1)" stroke-width="2" fill-opacity="1" fill="#ffffff"></path><g id="SvgjsG1561"><text id="SvgjsText1562" font-family="微软雅黑" text-anchor="middle" font-size="13px" width="54px" fill="#323232" font-weight="400" align="middle" lineheight="125%" font-style="" opacity="1" y="7.825000000000001" transform="rotate(0)"></text></g></g><g id="SvgjsG1563" transform="translate(175.2379494840577,550.6341209500451)"><path id="SvgjsPath1564" d="M0 4Q0 0 4 0L766.6102646508812 0Q770.6102646508812 0 770.6102646508812 4L770.6102646508812 71.36587904995486Q770.6102646508812 75.36587904995486 766.6102646508812 75.36587904995486L4 75.36587904995486Q0 75.36587904995486 0 71.36587904995486Z " stroke="rgba(50,50,50,1)" stroke-width="2" fill-opacity="1" fill="#99ccff"></path><g id="SvgjsG1565"><text id="SvgjsText1566" font-family="微软雅黑" text-anchor="middle" font-size="13px" width="751px" fill="#323232" font-weight="700" align="middle" lineheight="125%" font-style="" opacity="1" y="27.057939524977428" transform="rotate(0)"></text></g></g><g id="SvgjsG1567" transform="translate(228.6234390528724,568.1585164543733)"><path id="SvgjsPath1568" d="M0 4Q0 0 4 0L151 0Q155 0 155 4L155 45Q155 49 151 49L4 49Q0 49 0 45Z " stroke="rgba(50,50,50,1)" stroke-width="2" fill-opacity="1" fill="#ffffff"></path><g id="SvgjsG1569"><text id="SvgjsText1570" font-family="微软雅黑" text-anchor="middle" font-size="13px" width="135px" fill="#323232" font-weight="400" align="middle" lineheight="125%" font-style="" opacity="1" y="13.875" transform="rotate(0)"><tspan id="SvgjsTspan1571" dy="16" x="77.5"><tspan id="SvgjsTspan1572" style="text-decoration:;">资源库</tspan></tspan></text></g></g><g id="SvgjsG1573" transform="translate(480.0832604311854,568.1585164543733)"><path id="SvgjsPath1574" d="M0 4Q0 0 4 0L151 0Q155 0 155 4L155 45Q155 49 151 49L4 49Q0 49 0 45Z " stroke="rgba(50,50,50,1)" stroke-width="2" fill-opacity="1" fill="#ffffff"></path><g id="SvgjsG1575"><text id="SvgjsText1576" font-family="微软雅黑" text-anchor="middle" font-size="13px" width="135px" fill="#323232" font-weight="400" align="middle" lineheight="125%" font-style="" opacity="1" y="13.875" transform="rotate(0)"><tspan id="SvgjsTspan1577" dy="16" x="77.5"><tspan id="SvgjsTspan1578" style="text-decoration:;">工厂</tspan></tspan></text></g></g><g id="SvgjsG1579" transform="translate(729.0676916036896,568.1585164543733)"><path id="SvgjsPath1580" d="M0 4Q0 0 4 0L151 0Q155 0 155 4L155 45Q155 49 151 49L4 49Q0 49 0 45Z " stroke="rgba(50,50,50,1)" stroke-width="2" fill-opacity="1" fill="#ffffff"></path><g id="SvgjsG1581"><text id="SvgjsText1582" font-family="微软雅黑" text-anchor="middle" font-size="13px" width="135px" fill="#323232" font-weight="400" align="middle" lineheight="125%" font-style="" opacity="1" y="13.875" transform="rotate(0)"><tspan id="SvgjsTspan1583" dy="16" x="77.5"><tspan id="SvgjsTspan1584" style="text-decoration:;">外调转换</tspan></tspan></text></g></g></svg>