<?xml version="1.0" standalone="no"?><?xml-stylesheet type="text/css" href="https://wps.processon.com/themes/default/wps/mind/icons/icons.css" ?><!DOCTYPE svg PUBLIC "-//W3C//DTD SVG 1.1//EN" "http://www.w3.org/Graphics/SVG/1.1/DTD/svg11.dtd"><svg id="SvgjsSvg1187" xmlns="http://www.w3.org/2000/svg" version="1.1" xmlns:xlink="http://www.w3.org/1999/xlink" xmlns:svgjs="http://svgjs.com/svgjs" width="1228" height="689"><rect fill="url(#pattern_mark)" transform="translate(101,-170)" width="1727" height="907" id="rect_mark" pointer-events="none"></rect><defs id="SvgjsDefs1188"><marker id="SvgjsMarker1251" markerWidth="14" markerHeight="10" refX="10" refY="5" viewBox="0 0 14 10" orient="auto" markerUnits="userSpaceOnUse" stroke-dasharray="0,0"><path id="SvgjsPath1252" d="M0 0L14 5L0 10L0 0 " fill="#323232" stroke="#323232" stroke-width="1"></path></marker><marker id="SvgjsMarker1259" markerWidth="14" markerHeight="10" refX="10" refY="5" viewBox="0 0 14 10" orient="auto" markerUnits="userSpaceOnUse" stroke-dasharray="0,0"><path id="SvgjsPath1260" d="M0 0L14 5L0 10L0 0 " fill="#323232" stroke="#323232" stroke-width="1"></path></marker><marker id="SvgjsMarker1267" markerWidth="14" markerHeight="10" refX="10" refY="5" viewBox="0 0 14 10" orient="auto" markerUnits="userSpaceOnUse" stroke-dasharray="0,0"><path id="SvgjsPath1268" d="M0 0L14 5L0 10L0 0 " fill="#323232" stroke="#323232" stroke-width="1"></path></marker><marker id="SvgjsMarker1275" markerWidth="14" markerHeight="10" refX="10" refY="5" viewBox="0 0 14 10" orient="auto" markerUnits="userSpaceOnUse" stroke-dasharray="0,0"><path id="SvgjsPath1276" d="M0 0L14 5L0 10L0 0 " fill="#323232" stroke="#323232" stroke-width="1"></path></marker><marker id="SvgjsMarker1283" markerWidth="14" markerHeight="10" refX="10" refY="5" viewBox="0 0 14 10" orient="auto" markerUnits="userSpaceOnUse" stroke-dasharray="0,0"><path id="SvgjsPath1284" d="M0 0L14 5L0 10L0 0 " fill="#323232" stroke="#323232" stroke-width="1"></path></marker><marker id="SvgjsMarker1315" markerWidth="14" markerHeight="10" refX="10" refY="5" viewBox="0 0 14 10" orient="auto" markerUnits="userSpaceOnUse" stroke-dasharray="0,0"><path id="SvgjsPath1316" d="M0 0L14 5L0 10L0 0 " fill="#323232" stroke="#323232" stroke-width="1"></path></marker><marker id="SvgjsMarker1323" markerWidth="14" markerHeight="10" refX="4" refY="5" viewBox="0 0 14 10" orient="auto" markerUnits="userSpaceOnUse" stroke-dasharray="0,0"><path id="SvgjsPath1324" d="M14 0L0 5L14 10L14 0 " fill="#323232" stroke="#323232" stroke-width="1"></path></marker><marker id="SvgjsMarker1331" markerWidth="14" markerHeight="10" refX="10" refY="5" viewBox="0 0 14 10" orient="auto" markerUnits="userSpaceOnUse" stroke-dasharray="0,0"><path id="SvgjsPath1332" d="M0 0L14 5L0 10L0 0 " fill="#323232" stroke="#323232" stroke-width="1"></path></marker><marker id="SvgjsMarker1341" markerWidth="14" markerHeight="10" refX="10" refY="5" viewBox="0 0 14 10" orient="auto" markerUnits="userSpaceOnUse" stroke-dasharray="0,0"><path id="SvgjsPath1342" d="M0 0L14 5L0 10L0 0 " fill="#323232" stroke="#323232" stroke-width="1"></path></marker><marker id="SvgjsMarker1349" markerWidth="14" markerHeight="10" refX="10" refY="5" viewBox="0 0 14 10" orient="auto" markerUnits="userSpaceOnUse" stroke-dasharray="0,0"><path id="SvgjsPath1350" d="M0 0L14 5L0 10L0 0 " fill="#323232" stroke="#323232" stroke-width="1"></path></marker><marker id="SvgjsMarker1363" markerWidth="14" markerHeight="10" refX="10" refY="5" viewBox="0 0 14 10" orient="auto" markerUnits="userSpaceOnUse" stroke-dasharray="0,0"><path id="SvgjsPath1364" d="M0 0L14 5L0 10L0 0 " fill="#323232" stroke="#323232" stroke-width="1"></path></marker><pattern patternUnits="userSpaceOnUse" id="pattern_mark" width="300" height="300"><text x="-50" y="150" fill="rgba(229,229,229,0.8)" font-size="18" transform="rotate(-45, 150, 150)"></text></pattern></defs><g id="svgbackgroundid"><defs></defs><rect x="0" y="0" width="1228" height="689" fill="#ffffff"></rect></g><g id="SvgjsG1189" transform="translate(348,25)"><path id="SvgjsPath1190" d="M0 4Q0 0 4 0L153 0Q157 0 157 4L157 57Q157 61 153 61L4 61Q0 61 0 57Z " stroke="rgba(50,50,50,1)" stroke-width="2" fill-opacity="1" fill="#ffffff"></path><g id="SvgjsG1191"><text id="SvgjsText1192" font-family="微软雅黑" text-anchor="middle" font-size="13px" width="137px" fill="#323232" font-weight="400" align="middle" lineheight="125%" font-style="" opacity="1" y="19.875" transform="rotate(0)"><tspan id="SvgjsTspan1193" dy="16" x="78.5"><tspan id="SvgjsTspan1194" style="text-decoration:;">渠道服务</tspan></tspan></text></g></g><g id="SvgjsG1195" transform="translate(675,25)"><path id="SvgjsPath1196" d="M0 4Q0 0 4 0L153 0Q157 0 157 4L157 57Q157 61 153 61L4 61Q0 61 0 57Z " stroke="rgba(50,50,50,1)" stroke-width="2" fill-opacity="1" fill="#ffffff"></path><g id="SvgjsG1197"><text id="SvgjsText1198" font-family="微软雅黑" text-anchor="middle" font-size="13px" width="137px" fill="#323232" font-weight="400" align="middle" lineheight="125%" font-style="" opacity="1" y="19.875" transform="rotate(0)"><tspan id="SvgjsTspan1199" dy="16" x="78.5"><tspan id="SvgjsTspan1200" style="text-decoration:;">其他服务中心</tspan></tspan></text></g></g><g id="SvgjsG1201" transform="translate(686,35)"><path id="SvgjsPath1202" d="M0 4Q0 0 4 0L153 0Q157 0 157 4L157 57Q157 61 153 61L4 61Q0 61 0 57Z " stroke="rgba(50,50,50,1)" stroke-width="2" fill-opacity="1" fill="#ffffff"></path><g id="SvgjsG1203"><text id="SvgjsText1204" font-family="微软雅黑" text-anchor="middle" font-size="13px" width="137px" fill="#323232" font-weight="400" align="middle" lineheight="125%" font-style="" opacity="1" y="19.875" transform="rotate(0)"><tspan id="SvgjsTspan1205" dy="16" x="78.5"><tspan id="SvgjsTspan1206" style="text-decoration:;">其他服务中心</tspan></tspan></text></g></g><g id="SvgjsG1207" transform="translate(358,35)"><path id="SvgjsPath1208" d="M0 4Q0 0 4 0L153 0Q157 0 157 4L157 57Q157 61 153 61L4 61Q0 61 0 57Z " stroke="rgba(50,50,50,1)" stroke-width="2" fill-opacity="1" fill="#ffffff"></path><g id="SvgjsG1209"><text id="SvgjsText1210" font-family="微软雅黑" text-anchor="middle" font-size="13px" width="137px" fill="#323232" font-weight="400" align="middle" lineheight="125%" font-style="" opacity="1" y="19.875" transform="rotate(0)"><tspan id="SvgjsTspan1211" dy="16" x="78.5"><tspan id="SvgjsTspan1212" style="text-decoration:;">渠道接入服务</tspan></tspan></text></g></g><g id="SvgjsG1213" transform="translate(333,242)"><path id="SvgjsPath1214" d="M0 4Q0 0 4 0L203 0Q207 0 207 4L207 68Q207 72 203 72L4 72Q0 72 0 68Z " stroke="rgba(50,50,50,1)" stroke-width="2" fill-opacity="1" fill="#ffffff"></path><g id="SvgjsG1215"><text id="SvgjsText1216" font-family="微软雅黑" text-anchor="middle" font-size="13px" width="187px" fill="#323232" font-weight="400" align="middle" lineheight="125%" font-style="" opacity="1" y="25.375" transform="rotate(0)"><tspan id="SvgjsTspan1217" dy="16" x="103.5"><tspan id="SvgjsTspan1218" style="text-decoration:;">用户读写服务</tspan></tspan></text></g></g><g id="SvgjsG1219" transform="translate(333,429)"><path id="SvgjsPath1220" d="M0 0L207 0L207 161L0 161Z " stroke="rgba(50,50,50,1)" stroke-width="2" fill-opacity="1" fill="#ffffff"></path><g id="SvgjsG1221"><text id="SvgjsText1222" font-family="微软雅黑" text-anchor="middle" font-size="13px" width="187px" fill="#323232" font-weight="400" align="middle" lineheight="125%" font-style="" opacity="1" y="69.875" transform="rotate(0)"></text></g></g><g id="SvgjsG1223" transform="translate(380.5,624)"><path id="SvgjsPath1224" d="M0 0L120 0L120 40L0 40Z " stroke="none" fill="none"></path><g id="SvgjsG1225"><text id="SvgjsText1226" font-family="微软雅黑" text-anchor="middle" font-size="13px" width="120px" fill="#323232" font-weight="400" align="middle" lineheight="125%" font-style="" opacity="1" y="9.375" transform="rotate(0)"><tspan id="SvgjsTspan1227" dy="16" x="60"><tspan id="SvgjsTspan1228" style="text-decoration:;">数据库集群</tspan></tspan></text></g></g><g id="SvgjsG1229" transform="translate(25,243)"><path id="SvgjsPath1230" d="M0 0L147 0L147 70L0 70Z " stroke="rgba(50,50,50,1)" stroke-width="2" fill-opacity="1" fill="#ffffff"></path><g id="SvgjsG1231"><text id="SvgjsText1232" font-family="微软雅黑" text-anchor="middle" font-size="13px" width="127px" fill="#323232" font-weight="400" align="middle" lineheight="125%" font-style="" opacity="1" y="24.375" transform="rotate(0)"><tspan id="SvgjsTspan1233" dy="16" x="73.5"><tspan id="SvgjsTspan1234" style="text-decoration:;">分布式ID</tspan></tspan></text></g></g><g id="SvgjsG1235" transform="translate(661,242)"><path id="SvgjsPath1236" d="M0 4Q0 0 4 0L203 0Q207 0 207 4L207 68Q207 72 203 72L4 72Q0 72 0 68Z " stroke="rgba(50,50,50,1)" stroke-width="2" fill-opacity="1" fill="#ffffff"></path><g id="SvgjsG1237"><text id="SvgjsText1238" font-family="微软雅黑" text-anchor="middle" font-size="13px" width="187px" fill="#323232" font-weight="400" align="middle" lineheight="125%" font-style="" opacity="1" y="25.375" transform="rotate(0)"><tspan id="SvgjsTspan1239" dy="16" x="103.5"><tspan id="SvgjsTspan1240" style="text-decoration:;">用户查询服务</tspan></tspan></text></g></g><g id="SvgjsG1241" transform="translate(1056,306.25)"><path id="SvgjsPath1242" d="M0 0L147 0L147 70L0 70Z " stroke="rgba(50,50,50,1)" stroke-width="2" fill-opacity="1" fill="#ffffff"></path><g id="SvgjsG1243"><text id="SvgjsText1244" font-family="微软雅黑" text-anchor="middle" font-size="13px" width="127px" fill="#323232" font-weight="400" align="middle" lineheight="125%" font-style="" opacity="1" y="16.375" transform="rotate(0)"><tspan id="SvgjsTspan1245" dy="16" x="73.5"><tspan id="SvgjsTspan1246" style="text-decoration:;">手机号-用户编号映射</tspan></tspan><tspan id="SvgjsTspan1247" dy="16" x="73.5"><tspan id="SvgjsTspan1248" style="text-decoration:;">缓存</tspan></tspan></text></g></g><g id="SvgjsG1249"><path id="SvgjsPath1250" d="M436.5 97L436.5 169L436.5 169L436.5 238.39999999999998 " stroke="#323232" stroke-width="2" fill="none" marker-end="url(#SvgjsMarker1251)"></path><rect id="SvgjsRect1253" width="121" height="16" x="376" y="159.7" fill="#ffffff"></rect><text id="SvgjsText1254" font-family="微软雅黑" text-anchor="middle" font-size="13px" width="121px" fill="#323232" font-weight="400" align="top" lineheight="16px" font-style="" opacity="1" y="157.075" transform="rotate(0)"><tspan id="SvgjsTspan1255" dy="16" x="436.5"><tspan id="SvgjsTspan1256" style="text-decoration:;">注册/登录/修改/注销</tspan></tspan></text></g><g id="SvgjsG1257"><path id="SvgjsPath1258" d="M332 278L252.5 278L252.5 278L175.6 278 " stroke="#323232" stroke-width="2" fill="none" marker-end="url(#SvgjsMarker1259)"></path><rect id="SvgjsRect1261" width="40" height="16" x="233.79999999999998" y="270" fill="#ffffff"></rect><text id="SvgjsText1262" font-family="微软雅黑" text-anchor="middle" font-size="13px" width="40px" fill="#323232" font-weight="400" align="top" lineheight="16px" font-style="" opacity="1" y="267.375" transform="rotate(0)"><tspan id="SvgjsTspan1263" dy="16" x="253.79999999999998"><tspan id="SvgjsTspan1264" style="text-decoration:;">获取ID</tspan></tspan></text></g><g id="SvgjsG1265"><path id="SvgjsPath1266" d="M436.5 315L436.5 371.5L436.5 371.5L436.5 425.4 " stroke="#323232" stroke-width="2" fill="none" marker-end="url(#SvgjsMarker1267)"></path><rect id="SvgjsRect1269" width="26" height="16" x="423.5" y="362.2" fill="#ffffff"></rect><text id="SvgjsText1270" font-family="微软雅黑" text-anchor="middle" font-size="13px" width="26px" fill="#323232" font-weight="400" align="top" lineheight="16px" font-style="" opacity="1" y="359.575" transform="rotate(0)"><tspan id="SvgjsTspan1271" dy="16" x="436.5"><tspan id="SvgjsTspan1272" style="text-decoration:;">读写</tspan></tspan></text></g><g id="SvgjsG1273"><path id="SvgjsPath1274" d="M764.5 97L764.5 169L764.5 169L764.5 238.39999999999998 " stroke="#323232" stroke-width="2" fill="none" marker-end="url(#SvgjsMarker1275)"></path><rect id="SvgjsRect1277" width="26" height="16" x="751.5" y="159.7" fill="#ffffff"></rect><text id="SvgjsText1278" font-family="微软雅黑" text-anchor="middle" font-size="13px" width="26px" fill="#323232" font-weight="400" align="top" lineheight="16px" font-style="" opacity="1" y="157.075" transform="rotate(0)"><tspan id="SvgjsTspan1279" dy="16" x="764.5"><tspan id="SvgjsTspan1280" style="text-decoration:;">查询</tspan></tspan></text></g><g id="SvgjsG1281"><path id="SvgjsPath1282" d="M513.2890440619605 94.68669958998026L761.3945662060787 240.17893411663067 " stroke="#323232" stroke-width="2" fill="none" marker-end="url(#SvgjsMarker1283)"></path><rect id="SvgjsRect1285" width="26" height="16" x="624.3418051340195" y="159.43281685330547" fill="#ffffff"></rect><text id="SvgjsText1286" font-family="微软雅黑" text-anchor="middle" font-size="13px" width="26px" fill="#323232" font-weight="400" align="top" lineheight="16px" font-style="" opacity="1" y="156.80781685330547" transform="rotate(0)"><tspan id="SvgjsTspan1287" dy="16" x="637.3418051340195"><tspan id="SvgjsTspan1288" style="text-decoration:;">查询</tspan></tspan></text></g><g id="SvgjsG1289" transform="translate(1056,495.5)"><path id="SvgjsPath1290" d="M0 4Q0 0 4 0L143 0Q147 0 147 4L147 64Q147 68 143 68L4 68Q0 68 0 64Z " stroke="rgba(50,50,50,1)" stroke-width="2" fill-opacity="1" fill="#ffffff"></path><g id="SvgjsG1291"><text id="SvgjsText1292" font-family="微软雅黑" text-anchor="middle" font-size="13px" width="127px" fill="#323232" font-weight="400" align="middle" lineheight="125%" font-style="" opacity="1" y="23.375" transform="rotate(0)"><tspan id="SvgjsTspan1293" dy="16" x="73.5"><tspan id="SvgjsTspan1294" style="text-decoration:;">数据同步服务</tspan></tspan></text></g></g><g id="SvgjsG1295" transform="translate(353,449)"><path id="SvgjsPath1296" d="M0 0L207 0L207 161L0 161Z " stroke="rgba(50,50,50,1)" stroke-width="2" fill-opacity="1" fill="#ffffff"></path><g id="SvgjsG1297"><text id="SvgjsText1298" font-family="微软雅黑" text-anchor="middle" font-size="13px" width="187px" fill="#323232" font-weight="400" align="middle" lineheight="125%" font-style="" opacity="1" y="69.875" transform="rotate(0)"><tspan id="SvgjsTspan1299" dy="16" x="103.5"><tspan id="SvgjsTspan1300" style="text-decoration:;">分库</tspan></tspan></text></g></g><g id="SvgjsG1301" transform="translate(661,429)"><path id="SvgjsPath1302" d="M0 0L207 0L207 161L0 161Z " stroke="rgba(50,50,50,1)" stroke-width="2" fill-opacity="1" fill="#ffffff"></path><g id="SvgjsG1303"><text id="SvgjsText1304" font-family="微软雅黑" text-anchor="middle" font-size="13px" width="187px" fill="#323232" font-weight="400" align="middle" lineheight="125%" font-style="" opacity="1" y="69.875" transform="rotate(0)"><tspan id="SvgjsTspan1305" dy="16" x="103.5"><tspan id="SvgjsTspan1306" style="text-decoration:;">分库</tspan></tspan></text></g></g><g id="SvgjsG1307" transform="translate(681,449)"><path id="SvgjsPath1308" d="M0 0L207 0L207 161L0 161Z " stroke="rgba(50,50,50,1)" stroke-width="2" fill-opacity="1" fill="#ffffff"></path><g id="SvgjsG1309"><text id="SvgjsText1310" font-family="微软雅黑" text-anchor="middle" font-size="13px" width="187px" fill="#323232" font-weight="400" align="middle" lineheight="125%" font-style="" opacity="1" y="69.875" transform="rotate(0)"><tspan id="SvgjsTspan1311" dy="16" x="103.5"><tspan id="SvgjsTspan1312" style="text-decoration:;">消息队列</tspan></tspan></text></g></g><g id="SvgjsG1313"><path id="SvgjsPath1314" d="M539.3164264019006 313.63680294022606L761.2959897822943 427.35856205574567 " stroke="#323232" stroke-width="2" fill="none" marker-end="url(#SvgjsMarker1315)"></path><rect id="SvgjsRect1317" width="52" height="16" x="624.3062080920974" y="362.49768249798586" fill="#ffffff"></rect><text id="SvgjsText1318" font-family="微软雅黑" text-anchor="middle" font-size="13px" width="52px" fill="#323232" font-weight="400" align="top" lineheight="16px" font-style="" opacity="1" y="359.87268249798586" transform="rotate(0)"><tspan id="SvgjsTspan1319" dy="16" x="650.3062080920974"><tspan id="SvgjsTspan1320" style="text-decoration:;">生产消息</tspan></tspan></text></g><g id="SvgjsG1321"><path id="SvgjsPath1322" d="M891.6 529.5L1055 529.5 " stroke="#323232" stroke-width="2" fill="none" marker-start="url(#SvgjsMarker1323)"></path><rect id="SvgjsRect1325" width="52" height="16" x="947.3" y="521.5" fill="#ffffff"></rect><text id="SvgjsText1326" font-family="微软雅黑" text-anchor="middle" font-size="13px" width="52px" fill="#323232" font-weight="400" align="top" lineheight="16px" font-style="" opacity="1" y="518.875" transform="rotate(0)"><tspan id="SvgjsTspan1327" dy="16" x="973.3"><tspan id="SvgjsTspan1328" style="text-decoration:;">消费消息</tspan></tspan></text></g><g id="SvgjsG1329"><path id="SvgjsPath1330" d="M1129.5 494.5L1129.5 379.85 " stroke="#323232" stroke-width="2" fill="none" marker-end="url(#SvgjsMarker1331)"></path></g><g id="SvgjsG1333" transform="translate(712,624)"><path id="SvgjsPath1334" d="M0 0L120 0L120 40L0 40Z " stroke="none" fill="none"></path><g id="SvgjsG1335"><text id="SvgjsText1336" font-family="微软雅黑" text-anchor="middle" font-size="13px" width="120px" fill="#323232" font-weight="400" align="middle" lineheight="125%" font-style="" opacity="1" y="9.375" transform="rotate(0)"><tspan id="SvgjsTspan1337" dy="16" x="60"><tspan id="SvgjsTspan1338" style="text-decoration:;">消息队列集群</tspan></tspan></text></g></g><g id="SvgjsG1339"><path id="SvgjsPath1340" d="M661.6742456141471 313.57764904884266L481.0481161078734 427.08453969163475 " stroke="#323232" stroke-width="2" fill="none" marker-end="url(#SvgjsMarker1341)"></path><rect id="SvgjsRect1343" width="13" height="16" x="564.8611808610103" y="362.3310943702387" fill="#ffffff"></rect><text id="SvgjsText1344" font-family="微软雅黑" text-anchor="middle" font-size="13px" width="13px" fill="#323232" font-weight="400" align="top" lineheight="16px" font-style="" opacity="1" y="359.7060943702387" transform="rotate(0)"><tspan id="SvgjsTspan1345" dy="16" x="571.3611808610103"><tspan id="SvgjsTspan1346" style="text-decoration:;">读</tspan></tspan></text></g><g id="SvgjsG1347"><path id="SvgjsPath1348" d="M868.9477973476959 278.31887330979663L1052.5879295482948 340.1020560847321 " stroke="#323232" stroke-width="2" fill="none" marker-end="url(#SvgjsMarker1349)"></path><rect id="SvgjsRect1351" width="78" height="16" x="921.7678634479953" y="301.21046469726434" fill="#ffffff"></rect><text id="SvgjsText1352" font-family="微软雅黑" text-anchor="middle" font-size="13px" width="78px" fill="#323232" font-weight="400" align="top" lineheight="16px" font-style="" opacity="1" y="298.58546469726434" transform="rotate(0)"><tspan id="SvgjsTspan1353" dy="16" x="960.7678634479953"><tspan id="SvgjsTspan1354" style="text-decoration:;">获取用户编号</tspan></tspan></text></g><g id="SvgjsG1355" transform="translate(1056,154)"><path id="SvgjsPath1356" d="M0 0L147 0L147 70L0 70Z " stroke="rgba(50,50,50,1)" stroke-width="2" fill-opacity="1" fill="#ffffff"></path><g id="SvgjsG1357"><text id="SvgjsText1358" font-family="微软雅黑" text-anchor="middle" font-size="13px" width="127px" fill="#323232" font-weight="400" align="middle" lineheight="125%" font-style="" opacity="1" y="24.375" transform="rotate(0)"><tspan id="SvgjsTspan1359" dy="16" x="73.5"><tspan id="SvgjsTspan1360" style="text-decoration:;">用户信息缓存</tspan></tspan></text></g></g><g id="SvgjsG1361"><path id="SvgjsPath1362" d="M864.8425147733001 241.8548210611816L1052.530193579305 189.95939741656088 " stroke="#323232" stroke-width="2" fill="none" marker-end="url(#SvgjsMarker1363)"></path><rect id="SvgjsRect1365" width="32" height="16" x="942.6863541763025" y="207.90710923887124" fill="#ffffff"></rect><text id="SvgjsText1366" font-family="微软雅黑" text-anchor="middle" font-size="13px" width="32px" fill="#323232" font-weight="400" align="top" lineheight="16px" font-style="" opacity="1" y="205.28210923887124" transform="rotate(0)"><tspan id="SvgjsTspan1367" dy="16" x="958.6863541763025"><tspan id="SvgjsTspan1368" style="text-decoration:;">读/写</tspan></tspan></text></g></svg>